<?xml version="1.0" standalone="no"?>
<!DOCTYPE svg PUBLIC "-//W3C//DTD SVG 1.1//EN" "http://www.w3.org/Graphics/SVG/1.1/DTD/svg11.dtd" >
<svg>
<metadata>
Created by FontForge 20120731 at Thu Jun  9 00:55:52 2016
 By ,,,
2009 Albert-Jan Pool published by FSI FontShop International GmbH
</metadata>
<defs>
<font id="AdihausDIN-Cn" horiz-adv-x="373" >
  <font-face 
    font-family="AdihausDIN Cn"
    font-weight="400"
    font-stretch="condensed"
    units-per-em="1000"
    panose-1="2 11 5 6 2 1 1 1 1 2"
    ascent="764"
    descent="-236"
    x-height="509"
    cap-height="712"
    bbox="-70 -220 945 1073"
    underline-thickness="44"
    underline-position="-68"
    unicode-range="U+0020-FEFF"
  />
<missing-glyph 
d="M62 712h249v-712h-249v712zM267 44v624h-161v-624h161z" />
    <glyph glyph-name=".notdef" 
d="M62 712h249v-712h-249v712zM267 44v624h-161v-624h161z" />
    <glyph glyph-name=".null" horiz-adv-x="0" 
 />
    <glyph glyph-name="nonmarkingreturn" horiz-adv-x="194" 
 />
    <glyph glyph-name="space" unicode=" " horiz-adv-x="194" 
 />
    <glyph glyph-name="exclam" unicode="!" horiz-adv-x="227" 
d="M100 187v525h56v-525h-56zM90 0v75h75v-75h-75z" />
    <glyph glyph-name="quotedbl" unicode="&#x22;" horiz-adv-x="352" 
d="M62 529v183h65v-183h-65zM226 529v183h64v-183h-64z" />
    <glyph glyph-name="numbersign" unicode="#" horiz-adv-x="500" 
d="M365 444l-20 -163h73v-51h-81l-29 -230h-54l29 230h-102l-29 -230h-54l29 230h-72v51h79l21 163h-73v50h80l28 218h54l-28 -218h102l28 218h54l-28 -218h72v-50h-79zM209 444l-21 -163h102l21 163h-102z" />
    <glyph glyph-name="dollar" unicode="$" horiz-adv-x="404" 
d="M351 186q0 -57 -10 -93.5t-34 -60.5q-30 -30 -81 -36v-110h-53v109q-57 5 -89 37q-12 12 -20 25.5t-13 30.5t-7 39t-2 51h59q0 -42 5.5 -65.5t22.5 -40.5q18 -18 44 -22v298l-32 13q-27 11 -45.5 25.5t-29 35t-15 49t-4.5 68.5q0 46 12 82t37 59q32 30 77 36v90h53v-90
q50 -6 81 -37q26 -26 34.5 -58.5t8.5 -79.5h-59q0 34 -5.5 57t-21.5 41q-16 17 -38 23v-273l33 -13q29 -12 47 -28.5t28 -39.5t13.5 -53t3.5 -69zM292 184q0 32 -3 54.5t-10.5 39t-20 28t-32.5 20.5v-275q25 6 38 21q17 19 22.5 44.5t5.5 67.5zM173 662q-22 -6 -36 -20
q-17 -17 -24 -43t-7 -59q0 -29 2.5 -49.5t10 -35t20.5 -25t34 -19.5v251z" />
    <glyph glyph-name="percent" unicode="%" horiz-adv-x="617" 
d="M252 446q0 -46 -28 -73t-71 -27t-70.5 27t-27.5 73v175q0 46 27.5 72.5t70.5 26.5t71 -26.5t28 -72.5v-175zM562 92q0 -46 -27.5 -73t-70.5 -27t-70.5 27t-27.5 73v174q0 46 27.5 73t70.5 27t70.5 -27t27.5 -73v-174zM208 0h-47l248 712h47zM514 266q0 26 -13 41.5
t-37 15.5t-37 -15.5t-13 -41.5v-174q0 -26 13 -41.5t37 -15.5t37 15.5t13 41.5v174zM203 620q0 26 -13 41.5t-37 15.5t-36.5 -15.5t-12.5 -41.5v-174q0 -26 12.5 -41.5t36.5 -15.5t37 15.5t13 41.5v174z" />
    <glyph glyph-name="ampersand" unicode="&#x26;" horiz-adv-x="486" 
d="M417 0l-55 84q-17 -21 -33.5 -38t-36 -29t-43 -18.5t-53.5 -6.5q-33 0 -62 11.5t-50 33.5t-33.5 54t-12.5 73q0 33 7.5 61t22.5 54.5t38.5 53t55.5 55.5q-26 36 -43 61.5t-27.5 46.5t-15 39.5t-4.5 39.5q0 28 8.5 54t25 46t41.5 31.5t58 11.5q66 0 100 -37.5t34 -96.5
q0 -32 -6 -57t-19.5 -48.5t-34 -47t-49.5 -50.5l132 -199q19 31 31.5 78t15.5 90h54q-5 -61 -22.5 -118t-46.5 -100l87 -132h-64zM191 344q-50 -49 -73.5 -89.5t-23.5 -85.5q0 -25 7 -47.5t21 -40t34 -27.5t46 -10q39 0 70 24t60 62zM285 582q0 38 -22 61.5t-57 23.5
q-21 0 -36 -8t-24.5 -21t-14 -29t-4.5 -32q0 -15 3.5 -29t11.5 -31t22.5 -39t36.5 -53q19 19 35 36.5t26.5 35.5t16.5 38.5t6 46.5z" />
    <glyph glyph-name="quotesingle" unicode="'" horiz-adv-x="189" 
d="M62 529v183h65v-183h-65z" />
    <glyph glyph-name="parenleft" unicode="(" horiz-adv-x="222" 
d="M143 -94q-20 20 -37 40t-28 40q-13 24 -16.5 47.5t-3.5 49.5v546q0 26 3.5 49.5t16.5 47.5q12 23 28.5 41.5t36.5 38.5l38 -38q-15 -15 -29 -29.5t-23 -33.5q-8 -16 -11.5 -36.5t-3.5 -45.5v-534q0 -25 3.5 -45.5t11.5 -36.5q9 -19 23 -33.5t29 -29.5z" />
    <glyph glyph-name="parenright" unicode=")" horiz-adv-x="222" 
d="M164 83q0 -26 -3.5 -49.5t-16.5 -47.5q-11 -20 -28.5 -40t-37.5 -40l-38 38l29.5 29.5t23.5 33.5q8 16 11.5 36.5t3.5 45.5v534q0 25 -3.5 45.5t-11.5 36.5q-9 19 -23.5 33.5l-29.5 29.5l38 38q23 -23 39 -40.5t27 -39.5q13 -24 16.5 -47.5t3.5 -49.5v-546z" />
    <glyph glyph-name="asterisk" unicode="*" horiz-adv-x="369" 
d="M296 465l-91 55l2 -127h-45l3 127l-92 -55l-22 40l93 50l-93 50l22 40l92 -55l-3 127h45l-2 -127l91 55l22 -40l-93 -50l93 -50z" />
    <glyph glyph-name="plus" unicode="+" horiz-adv-x="431" 
d="M242 251v-141h-53v141h-140v53h140v140h53v-140h141v-53h-141z" />
    <glyph glyph-name="comma" unicode="," horiz-adv-x="184" 
d="M58 -99v176h69v-125z" />
    <glyph glyph-name="hyphen" unicode="-" horiz-adv-x="301" 
d="M55 251v53h191v-53h-191z" />
    <glyph glyph-name="period" unicode="." horiz-adv-x="199" 
d="M62 0v75h75v-75h-75z" />
    <glyph glyph-name="slash" unicode="/" horiz-adv-x="246" 
d="M59 -74h-57l185 860h57z" />
    <glyph glyph-name="zero" unicode="0" horiz-adv-x="361" 
d="M307 128q0 -37 -9.5 -60.5t-26.5 -40.5q-16 -16 -40.5 -25.5t-50.5 -9.5t-50 9.5t-40 25.5q-17 17 -26.5 40.5t-9.5 60.5v456q0 37 9.5 60.5t26.5 40.5q16 16 40 25.5t50 9.5t50.5 -9.5t40.5 -25.5q17 -17 26.5 -40.5t9.5 -60.5v-456zM251 587q0 42 -21 62.5t-50 20.5
t-49.5 -20.5t-20.5 -62.5v-462q0 -42 20.5 -62.5t49.5 -20.5t50 20.5t21 62.5v462z" />
    <glyph glyph-name="one" unicode="1" horiz-adv-x="361" 
d="M165 0v646l-102 -88v67l102 87h56v-712h-56z" />
    <glyph glyph-name="two" unicode="2" horiz-adv-x="361" 
d="M51 0v47l170 390q13 29 23.5 66.5t10.5 83.5q0 42 -20.5 62.5t-49.5 20.5t-50 -20.5t-21 -62.5v-51h-56v50q0 35 9.5 58.5t26.5 40.5q16 16 40.5 25.5t50.5 9.5t49.5 -9t39.5 -25q17 -17 27 -41t10 -61q0 -41 -12.5 -84.5t-28.5 -80.5l-159 -369h200v-50h-260z" />
    <glyph glyph-name="three" unicode="3" horiz-adv-x="361" 
d="M307 196q0 -37 -2 -63.5t-6.5 -45.5t-12 -33t-19.5 -27q-16 -16 -40.5 -25.5t-50.5 -9.5t-50 9t-40 25q-17 17 -27 40t-10 61v49h56v-50q0 -42 21 -63t50 -21q32 0 49 21q7 8 12 17.5t8 24.5t4.5 37t1.5 54q0 37 -1 61t-4 39t-8 23.5t-12 16.5q-20 21 -50 21h-41v49h41
q31 0 45 17q14 14 19 38.5t5 76.5q0 26 -1.5 44.5t-4 31.5t-6.5 21.5t-10 15.5q-16 19 -47 19q-29 0 -47.5 -20.5t-18.5 -62.5v-51h-56v49q0 37 9 61t26 40q34 34 87 34q55 0 88 -33q10 -10 17 -22t11.5 -29.5t6.5 -40.5t2 -55q0 -52 -4.5 -77t-15.5 -44q-13 -24 -40 -38
q26 -14 40 -34q7 -11 12 -22t8 -27.5t4.5 -40.5t1.5 -61z" />
    <glyph glyph-name="four" unicode="4" horiz-adv-x="361" 
d="M278 124v-124h-56v124h-188v50l180 538h55l-179 -538h132v199h56v-199h50v-50h-50z" />
    <glyph glyph-name="five" unicode="5" horiz-adv-x="361" 
d="M311 224q0 -42 -1.5 -72t-6 -52t-12.5 -38t-20 -30q-16 -19 -40.5 -29.5t-50.5 -10.5t-50 8.5t-40 24.5q-17 17 -27.5 40.5t-10.5 61.5v47h56v-45q0 -45 21 -66t52 -21t49 25q7 9 11.5 20t7.5 28.5t4.5 43.5t1.5 65q0 38 -1.5 64t-4.5 44t-8 29.5t-11 20.5q-9 14 -22 20
t-28 6q-30 0 -51 -22.5t-21 -60.5v-33h-52v420h245v-50h-194v-252q11 19 33 33q24 14 54 14q26 0 46.5 -10.5t34.5 -28.5q10 -12 17 -27t11.5 -37t6 -53.5t1.5 -76.5z" />
    <glyph glyph-name="six" unicode="6" horiz-adv-x="361" 
d="M310 210q0 -40 -1.5 -68t-5.5 -48t-11 -35t-18 -28q-15 -18 -40.5 -28.5t-53.5 -10.5q-29 0 -53.5 10t-39.5 29q-11 13 -18.5 28t-11.5 35t-5.5 48t-1.5 68q0 60 7 105t22 86l115 311h56l-114 -306q26 21 58 21q50 0 81 -36q10 -11 16.5 -23t10.5 -31.5t6 -50t2 -76.5z
M254 211q0 64 -4.5 97t-19.5 50q-10 11 -23 16t-27 5t-27 -5t-23 -16q-15 -17 -19.5 -50t-4.5 -97q0 -65 5 -98t19 -50q10 -11 23 -16t27 -5t27 5t23 16q14 17 19 50t5 98z" />
    <glyph glyph-name="seven" unicode="7" horiz-adv-x="361" 
d="M124 0h-59l191 662h-154v-116h-55v166h267v-45z" />
    <glyph glyph-name="eight" unicode="8" horiz-adv-x="361" 
d="M310 196q0 -37 -1.5 -63t-6 -45.5t-12 -33.5t-19.5 -27q-16 -16 -40.5 -25.5t-50.5 -9.5t-50 9.5t-40 25.5q-12 13 -20 27t-12.5 33.5t-6 45.5t-1.5 63t1.5 61t4.5 40t8 26.5t12 21.5q13 21 40 35q-13 7 -23 17t-17 21q-5 9 -9 19.5t-6.5 24t-4 32.5t-1.5 45q0 63 8.5 95
t29.5 53q35 33 87 33q54 0 87 -33q21 -21 29.5 -53t8.5 -95q0 -26 -1 -45t-3.5 -32.5t-6.5 -24t-9 -19.5q-14 -23 -40 -38q27 -14 40 -35q7 -11 12 -21.5t8 -26.5t4 -40t1 -61zM254 197q0 36 -1 58.5t-4 37.5t-8 24.5t-12 17.5q-18 21 -49 21t-49 -21q-7 -8 -12 -17.5
t-8 -24.5t-4 -37.5t-1 -58.5q0 -32 1 -53.5t4 -36.5t8 -25.5t12 -18.5q18 -21 49 -21t49 21q7 8 12 18.5t8 25.5t4 36.5t1 53.5zM249 537q0 27 -1 46t-4 32t-7.5 21.5t-10.5 15.5q-18 18 -46 18q-27 0 -45 -18q-6 -7 -10.5 -15.5t-7.5 -21.5t-4.5 -32t-1.5 -46q0 -54 6 -78
t19 -37q16 -17 44 -17q29 0 45 17q13 13 18.5 37t5.5 78z" />
    <glyph glyph-name="nine" unicode="9" horiz-adv-x="361" 
d="M310 502q0 -60 -7 -105t-22 -86l-114 -311h-57l115 306q-26 -21 -58 -21q-50 0 -81 36q-10 11 -16.5 23.5t-11 32t-6.5 49.5t-2 76q0 40 1.5 68.5t6 48.5t11.5 34.5t18 27.5q16 19 40.5 29t53.5 10t53 -10t40 -29q11 -14 18 -28.5t11 -35t5.5 -48t1.5 -67.5zM254 501
q0 65 -4.5 98t-19.5 50q-20 21 -50 21q-31 0 -50 -21q-15 -17 -19.5 -50t-4.5 -98t4.5 -97.5t19.5 -49.5q19 -21 50 -21q30 0 50 21q15 17 19.5 49.5t4.5 97.5z" />
    <glyph glyph-name="colon" unicode=":" horiz-adv-x="227" 
d="M90 339v76h75v-76h-75zM90 0v75h75v-75h-75z" />
    <glyph glyph-name="semicolon" unicode=";" horiz-adv-x="227" 
d="M93 -99v176h69v-125zM90 339v76h75v-76h-75z" />
    <glyph glyph-name="less" unicode="&#x3c;" horiz-adv-x="361" 
d="M34 259v49l293 170v-63l-229 -131l229 -131v-63z" />
    <glyph glyph-name="equal" unicode="=" horiz-adv-x="431" 
d="M49 314v53h334v-53h-334zM49 171v53h334v-53h-334z" />
    <glyph glyph-name="greater" unicode="&#x3e;" horiz-adv-x="361" 
d="M34 90v63l229 131l-229 131v63l293 -170v-49z" />
    <glyph glyph-name="question" unicode="?" horiz-adv-x="375" 
d="M332 547q0 -35 -5.5 -60.5t-23.5 -54.5l-58 -93q-22 -34 -22 -74v-78h-56v85q0 23 7 43.5t18 38.5l58 93q17 26 21.5 48.5t4.5 52.5q0 41 -7 62.5t-21 35.5q-20 22 -55 22q-18 0 -31 -5.5t-23 -15.5q-17 -17 -21.5 -40t-4.5 -46h-56q0 38 8 68t31 52q17 17 42 27t55 10
q62 0 98 -37q20 -21 30.5 -50t10.5 -84zM158 0v75h75v-75h-75z" />
    <glyph glyph-name="at" unicode="@" horiz-adv-x="712" 
d="M427 333q1 7 1 12.5v8.5q0 42 -14 58.5t-31 16.5q-14 0 -27 -7t-26 -27q-14 -21 -26.5 -60t-20.5 -80q-5 -24 -9 -50.5t-4 -49.5q0 -42 13.5 -58.5t31.5 -16.5q15 0 28.5 9.5t24.5 26.5q14 21 25 51t22 88q4 21 7 41.5t5 36.5zM653 367q0 -62 -15.5 -121.5t-46 -106
t-74.5 -75t-101 -28.5h-40l10 50q-17 -25 -38 -40.5t-46 -15.5q-47 0 -67.5 34t-20.5 87q0 20 3.5 49t8.5 55q13 65 30 111t37 69q21 25 42.5 34.5t41.5 9.5q30 0 49 -17.5t24 -39.5l11 52h54l-79 -394q35 1 65.5 24t53.5 62t36.5 90.5t13.5 109.5q0 62 -14 113t-40 87
t-62 56t-81 20q-63 0 -116 -38.5t-91.5 -101t-60.5 -142.5t-22 -163q0 -75 17 -137.5t48 -107.5t75.5 -70t100.5 -25h37l-8 -41h-36q-65 0 -117 28t-89 79t-57 121.5t-20 155.5q0 95 26 183t72 155.5t108 107.5t134 40q55 0 100.5 -23t77 -65t49 -100.5t17.5 -130.5z" />
    <glyph glyph-name="A" unicode="A" horiz-adv-x="379" 
d="M311 0l-39 195h-166l-38 -195h-64l159 712h55l156 -712h-63zM189 606l-71 -358h143z" />
    <glyph glyph-name="B" unicode="B" horiz-adv-x="416" 
d="M363 196q0 -33 -2.5 -57t-8 -42t-13.5 -31t-20 -25q-21 -22 -49.5 -31.5t-73.5 -9.5h-127v712h128q44 0 71.5 -9t48.5 -32q22 -24 31 -55t9 -87q0 -38 -8 -70.5t-35 -60.5q-22 -22 -45 -28q30 -8 50 -28q29 -29 36.5 -66t7.5 -80zM304 198q0 78 -27.5 111.5t-78.5 33.5
h-70v-290h70q25 0 45 6.5t33.5 23t20.5 44.5t7 71zM298 527q0 39 -6.5 64.5t-19 40.5t-31.5 21t-43 6h-70v-264h70q48 0 74 30t26 102z" />
    <glyph glyph-name="C" unicode="C" horiz-adv-x="399" 
d="M358 163q-1 -42 -13 -78t-37 -59q-37 -34 -98 -34q-35 0 -61.5 11t-44.5 31q-16 17 -26 38t-15 55.5t-7 89t-2 139.5t2 139.5t7 89t15 55.5t26 38q18 20 44.5 31t61.5 11t59.5 -10t42.5 -28q23 -23 34 -57.5t12 -75.5h-59q0 27 -6 52t-22 42q-11 11 -25.5 17.5t-35.5 6.5
q-40 0 -63 -26q-11 -13 -17.5 -29.5t-10.5 -47.5t-5 -80.5t-1 -127.5t1 -127.5t5 -80.5t10.5 -47.5t17.5 -29.5q23 -26 63 -26q21 0 36 6.5t25 17.5q16 17 22 42.5t6 51.5h59z" />
    <glyph glyph-name="D" unicode="D" horiz-adv-x="424" 
d="M371 356q0 -83 -2 -136.5t-7 -87.5t-15 -54t-26 -37q-18 -19 -44.5 -30t-61.5 -11h-146v712h146q35 0 61.5 -11t44.5 -30q16 -17 26 -37t15 -54t7 -87.5t2 -136.5zM312 356q0 76 -1 124.5t-5 78.5t-10.5 46.5t-18.5 28.5q-22 25 -65 25h-84v-606h84q43 0 65 25
q12 12 18.5 28.5t10.5 46.5t5 78.5t1 124.5z" />
    <glyph glyph-name="E" unicode="E" horiz-adv-x="364" 
d="M69 0v712h248v-53h-189v-276h163v-53h-163v-277h189v-53h-248z" />
    <glyph glyph-name="F" unicode="F" horiz-adv-x="359" 
d="M128 659v-276h163v-53h-163v-330h-59v712h248v-53h-189z" />
    <glyph glyph-name="G" unicode="G" horiz-adv-x="412" 
d="M358 152q0 -40 -12 -70t-32.5 -50t-47 -30t-56.5 -10q-35 0 -61.5 11t-44.5 31q-16 17 -26 38t-15 55.5t-7 89t-2 139.5t2 139.5t7 89t15 55.5t26 38q18 20 44.5 31t61.5 11t60.5 -10.5t43.5 -28.5q23 -24 33 -57.5t11 -74.5h-59q0 21 -4 42.5t-13.5 38t-27 27
t-44.5 10.5q-40 0 -63 -26q-11 -13 -17.5 -29.5t-10.5 -47.5t-5 -80.5t-1 -127.5t1 -127.5t5 -80.5t10.5 -47.5t17.5 -29.5q23 -26 63 -26q39 0 64 28t25 79v175h-89v50h148v-225z" />
    <glyph glyph-name="H" unicode="H" horiz-adv-x="432" 
d="M304 0v336h-176v-336h-59v712h59v-323h176v323h59v-712h-59z" />
    <glyph glyph-name="I" unicode="I" horiz-adv-x="197" 
d="M69 0v712h59v-712h-59z" />
    <glyph glyph-name="J" unicode="J" horiz-adv-x="332" 
d="M271 153q0 -78 -42 -120q-21 -21 -48.5 -31t-59.5 -10q-71 0 -113 50l43 39q12 -17 30 -26.5t40 -9.5q38 0 64.5 27t26.5 81v559h59v-559z" />
    <glyph glyph-name="K" unicode="K" horiz-adv-x="409" 
d="M335 0l-138 352l-69 -136v-216h-59v712h59v-387l189 387h63l-146 -294l165 -418h-64z" />
    <glyph glyph-name="L" unicode="L" horiz-adv-x="339" 
d="M69 0v712h59v-659h189v-53h-248z" />
    <glyph glyph-name="M" unicode="M" horiz-adv-x="557" 
d="M429 0v573l-130 -376h-43l-128 364v-561h-59v712h59l150 -419l151 419h59v-712h-59z" />
    <glyph glyph-name="N" unicode="N" horiz-adv-x="454" 
d="M327 0l-199 555v-555h-59v712h59l198 -555v555h59v-712h-58z" />
    <glyph glyph-name="O" unicode="O" horiz-adv-x="421" 
d="M367 356q0 -85 -2 -139.5t-7 -89t-15 -55.5t-26 -38q-18 -20 -45 -31t-62 -11t-61.5 11t-44.5 31q-16 17 -26 38t-15 55.5t-7 89t-2 139.5t2 139.5t7 89t15 55.5t26 38q18 20 44.5 31t61.5 11t62 -11t45 -31q16 -17 26 -38t15 -55.5t7 -89t2 -139.5zM308 356
q0 78 -1 127.5t-5 80.5t-10.5 47.5t-17.5 29.5q-23 26 -64 26q-40 0 -63 -26q-11 -13 -17.5 -29.5t-10.5 -47.5t-5 -80.5t-1 -127.5t1 -127.5t5 -80.5t10.5 -47.5t17.5 -29.5q23 -26 63 -26q21 0 37 7t27 19q11 13 17.5 29.5t10.5 47.5t5 80.5t1 127.5z" />
    <glyph glyph-name="P" unicode="P" horiz-adv-x="410" 
d="M363 513q0 -63 -12.5 -101.5t-33.5 -60t-49 -29t-59 -7.5h-81v-315h-59v712h140q31 0 59 -7.5t49 -29.5t33.5 -60.5t12.5 -101.5zM304 513q0 45 -7 73.5t-20 44.5t-31 22t-40 6h-78v-291h78q22 0 40 6t31 21.5t20 44t7 73.5z" />
    <glyph glyph-name="Q" unicode="Q" horiz-adv-x="421" 
d="M360 -25l-56 46q-18 -14 -41.5 -21.5t-52.5 -7.5q-35 0 -61.5 11t-44.5 31q-16 17 -26 38t-15 55.5t-7 89t-2 139.5t2 139.5t7 89t15 55.5t26 38q18 20 44.5 31t61.5 11t62 -11t45 -31q16 -17 26 -38t15 -55.5t7 -89t2 -139.5q0 -74 -1 -124t-4.5 -83.5t-10 -54.5
t-16.5 -37l55 -47zM308 356q0 79 -1 128.5t-4.5 80t-10.5 47.5t-18 30q-22 25 -64 25q-41 0 -63 -25q-11 -13 -18 -30t-10.5 -47.5t-4.5 -80t-1 -128.5t1 -128.5t4.5 -80t10.5 -47.5t18 -30q22 -25 63 -25q31 0 50 13l-56 48l30 35l54 -45q7 13 11 31.5t6 47.5t2.5 73
t0.5 108z" />
    <glyph glyph-name="R" unicode="R" horiz-adv-x="432" 
d="M323 0l-103 319h-92v-319h-59v712h140q32 0 60 -7.5t49 -29t33 -60t12 -100.5q0 -83 -22 -125.5t-66 -59.5l111 -330h-63zM304 515q0 69 -19.5 106.5t-73.5 37.5h-83v-287h83q54 0 73.5 37t19.5 106z" />
    <glyph glyph-name="S" unicode="S" horiz-adv-x="396" 
d="M350 186q0 -57 -10 -93.5t-34 -60.5q-18 -18 -45.5 -28t-65.5 -10q-74 0 -112 38q-12 12 -20 25.5t-13 30.5t-7 39t-2 51h59q0 -42 5.5 -66t22.5 -41q24 -24 67 -24q25 0 41 6.5t27 17.5q17 19 22.5 45t5.5 68q0 33 -3 56.5t-11.5 40.5t-23 28.5t-37.5 20.5l-76 31
q-27 11 -45.5 25.5t-29 35t-15 49t-4.5 68.5q0 46 12 82t37 59q40 38 104 38q68 0 107 -39q26 -26 34.5 -58.5t8.5 -79.5h-59q0 34 -5.5 57t-21.5 41q-11 12 -26.5 19t-38.5 7q-21 0 -36 -6t-26 -17q-17 -17 -24 -43t-7 -59q0 -31 3 -51.5t11 -35.5t23.5 -25.5t39.5 -20.5
l76 -31q29 -12 47 -28.5t28 -39.5t13.5 -53t3.5 -69z" />
    <glyph glyph-name="T" unicode="T" horiz-adv-x="341" 
d="M200 659v-659h-59v659h-119v53h297v-53h-119z" />
    <glyph glyph-name="U" unicode="U" horiz-adv-x="417" 
d="M356 148q0 -38 -11 -66.5t-31 -48.5q-43 -41 -105 -41t-105 41q-20 20 -31.5 48.5t-11.5 66.5v564h59v-569q0 -46 26 -72t63 -26t62.5 26t25.5 72v569h59v-564z" />
    <glyph glyph-name="V" unicode="V" horiz-adv-x="370" 
d="M214 0h-58l-152 712h65l116 -606l116 606h65z" />
    <glyph glyph-name="W" unicode="W" horiz-adv-x="587" 
d="M475 0h-62l-119 607l-118 -607h-62l-110 712h65l76 -606l115 606h67l117 -606l75 606h64z" />
    <glyph glyph-name="X" unicode="X" horiz-adv-x="372" 
d="M289 0l-103 308l-102 -308h-65l132 371l-121 341h65l91 -282l92 282h64l-124 -341l135 -371h-64z" />
    <glyph glyph-name="Y" unicode="Y" horiz-adv-x="315" 
d="M187 298v-298h-59v298l-125 414h65l89 -326l90 326h65z" />
    <glyph glyph-name="Z" unicode="Z" horiz-adv-x="324" 
d="M30 0v46l203 613h-189v53h250v-46l-202 -613h202v-53h-264z" />
    <glyph glyph-name="bracketleft" unicode="[" horiz-adv-x="236" 
d="M62 -74v860h144v-48h-88v-764h88v-48h-144z" />
    <glyph glyph-name="backslash" unicode="\" horiz-adv-x="246" 
d="M187 -74l-185 860h57l185 -860h-57z" />
    <glyph glyph-name="bracketright" unicode="]" horiz-adv-x="236" 
d="M30 -74v48h88v764h-88v48h144v-860h-144z" />
    <glyph glyph-name="asciicircum" unicode="^" horiz-adv-x="448" 
d="M321 439l-97 221l-97 -221h-58l129 279h52l128 -279h-57z" />
    <glyph glyph-name="underscore" unicode="_" horiz-adv-x="431" 
d="M0 -134v44h431v-44h-431z" />
    <glyph glyph-name="grave" unicode="`" horiz-adv-x="354" 
d="M156 586l-75 130h58l66 -130h-49z" />
    <glyph glyph-name="a" unicode="a" horiz-adv-x="352" 
d="M240 0v46q-5 -11 -13 -20t-15 -14q-12 -9 -26 -14.5t-35 -5.5q-48 0 -81 34q-14 15 -23.5 44t-9.5 71q0 36 10.5 65.5t32.5 49.5q19 17 42 25.5t58 8.5h58v91q0 42 -17.5 64.5t-52.5 22.5q-15 0 -26.5 -5.5t-19.5 -13.5q-12 -13 -17.5 -29t-5.5 -42h-56q0 29 7.5 56
t29.5 49q16 16 38 25t50 9q61 0 91 -32q17 -18 26 -43t9 -63v-379h-54zM238 246h-56q-20 0 -34.5 -5t-27.5 -17q-13 -13 -20 -34.5t-7 -47.5q0 -46 17 -73t54 -27q34 0 54 26t20 66v112z" />
    <glyph glyph-name="b" unicode="b" horiz-adv-x="365" 
d="M321 254q0 -48 -1.5 -84.5t-5.5 -63.5t-11.5 -46t-19.5 -32q-32 -36 -80 -36q-34 0 -57 17q-8 5 -16 14t-13 17v-40h-55v712h56v-242q5 8 12.5 16.5t15.5 13.5q23 17 57 17q48 0 80 -36q12 -14 19.5 -33t11.5 -46t5.5 -63.5t1.5 -84.5zM265 254q0 43 -1 74t-3.5 53.5
t-7.5 37.5t-14 25q-8 10 -20.5 16.5t-28.5 6.5q-29 0 -48 -19q-24 -23 -24 -70v-247q0 -48 24 -70q19 -19 48 -19q16 0 28.5 6t20.5 16q9 10 14 25t7.5 37.5t3.5 53.5t1 74z" />
    <glyph glyph-name="c" unicode="c" horiz-adv-x="340" 
d="M303 134q-1 -36 -8.5 -62.5t-27.5 -46.5q-33 -33 -90 -33q-60 0 -94 40q-23 27 -30.5 79.5t-7.5 142.5t7.5 142.5t30.5 79.5q33 41 94 41q29 0 51 -7.5t39 -24.5q23 -22 29 -50.5t7 -60.5h-55q0 20 -3 38.5t-17 33.5q-18 21 -50 21q-34 0 -52 -23q-17 -21 -21 -64.5
t-4 -125.5t4 -125t21 -64q18 -23 52 -23q29 0 49 20q13 14 17 31.5t4 40.5h55z" />
    <glyph glyph-name="d" unicode="d" horiz-adv-x="365" 
d="M248 0v41q-4 -8 -12.5 -17t-15.5 -14q-26 -18 -58 -18q-48 0 -79 36q-23 26 -30.5 78.5t-7.5 147.5q0 48 1.5 84t6 63t11.5 46.5t19 33.5q14 17 33 26.5t46 9.5q36 0 58 -16q7 -5 14.5 -13.5t12.5 -16.5v241h56v-712h-55zM247 378q0 47 -23 70q-21 19 -49 19
q-15 0 -27.5 -6.5t-20.5 -16.5q-9 -10 -14 -24.5t-7.5 -37t-3.5 -54t-1 -74.5t1 -74.5t3.5 -53.5t7.5 -37t14 -25q8 -10 20.5 -16t27.5 -6q28 0 49 19q23 23 23 70v247z" />
    <glyph glyph-name="e" unicode="e" horiz-adv-x="349" 
d="M101 246q0 -78 4.5 -119.5t21.5 -61.5q8 -10 21 -16.5t30 -6.5q15 0 28.5 4.5t23.5 15.5q22 23 22 72h55q0 -37 -8.5 -62t-28.5 -45q-34 -35 -92 -35q-57 0 -92 37q-25 27 -33 80.5t-8 144.5q0 92 7.5 145t33.5 81q34 37 91 37t91 -37q25 -28 33 -82.5t8 -151.5h-208z
M253 291q-1 66 -6 101t-20 52q-8 10 -20.5 16.5t-29.5 6.5t-30 -6.5t-21 -16.5q-15 -17 -19.5 -52t-5.5 -101h152z" />
    <glyph glyph-name="f" unicode="f" horiz-adv-x="237" 
d="M134 465v-465h-56v465h-62v44h62v69q0 68 38 103q22 20 49 26.5t56 6.5v-51q-87 0 -87 -85v-69h87v-44h-87z" />
    <glyph glyph-name="g" unicode="g" horiz-adv-x="365" 
d="M303 -15q0 -32 -2 -55.5t-6.5 -41t-11.5 -31t-18 -25.5q-16 -17 -39.5 -27t-51.5 -10q-27 0 -51 8.5t-41 25.5q-20 20 -27.5 46t-7.5 61h55q0 -23 4 -41t18 -32q18 -19 49 -19q17 0 29.5 6t20.5 16q14 15 19 42.5t5 75.5v65q-5 -8 -12 -16t-15 -13q-12 -8 -25.5 -12.5
t-31.5 -4.5q-48 0 -79 35q-12 13 -19.5 31.5t-12 44.5t-6 62t-1.5 84t1.5 84t6 62t12 44t19.5 31q31 36 79 36q18 0 32 -4.5t26 -12.5q17 -12 27 -30v39h55v-524zM247 378q0 47 -23 70q-21 19 -49 19q-15 0 -27.5 -6.5t-20.5 -16.5q-9 -10 -14 -24.5t-7.5 -36t-3.5 -52
t-1 -72.5t1 -72.5t3.5 -52.5t7.5 -36t14 -24q8 -10 20.5 -16t27.5 -6q32 0 49 18q11 13 17 29t6 42v237z" />
    <glyph glyph-name="h" unicode="h" 
d="M259 0v383q0 40 -19.5 61.5t-50.5 21.5t-51 -21.5t-20 -61.5v-383h-56v712h56v-243q4 8 12.5 16.5t15.5 13.5q26 18 58 18q26 0 45 -9t35 -26q15 -16 23 -39t8 -61v-382h-56z" />
    <glyph glyph-name="i" unicode="i" horiz-adv-x="181" 
d="M62 0v509h56v-509h-56zM54 626v72h72v-72h-72z" />
    <glyph glyph-name="j" unicode="j" horiz-adv-x="181" 
d="M118 -68q0 -38 -10 -62t-28 -41q-21 -20 -46.5 -26t-54.5 -6v50q38 0 60.5 19t22.5 67v576h56v-577zM54 626v72h72v-72h-72z" />
    <glyph glyph-name="k" unicode="k" 
d="M295 0l-110 265l-67 -106v-159h-56v712h56v-470l161 267h61l-120 -195l137 -314h-62z" />
    <glyph glyph-name="l" unicode="l" horiz-adv-x="212" 
d="M196 0q-29 0 -54.5 6t-46.5 26q-18 17 -28 41.5t-10 62.5v576h56v-576q0 -42 20.5 -64t62.5 -22v-50z" />
    <glyph glyph-name="m" unicode="m" horiz-adv-x="570" 
d="M456 0v383q0 42 -20.5 62.5t-49.5 20.5t-50 -20.5t-21 -62.5v-383h-56v383q0 42 -20.5 62.5t-49.5 20.5t-50 -20.5t-21 -62.5v-383h-56v509h55v-41q5 8 13.5 17t15.5 14q26 18 58 18q29 0 54.5 -15.5t40.5 -38.5q7 10 16 20t19 16q13 8 28.5 13t32.5 5q32 0 51 -9t35 -26
q15 -16 23 -39t8 -61v-382h-56z" />
    <glyph glyph-name="n" unicode="n" 
d="M259 0v383q0 42 -20.5 62.5t-49.5 20.5t-50 -20.5t-21 -62.5v-383h-56v509h55v-41q5 8 13.5 17t15.5 14q26 18 58 18q26 0 45 -9t35 -26q15 -16 23 -39t8 -61v-382h-56z" />
    <glyph glyph-name="o" unicode="o" horiz-adv-x="353" 
d="M309 254q0 -90 -7.5 -142t-30.5 -80q-33 -40 -94 -40t-94 40q-23 28 -30.5 80t-7.5 142t7.5 142t30.5 80q33 41 94 41t94 -41q23 -28 30.5 -80t7.5 -142zM253 254q0 82 -4.5 125.5t-21.5 64.5q-8 10 -20.5 16.5t-29.5 6.5t-30 -6.5t-21 -16.5q-17 -21 -21 -64.5
t-4 -125.5t4 -125t21 -64q8 -10 21 -16.5t30 -6.5t29.5 6.5t20.5 16.5q17 21 21.5 64t4.5 125z" />
    <glyph glyph-name="p" unicode="p" horiz-adv-x="366" 
d="M321 254q0 -95 -7.5 -147t-30.5 -79q-16 -18 -34.5 -27t-44.5 -9q-35 0 -58 16q-7 5 -15 13.5t-13 16.5v-241h-56v712h55v-41q4 8 13 17t16 14q12 8 26 13t32 5q47 0 79 -36q23 -27 30.5 -79.5t7.5 -147.5zM265 254q0 43 -1 74.5t-3.5 54t-7.5 37t-14 24.5
q-8 10 -20.5 16.5t-28.5 6.5q-29 0 -48 -19q-24 -23 -24 -70v-247q0 -48 24 -70q19 -19 48 -19q16 0 28.5 6t20.5 16q9 10 14 25t7.5 37t3.5 53.5t1 74.5z" />
    <glyph glyph-name="q" unicode="q" horiz-adv-x="365" 
d="M247 -203v241q-5 -8 -12.5 -16.5t-14.5 -13.5q-25 -16 -58 -16q-27 0 -46 10t-33 26q-12 13 -19.5 32.5t-11.5 46.5t-5.5 63.5t-1.5 83.5q0 94 7 147t31 80q31 36 79 36q32 0 58 -18q7 -5 15.5 -14t12.5 -17v41h55v-712h-56zM247 378q0 47 -23 70q-21 19 -49 19
q-15 0 -27.5 -6.5t-20.5 -16.5q-9 -10 -14 -24.5t-7.5 -37t-3.5 -54t-1 -74.5q0 -86 4.5 -128.5t21.5 -61.5q8 -10 20.5 -16t27.5 -6q28 0 49 19q23 23 23 70v247z" />
    <glyph glyph-name="r" unicode="r" horiz-adv-x="245" 
d="M217 464q-45 0 -72 -26.5t-27 -72.5v-365h-56v509h55v-54q4 8 11.5 17.5t13.5 14.5q17 16 39 23t48 7v-53h-12z" />
    <glyph glyph-name="s" unicode="s" horiz-adv-x="336" 
d="M303 130q0 -30 -11 -55.5t-29 -43.5q-39 -39 -97 -39q-57 0 -93 36q-22 23 -31 50.5t-9 59.5h56q0 -24 6 -42.5t20 -32.5q21 -21 51 -21q35 0 58 23t23 63q0 33 -14 55q-16 25 -51 44l-64 35q-24 14 -41 30t-25 30q-14 27 -14 64q0 29 11 53.5t29 42.5q35 35 91 35
q57 0 91 -34q37 -37 37 -110h-56q0 29 -5 45t-17 29q-11 11 -23.5 15.5t-26.5 4.5q-34 0 -53 -19q-12 -11 -17 -27.5t-5 -32.5q0 -27 10 -44q5 -10 17.5 -19t29.5 -19l63 -36q49 -27 69 -60q11 -17 15.5 -37.5t4.5 -42.5z" />
    <glyph glyph-name="t" unicode="t" horiz-adv-x="245" 
d="M225 0q-31 0 -58.5 5.5t-50.5 26.5q-38 35 -38 104v329h-62v44h62v149h56v-149h87v-44h-87v-329q0 -46 23 -66t68 -20v-50z" />
    <glyph glyph-name="u" unicode="u" 
d="M256 0v41q-5 -8 -13.5 -17t-15.5 -14q-26 -18 -58 -18q-26 0 -45 8.5t-35 25.5q-15 16 -23 39.5t-8 61.5v382h56v-383q0 -42 20.5 -62.5t49.5 -20.5t50 20.5t21 62.5v383h56v-509h-55z" />
    <glyph glyph-name="v" unicode="v" horiz-adv-x="305" 
d="M182 0h-59l-119 509h62l87 -421l87 421h61z" />
    <glyph glyph-name="w" unicode="w" horiz-adv-x="474" 
d="M371 0h-60l-77 416l-73 -416h-60l-97 509h65l63 -421l74 421h56l78 -421l65 421h65z" />
    <glyph glyph-name="x" unicode="x" horiz-adv-x="321" 
d="M242 0l-81 210l-82 -210h-62l112 259l-106 250h62l76 -202l75 202h62l-108 -250l114 -259h-62z" />
    <glyph glyph-name="y" unicode="y" horiz-adv-x="308" 
d="M157 -99q-14 -59 -52 -81.5t-96 -22.5v50q42 0 63.5 16.5t29.5 48.5l23 90l-121 507h62l87 -420l87 420h61z" />
    <glyph glyph-name="z" unicode="z" horiz-adv-x="276" 
d="M22 0v44l172 415h-162v50h223v-44l-172 -415h172v-50h-233z" />
    <glyph glyph-name="braceleft" unicode="{" horiz-adv-x="287" 
d="M234 -74q-25 0 -47.5 9t-37.5 24q-16 16 -25 39t-9 58v194q0 40 -19.5 60.5t-48.5 20.5h-17v50h17q29 0 48.5 20.5t19.5 60.5v194q0 35 9 58t25 39q15 15 37.5 24t47.5 9h24v-50h-18q-29 0 -49 -20.5t-20 -60.5v-191q0 -34 -8 -55.5t-22 -35.5q-10 -10 -27 -17
q8 -2 15 -7t12 -10q14 -14 22 -35.5t8 -55.5v-191q0 -40 20 -60.5t49 -20.5h18v-50h-24z" />
    <glyph glyph-name="bar" unicode="|" horiz-adv-x="251" 
d="M97 -74v860h56v-860h-56z" />
    <glyph glyph-name="braceright" unicode="}" horiz-adv-x="287" 
d="M240 331q-29 0 -48.5 -20.5t-19.5 -60.5v-194q0 -35 -9 -58t-25 -39q-15 -15 -37.5 -24t-47.5 -9h-23v50h17q29 0 49 20.5t20 60.5v191q0 34 8.5 55.5t22.5 35.5q11 11 26 17q-15 5 -26 17q-14 14 -22.5 35.5t-8.5 55.5v191q0 40 -20 60.5t-49 20.5h-17v50h23
q25 0 47.5 -9t37.5 -24q16 -16 25 -39t9 -58v-194q0 -40 19.5 -60.5t48.5 -20.5h18v-50h-18z" />
    <glyph glyph-name="asciitilde" unicode="~" horiz-adv-x="431" 
d="M385 283q-32 -32 -53 -42.5t-46 -10.5q-18 0 -35 5.5t-46 18.5q-24 11 -36 15t-24 4q-17 0 -29.5 -6.5t-34.5 -28.5l-34 34q16 16 28.5 26.5t24 16.5t22 8.5t23.5 2.5q21 0 40.5 -8t40.5 -17q16 -8 30 -13t30 -5q17 0 30 6t35 28z" />
    <glyph glyph-name="uni00A0" unicode="&#xa0;" horiz-adv-x="194" 
 />
    <glyph glyph-name="exclamdown" unicode="&#xa1;" horiz-adv-x="227" 
d="M71 -203v525h56v-525h-56zM62 434v75h75v-75h-75z" />
    <glyph glyph-name="cent" unicode="&#xa2;" horiz-adv-x="342" 
d="M304 242q-1 -35 -8.5 -60t-26.5 -44q-26 -25 -68 -31v-107h-45v108q-44 6 -72 37q-23 26 -30.5 76t-7.5 136t7.5 136t30.5 76q28 31 72 37v106h45v-105q41 -5 67 -29q23 -22 29 -49.5t7 -56.5h-55q0 18 -2.5 36t-16.5 32q-11 12 -29 17v-400q16 5 27 16q14 14 17.5 30.5
t3.5 38.5h55zM156 556q-17 -6 -28 -18q-17 -20 -21.5 -61.5t-4.5 -119.5t4.5 -119.5t21.5 -61.5q11 -12 28 -18v398z" />
    <glyph glyph-name="sterling" unicode="&#xa3;" horiz-adv-x="393" 
d="M99 0v351h-64v44h64v167q0 39 12.5 68.5t33 49.5t47.5 30t57 10q33 0 62.5 -12.5t50.5 -37.5l-42 -38q-25 35 -71 35q-38 0 -64.5 -27t-26.5 -75v-170h91v-44h-91v-298h204v-53h-263z" />
    <glyph glyph-name="currency" unicode="&#xa4;" horiz-adv-x="478" 
d="M397 78l-57 57q-21 -16 -46.5 -25t-54.5 -9t-54.5 9t-46.5 25l-56 -57l-36 35l57 57q-16 21 -25 46.5t-9 54.5t9 55t25 46l-57 56l36 35l56 -56q44 33 101 33t101 -33l57 56l35 -35l-57 -56q16 -20 25 -46t9 -55t-9 -54.5t-25 -46.5l57 -57zM358 271q0 25 -9.5 46.5
t-25.5 37.5t-37.5 25t-46.5 9t-46.5 -9t-37.5 -25t-25 -37.5t-9 -46.5t9 -46.5t25 -37.5t37.5 -25.5t46.5 -9.5t46.5 9.5t37.5 25.5t25.5 37.5t9.5 46.5z" />
    <glyph glyph-name="yen" unicode="&#xa5;" horiz-adv-x="315" 
d="M218 403h51v-44h-64l-19 -61v-40h83v-44h-83v-214h-58v214h-83v44h83v40l-17 61h-66v44h52l-92 309h63l89 -326l90 326h63z" />
    <glyph glyph-name="brokenbar" unicode="&#xa6;" horiz-adv-x="251" 
d="M97 437v348h56v-348h-56zM97 -73v348h56v-348h-56z" />
    <glyph glyph-name="section" unicode="&#xa7;" horiz-adv-x="389" 
d="M330 271q0 -34 -2 -58t-6.5 -42t-12 -31t-19.5 -24q-10 -9 -24 -16.5t-31 -10.5q21 -13 37.5 -25t29.5 -33q9 -15 14 -36t5 -41q0 -60 -36 -97t-94 -37q-27 0 -50 9.5t-40 26.5q-20 19 -28.5 45t-8.5 52h56q0 -37 23 -63q9 -11 22 -15.5t26 -4.5q33 0 53 21
q11 11 15.5 26.5t4.5 34.5q0 15 -3 30t-10 25q-9 14 -21.5 23.5t-27.5 17.5l-66 37q-10 5 -19.5 11.5t-17.5 14.5q-13 13 -21 27.5t-12 33.5t-5.5 43t-1.5 56q0 34 2 58t7 42t12.5 31t19.5 24q21 21 54 27q-22 12 -40 27t-29 34q-8 14 -12 31t-4 40q0 57 38 93q34 34 90 34
q52 0 86 -31q19 -18 28.5 -44.5t10.5 -55.5h-56q0 17 -5 32.5t-17 29.5q-10 10 -22.5 14.5t-24.5 4.5q-31 0 -49 -18q-12 -11 -17 -26t-5 -30q0 -34 11 -51q6 -11 18 -21.5t26 -18.5l66 -36q11 -6 23.5 -14t20.5 -16q13 -13 21 -27t12 -32t5 -42.5t1 -58.5zM274 271
q0 30 -1 50t-4 34.5t-8 24t-13 17.5q-21 22 -54 22q-31 0 -52 -21q-7 -7 -12 -16t-8.5 -23t-5 -35.5t-1.5 -52.5q0 -29 1.5 -49.5t4.5 -35t8 -24.5t13 -17q21 -21 52 -21q33 0 54 21q7 8 12 18t8 24.5t4.5 34.5t1.5 49z" />
    <glyph glyph-name="dieresis" unicode="&#xa8;" horiz-adv-x="354" 
d="M215 606v63h63v-63h-63zM77 606v63h64v-63h-64z" />
    <glyph glyph-name="copyright" unicode="&#xa9;" horiz-adv-x="862" 
d="M793 356q0 -75 -28.5 -141t-77.5 -115t-115 -77.5t-141 -28.5t-141 28.5t-115 77.5t-77.5 115t-28.5 141t28.5 141t77.5 115t115 77.5t141 28.5t141 -28.5t115 -77.5t77.5 -115t28.5 -141zM747 356q0 66 -25 124.5t-67.5 102t-100 69t-123.5 25.5t-123.5 -25.5
t-100.5 -69t-68 -102t-25 -124.5t25 -124.5t68 -102t100.5 -69t123.5 -25.5t123.5 25.5t100 69t67.5 102t25 124.5zM525 262q0 -58 -27 -85q-25 -26 -67 -26t-69 30q-18 21 -23.5 60.5t-5.5 114.5t5.5 114.5t23.5 60.5q27 30 69 30t67 -26q27 -28 27 -86h-42q0 19 -2.5 33
t-13.5 25q-8 8 -16 11.5t-20 3.5t-21.5 -5t-15.5 -12q-13 -16 -16 -51t-3 -98q0 -64 2.5 -99t16.5 -50q6 -7 15.5 -12t21.5 -5q21 0 36 15q11 11 13.5 24.5t2.5 32.5h42z" />
    <glyph glyph-name="ordfeminine" unicode="&#xaa;" horiz-adv-x="297" 
d="M201 320v33q-5 -9 -12 -15.5t-11 -9.5q-9 -6 -21.5 -10t-28.5 -4q-39 0 -67 28q-11 12 -19.5 33t-8.5 54q0 29 10.5 51t28.5 38q28 25 80 25h46v66q0 28 -13.5 47t-42.5 19q-13 0 -22.5 -4.5t-16.5 -11.5q-11 -12 -14 -26t-3 -30h-47q0 24 6 46t24 40q27 27 73 27t74 -28
q14 -14 22 -33.5t8 -48.5v-286h-45zM198 506h-45q-32 0 -48 -15q-11 -11 -17.5 -26t-6.5 -35q0 -29 12.5 -52t45.5 -23q26 0 42.5 22t16.5 54v75z" />
    <glyph glyph-name="guillemotleft" unicode="&#xab;" horiz-adv-x="371" 
d="M180 268l136 210v-96l-76 -114l76 -115v-95zM29 268l135 210v-96l-75 -114l75 -115v-95z" />
    <glyph glyph-name="logicalnot" unicode="&#xac;" horiz-adv-x="431" 
d="M328 151v104h-278v53h331v-157h-53z" />
    <glyph glyph-name="uni00AD" unicode="&#xad;" horiz-adv-x="301" 
d="M55 251zM55 251v53h191v-53h-191z" />
    <glyph glyph-name="registered" unicode="&#xae;" horiz-adv-x="862" 
d="M793 356q0 -75 -28.5 -141t-77.5 -115t-115 -77.5t-141 -28.5t-141 28.5t-115 77.5t-77.5 115t-28.5 141t28.5 141t77.5 115t115 77.5t141 28.5t141 -28.5t115 -77.5t77.5 -115t28.5 -141zM747 356q0 66 -25 124.5t-67.5 102t-100 69t-123.5 25.5t-123.5 -25.5
t-100.5 -69t-68 -102t-25 -124.5t25 -124.5t68 -102t100.5 -69t123.5 -25.5t123.5 25.5t100 69t67.5 102t25 124.5zM498 157l-54 174h-58v-174h-43v399h98q39 0 64 -23q16 -16 21 -37t5 -53q0 -36 -5 -55t-21 -34q-7 -7 -21 -14l59 -183h-45zM489 443q0 23 -2.5 36t-12.5 24
q-13 13 -32 13h-56v-146h56q19 0 32 13q10 11 12.5 24t2.5 36z" />
    <glyph glyph-name="macron" unicode="&#xaf;" horiz-adv-x="354" 
d="M71 611v45h212v-45h-212z" />
    <glyph glyph-name="degree" unicode="&#xb0;" horiz-adv-x="382" 
d="M327 585q0 -28 -10.5 -53t-29 -43.5t-43.5 -29t-53 -10.5t-52.5 10.5t-43 29t-29 43.5t-10.5 53t10.5 52.5t29 43t43 29t52.5 10.5t53 -10.5t43.5 -29t29 -43t10.5 -52.5zM277 585q0 38 -24.5 62.5t-61.5 24.5t-61.5 -24.5t-24.5 -62.5t24.5 -63t61.5 -25t61.5 25
t24.5 63z" />
    <glyph glyph-name="plusminus" unicode="&#xb1;" horiz-adv-x="431" 
d="M242 286v-141h-53v141h-140v53h140v141h53v-141h141v-53h-141zM49 36v53h334v-53h-334z" />
    <glyph glyph-name="twosuperior" unicode="&#xb2;" horiz-adv-x="277" 
d="M38 285v37l137 218q12 20 18 37t6 42q0 27 -16.5 43.5t-43.5 16.5q-31 0 -45 -18.5t-14 -50.5v-18h-43v17q0 29 6 48t21 33q29 27 75 27q25 0 41.5 -6t31.5 -18q30 -24 30 -74q0 -26 -7 -49t-23 -49l-124 -198h154v-38h-204z" />
    <glyph glyph-name="threesuperior" unicode="&#xb3;" horiz-adv-x="277" 
d="M245 399q0 -37 -6.5 -56.5t-23.5 -36.5q-12 -12 -32 -19t-43 -7q-49 0 -77 27q-12 13 -18.5 30.5t-6.5 54.5v13h43v-13q0 -26 4 -38.5t14 -20.5q15 -15 41 -15q27 0 42 15q9 9 14.5 23.5t5.5 43.5q0 31 -4.5 45t-12.5 23q-16 19 -45 19h-29v38h29q23 0 40 14
q14 13 16.5 30.5t2.5 37.5q0 19 -4 34t-15 24q-13 14 -40 14t-42 -15q-16 -16 -16 -54v-13h-43v12q0 32 6 50.5t19 30.5q14 13 32 20t44 7t44 -7.5t30 -18.5q15 -14 21.5 -35.5t6.5 -48.5q0 -26 -4 -42.5t-14 -29.5q-16 -20 -39 -29q27 -8 42 -31q9 -13 13.5 -30t4.5 -46z
" />
    <glyph glyph-name="acute" unicode="&#xb4;" horiz-adv-x="354" 
d="M198 586h-49l65 130h58z" />
    <glyph glyph-name="mu" unicode="&#xb5;" horiz-adv-x="378" 
d="M260 0v41q-5 -8 -13.5 -17t-15.5 -14q-12 -8 -26 -13t-32 -5q-19 0 -35 6.5t-21 14.5v-217h-55v713h56v-384q0 -42 20.5 -62.5t49.5 -20.5t50 20.5t21 62.5v384h56v-509h-55z" />
    <glyph glyph-name="paragraph" unicode="&#xb6;" horiz-adv-x="538" 
d="M419 -204v864h-120v-864h-56v511h-56q-33 0 -59 11t-44.5 35t-28 62.5t-9.5 93.5q0 109 37.5 156t103.5 47h288v-916h-56z" />
    <glyph glyph-name="periodcentered" unicode="&#xb7;" horiz-adv-x="259" 
d="M68 245v123h123v-123h-123z" />
    <glyph glyph-name="cedilla" unicode="&#xb8;" horiz-adv-x="354" 
d="M163 -171h-53l53 134h46z" />
    <glyph glyph-name="onesuperior" unicode="&#xb9;" horiz-adv-x="277" 
d="M131 285v379l-69 -47v47l69 48h43v-427h-43z" />
    <glyph glyph-name="ordmasculine" unicode="&#xba;" horiz-adv-x="296" 
d="M254 515q0 -69 -6 -109.5t-25 -60.5q-28 -31 -75 -31q-48 0 -76 31q-19 20 -24.5 60.5t-5.5 109.5t5.5 109.5t24.5 60.5q27 30 76 30q48 0 75 -30q19 -20 25 -60.5t6 -109.5zM207 515q0 62 -4 94t-17 48t-38 16q-26 0 -39 -16t-16.5 -48t-3.5 -94t3.5 -95t16.5 -48
q13 -16 39 -16q25 0 38 16t17 48.5t4 94.5z" />
    <glyph glyph-name="guillemotright" unicode="&#xbb;" horiz-adv-x="371" 
d="M206 58v95l76 115l-76 114v96l136 -210zM55 58v95l76 115l-76 114v96l136 -210z" />
    <glyph glyph-name="onequarter" unicode="&#xbc;" horiz-adv-x="708" 
d="M131 285v379l-69 -47v47l69 48h43v-427h-43zM254 0h-47l247 712h47zM650 64v-64h-43v64h-148v38l125 325h43l-124 -325h104v103h43v-103h32v-38h-32z" />
    <glyph glyph-name="onehalf" unicode="&#xbd;" horiz-adv-x="708" 
d="M131 285v379l-69 -47v47l69 48h43v-427h-43zM254 0h-47l247 712h47zM469 0v37l137 218q12 20 18 37t6 42q0 27 -16.5 43.5t-43.5 16.5q-31 0 -45 -18.5t-14 -50.5v-18h-43v17q0 29 6 48t21 33q29 27 75 27q25 0 41.5 -6t31.5 -18q30 -24 30 -74q0 -26 -7 -49t-23 -49
l-124 -198h154v-38h-204z" />
    <glyph glyph-name="threequarters" unicode="&#xbe;" horiz-adv-x="708" 
d="M245 399q0 -37 -6.5 -56.5t-23.5 -36.5q-12 -12 -32 -19t-43 -7q-49 0 -77 27q-12 13 -18.5 30.5t-6.5 54.5v13h43v-13q0 -26 4 -38.5t14 -20.5q15 -15 41 -15q27 0 42 15q9 9 14.5 23.5t5.5 43.5q0 31 -4.5 45t-12.5 23q-16 19 -45 19h-29v38h29q23 0 40 14
q14 13 16.5 30.5t2.5 37.5q0 19 -4 34t-15 24q-13 14 -40 14t-42 -15q-16 -16 -16 -54v-13h-43v12q0 32 6 50.5t19 30.5q14 13 32 20t44 7t44 -7.5t30 -18.5q15 -14 21.5 -35.5t6.5 -48.5q0 -26 -4 -42.5t-14 -29.5q-16 -20 -39 -29q27 -8 42 -31q9 -13 13.5 -30t4.5 -46z
M254 0h-47l247 712h47zM650 64v-64h-43v64h-148v38l125 325h43l-124 -325h104v103h43v-103h32v-38h-32z" />
    <glyph glyph-name="questiondown" unicode="&#xbf;" horiz-adv-x="375" 
d="M317 -53q0 -38 -8 -67.5t-31 -51.5q-17 -17 -41.5 -27t-54.5 -10q-63 0 -99 37q-10 10 -17.5 22t-12.5 27.5t-7.5 36t-2.5 48.5q0 35 5.5 60.5t23.5 54.5l58 93q11 17 16 35.5t5 38.5v78h56v-85q0 -45 -24 -83l-58 -92q-17 -26 -21.5 -48.5t-4.5 -52.5q0 -41 7 -62.5
t21 -35.5q20 -22 55 -22q18 0 30.5 5.5t22.5 15.5q17 17 21.5 39.5t4.5 45.5h56zM142 434v75h75v-75h-75z" />
    <glyph glyph-name="Agrave" unicode="&#xc0;" horiz-adv-x="379" 
d="M4 0zM311 0l-39 195h-166l-38 -195h-64l159 712h55l156 -712h-63zM189 606l-71 -358h143zM171 764l-75 130h59l65 -130h-49z" />
    <glyph glyph-name="Aacute" unicode="&#xc1;" horiz-adv-x="379" 
d="M4 0zM311 0l-39 195h-166l-38 -195h-64l159 712h55l156 -712h-63zM189 606l-71 -358h143zM214 764h-49l65 130h59z" />
    <glyph glyph-name="Acircumflex" unicode="&#xc2;" horiz-adv-x="379" 
d="M4 0zM311 0l-39 195h-166l-38 -195h-64l159 712h55l156 -712h-63zM189 606l-71 -358h143zM252 764l-59 92l-60 -92h-52l87 130h50l86 -130h-52z" />
    <glyph glyph-name="Atilde" unicode="&#xc3;" horiz-adv-x="379" 
d="M4 0zM311 0l-39 195h-166l-38 -195h-64l159 712h55l156 -712h-63zM189 606l-71 -358h143zM312 813q-26 -25 -41.5 -31.5t-29.5 -6.5q-16 0 -28 4.5t-26 12.5q-11 7 -21 11.5t-21 4.5q-9 0 -17.5 -3.5t-25.5 -20.5l-28 29q25 25 40.5 31.5t29.5 6.5q17 0 28.5 -4.5
t25.5 -12.5q11 -7 21 -11.5t21 -4.5q8 0 17 3.5t26 20.5z" />
    <glyph glyph-name="Adieresis" unicode="&#xc4;" horiz-adv-x="379" 
d="M4 0zM311 0l-39 195h-166l-38 -195h-64l159 712h55l156 -712h-63zM189 606l-71 -358h143zM230 784v63h63v-63h-63zM92 784v63h63v-63h-63z" />
    <glyph glyph-name="Aring" unicode="&#xc5;" horiz-adv-x="379" 
d="M4 0zM311 0l-39 195h-166l-38 -195h-64l159 712h55l156 -712h-63zM189 606l-71 -358h143zM284 842q0 -19 -7.5 -35.5t-20 -29t-29 -19.5t-34.5 -7q-38 0 -64.5 26.5t-26.5 64.5t26.5 64.5t64.5 26.5q18 0 34.5 -7t29 -19.5t20 -29t7.5 -35.5zM245 842q0 22 -15.5 37
t-36.5 15q-22 0 -37.5 -15t-15.5 -37t15.5 -37.5t37.5 -15.5q21 0 36.5 15.5t15.5 37.5z" />
    <glyph glyph-name="AE" unicode="&#xc6;" horiz-adv-x="604" 
d="M309 0v197h-168l-72 -197h-64l265 712h288v-53h-190v-276h164v-53h-164v-277h190v-53h-249zM309 660l-149 -410h149v410z" />
    <glyph glyph-name="Ccedilla" unicode="&#xc7;" horiz-adv-x="399" 
d="M54 0zM358 163q-1 -42 -13 -78t-37 -59q-37 -34 -98 -34q-35 0 -61.5 11t-44.5 31q-16 17 -26 38t-15 55.5t-7 89t-2 139.5t2 139.5t7 89t15 55.5t26 38q18 20 44.5 31t61.5 11t59.5 -10t42.5 -28q23 -23 34 -57.5t12 -75.5h-59q0 27 -6 52t-22 42q-11 11 -25.5 17.5
t-35.5 6.5q-40 0 -63 -26q-11 -13 -17.5 -29.5t-10.5 -47.5t-5 -80.5t-1 -127.5t1 -127.5t5 -80.5t10.5 -47.5t17.5 -29.5q23 -26 63 -26q21 0 36 6.5t25 17.5q16 17 22 42.5t6 51.5h59zM190 -171h-53l53 134h46z" />
    <glyph glyph-name="Egrave" unicode="&#xc8;" horiz-adv-x="364" 
d="M69 0zM69 0v712h248v-53h-189v-276h163v-53h-163v-277h189v-53h-248zM177 764l-75 130h59l65 -130h-49z" />
    <glyph glyph-name="Eacute" unicode="&#xc9;" horiz-adv-x="364" 
d="M69 0zM69 0v712h248v-53h-189v-276h163v-53h-163v-277h189v-53h-248zM220 764h-49l65 130h59z" />
    <glyph glyph-name="Ecircumflex" unicode="&#xca;" horiz-adv-x="364" 
d="M69 0zM69 0v712h248v-53h-189v-276h163v-53h-163v-277h189v-53h-248zM258 764l-59 92l-60 -92h-52l87 130h50l86 -130h-52z" />
    <glyph glyph-name="Edieresis" unicode="&#xcb;" horiz-adv-x="364" 
d="M69 0zM69 0v712h248v-53h-189v-276h163v-53h-163v-277h189v-53h-248zM236 784v63h63v-63h-63zM98 784v63h63v-63h-63z" />
    <glyph glyph-name="Igrave" unicode="&#xcc;" horiz-adv-x="197" 
d="M3 0zM69 0v712h59v-712h-59zM78 764l-75 130h59l65 -130h-49z" />
    <glyph glyph-name="Iacute" unicode="&#xcd;" horiz-adv-x="197" 
d="M69 0zM69 0v712h59v-712h-59zM121 764h-49l65 130h59z" />
    <glyph glyph-name="Icircumflex" unicode="&#xce;" horiz-adv-x="197" 
d="M0 0zM69 0v712h59v-712h-59zM159 764l-59 92l-60 -92h-52l87 130h50l86 -130h-52z" />
    <glyph glyph-name="Idieresis" unicode="&#xcf;" horiz-adv-x="197" 
d="M0 0zM69 0v712h59v-712h-59zM137 784v63h63v-63h-63zM-1 784v63h63v-63h-63z" />
    <glyph glyph-name="Eth" unicode="&#xd0;" horiz-adv-x="429" 
d="M375 356q0 -81 -1.5 -133.5t-6.5 -87t-15 -55.5t-27 -39q-18 -19 -44 -30t-61 -11h-147v332h-53v49h53v331h147q35 0 61 -11t44 -30q17 -18 27 -39t15 -55.5t6.5 -87t1.5 -133.5zM316 356q0 76 -1 124.5t-5 78.5t-10.5 46t-18.5 29q-11 11 -27 18t-37 7h-85v-278h91v-49
h-91v-279h85q21 0 37 7t27 18q12 13 18.5 29t10.5 46t5 78t1 125z" />
    <glyph glyph-name="Ntilde" unicode="&#xd1;" horiz-adv-x="454" 
d="M69 0zM327 0l-199 555v-555h-59v712h59l198 -555v555h59v-712h-58zM346 813q-26 -25 -41.5 -31.5t-29.5 -6.5q-16 0 -28 4.5t-26 12.5q-11 7 -21 11.5t-21 4.5q-9 0 -17.5 -3.5t-25.5 -20.5l-28 29q25 25 40.5 31.5t29.5 6.5q17 0 28.5 -4.5t25.5 -12.5q11 -7 21 -11.5
t21 -4.5q8 0 17 3.5t26 20.5z" />
    <glyph glyph-name="Ograve" unicode="&#xd2;" horiz-adv-x="421" 
d="M54 0zM367 356q0 -85 -2 -139.5t-7 -89t-15 -55.5t-26 -38q-18 -20 -45 -31t-62 -11t-61.5 11t-44.5 31q-16 17 -26 38t-15 55.5t-7 89t-2 139.5t2 139.5t7 89t15 55.5t26 38q18 20 44.5 31t61.5 11t62 -11t45 -31q16 -17 26 -38t15 -55.5t7 -89t2 -139.5zM308 356
q0 78 -1 127.5t-5 80.5t-10.5 47.5t-17.5 29.5q-23 26 -64 26q-40 0 -63 -26q-11 -13 -17.5 -29.5t-10.5 -47.5t-5 -80.5t-1 -127.5t1 -127.5t5 -80.5t10.5 -47.5t17.5 -29.5q23 -26 63 -26q21 0 37 7t27 19q11 13 17.5 29.5t10.5 47.5t5 80.5t1 127.5zM189 764l-75 130h59
l65 -130h-49z" />
    <glyph glyph-name="Oacute" unicode="&#xd3;" horiz-adv-x="421" 
d="M54 0zM367 356q0 -85 -2 -139.5t-7 -89t-15 -55.5t-26 -38q-18 -20 -45 -31t-62 -11t-61.5 11t-44.5 31q-16 17 -26 38t-15 55.5t-7 89t-2 139.5t2 139.5t7 89t15 55.5t26 38q18 20 44.5 31t61.5 11t62 -11t45 -31q16 -17 26 -38t15 -55.5t7 -89t2 -139.5zM308 356
q0 78 -1 127.5t-5 80.5t-10.5 47.5t-17.5 29.5q-23 26 -64 26q-40 0 -63 -26q-11 -13 -17.5 -29.5t-10.5 -47.5t-5 -80.5t-1 -127.5t1 -127.5t5 -80.5t10.5 -47.5t17.5 -29.5q23 -26 63 -26q21 0 37 7t27 19q11 13 17.5 29.5t10.5 47.5t5 80.5t1 127.5zM232 764h-49l65 130
h59z" />
    <glyph glyph-name="Ocircumflex" unicode="&#xd4;" horiz-adv-x="421" 
d="M54 0zM367 356q0 -85 -2 -139.5t-7 -89t-15 -55.5t-26 -38q-18 -20 -45 -31t-62 -11t-61.5 11t-44.5 31q-16 17 -26 38t-15 55.5t-7 89t-2 139.5t2 139.5t7 89t15 55.5t26 38q18 20 44.5 31t61.5 11t62 -11t45 -31q16 -17 26 -38t15 -55.5t7 -89t2 -139.5zM308 356
q0 78 -1 127.5t-5 80.5t-10.5 47.5t-17.5 29.5q-23 26 -64 26q-40 0 -63 -26q-11 -13 -17.5 -29.5t-10.5 -47.5t-5 -80.5t-1 -127.5t1 -127.5t5 -80.5t10.5 -47.5t17.5 -29.5q23 -26 63 -26q21 0 37 7t27 19q11 13 17.5 29.5t10.5 47.5t5 80.5t1 127.5zM270 764l-59 92
l-60 -92h-52l87 130h50l86 -130h-52z" />
    <glyph glyph-name="Otilde" unicode="&#xd5;" horiz-adv-x="421" 
d="M54 0zM367 356q0 -85 -2 -139.5t-7 -89t-15 -55.5t-26 -38q-18 -20 -45 -31t-62 -11t-61.5 11t-44.5 31q-16 17 -26 38t-15 55.5t-7 89t-2 139.5t2 139.5t7 89t15 55.5t26 38q18 20 44.5 31t61.5 11t62 -11t45 -31q16 -17 26 -38t15 -55.5t7 -89t2 -139.5zM308 356
q0 78 -1 127.5t-5 80.5t-10.5 47.5t-17.5 29.5q-23 26 -64 26q-40 0 -63 -26q-11 -13 -17.5 -29.5t-10.5 -47.5t-5 -80.5t-1 -127.5t1 -127.5t5 -80.5t10.5 -47.5t17.5 -29.5q23 -26 63 -26q21 0 37 7t27 19q11 13 17.5 29.5t10.5 47.5t5 80.5t1 127.5zM330 813
q-26 -25 -41.5 -31.5t-29.5 -6.5q-16 0 -28 4.5t-26 12.5q-11 7 -21 11.5t-21 4.5q-9 0 -17.5 -3.5t-25.5 -20.5l-28 29q25 25 40.5 31.5t29.5 6.5q17 0 28.5 -4.5t25.5 -12.5q11 -7 21 -11.5t21 -4.5q8 0 17 3.5t26 20.5z" />
    <glyph glyph-name="Odieresis" unicode="&#xd6;" horiz-adv-x="421" 
d="M54 0zM367 356q0 -85 -2 -139.5t-7 -89t-15 -55.5t-26 -38q-18 -20 -45 -31t-62 -11t-61.5 11t-44.5 31q-16 17 -26 38t-15 55.5t-7 89t-2 139.5t2 139.5t7 89t15 55.5t26 38q18 20 44.5 31t61.5 11t62 -11t45 -31q16 -17 26 -38t15 -55.5t7 -89t2 -139.5zM308 356
q0 78 -1 127.5t-5 80.5t-10.5 47.5t-17.5 29.5q-23 26 -64 26q-40 0 -63 -26q-11 -13 -17.5 -29.5t-10.5 -47.5t-5 -80.5t-1 -127.5t1 -127.5t5 -80.5t10.5 -47.5t17.5 -29.5q23 -26 63 -26q21 0 37 7t27 19q11 13 17.5 29.5t10.5 47.5t5 80.5t1 127.5zM248 784v63h63v-63
h-63zM110 784v63h63v-63h-63z" />
    <glyph glyph-name="multiply" unicode="&#xd7;" horiz-adv-x="431" 
d="M333 115l-117 118l-118 -118l-36 37l117 117l-117 118l36 36l118 -117l117 117l37 -36l-118 -118l118 -117z" />
    <glyph glyph-name="Oslash" unicode="&#xd8;" horiz-adv-x="405" 
d="M367 356q0 -85 -2 -139.5t-7 -89t-15 -55.5t-26 -38q-18 -20 -45 -31t-62 -11q-45 0 -79 20l-17 -56h-50l29 90q-13 16 -20.5 38t-11.5 57t-5.5 87t-1.5 128q0 85 2 139.5t7 89t15 55.5t26 38q18 20 44.5 31t61.5 11q47 0 80 -21l17 57h50l-28 -91q12 -17 19.5 -39
t11.5 -57t5.5 -86.5t1.5 -126.5zM272 644q-21 23 -62 23q-40 0 -63 -26q-11 -13 -17.5 -29.5t-10.5 -47.5t-5 -80.5t-1 -127.5q0 -50 0.5 -87t1.5 -63.5t3.5 -44.5t5.5 -31zM308 356q0 97 -2 148t-8 77l-149 -513q20 -23 61 -23q21 0 37 7t27 19q11 13 17.5 29.5t10.5 47.5
t5 80.5t1 127.5z" />
    <glyph glyph-name="Ugrave" unicode="&#xd9;" horiz-adv-x="417" 
d="M61 0zM356 148q0 -38 -11 -66.5t-31 -48.5q-43 -41 -105 -41t-105 41q-20 20 -31.5 48.5t-11.5 66.5v564h59v-569q0 -46 26 -72t63 -26t62.5 26t25.5 72v569h59v-564zM189 764l-75 130h59l65 -130h-49z" />
    <glyph glyph-name="Uacute" unicode="&#xda;" horiz-adv-x="417" 
d="M61 0zM356 148q0 -38 -11 -66.5t-31 -48.5q-43 -41 -105 -41t-105 41q-20 20 -31.5 48.5t-11.5 66.5v564h59v-569q0 -46 26 -72t63 -26t62.5 26t25.5 72v569h59v-564zM232 764h-49l65 130h59z" />
    <glyph glyph-name="Ucircumflex" unicode="&#xdb;" horiz-adv-x="417" 
d="M61 0zM356 148q0 -38 -11 -66.5t-31 -48.5q-43 -41 -105 -41t-105 41q-20 20 -31.5 48.5t-11.5 66.5v564h59v-569q0 -46 26 -72t63 -26t62.5 26t25.5 72v569h59v-564zM270 764l-59 92l-60 -92h-52l87 130h50l86 -130h-52z" />
    <glyph glyph-name="Udieresis" unicode="&#xdc;" horiz-adv-x="417" 
d="M61 0zM356 148q0 -38 -11 -66.5t-31 -48.5q-43 -41 -105 -41t-105 41q-20 20 -31.5 48.5t-11.5 66.5v564h59v-569q0 -46 26 -72t63 -26t62.5 26t25.5 72v569h59v-564zM248 784v63h63v-63h-63zM110 784v63h63v-63h-63z" />
    <glyph glyph-name="Yacute" unicode="&#xdd;" horiz-adv-x="315" 
d="M3 0zM187 298v-298h-59v298l-125 414h65l89 -326l90 326h65zM183 764h-49l65 130h59z" />
    <glyph glyph-name="Thorn" unicode="&#xde;" horiz-adv-x="409" 
d="M363 360q0 -62 -12 -101t-33 -61t-49 -29.5t-60 -7.5h-81v-161h-59v712h59v-154h81q32 0 60 -7.5t49 -29t33 -60.5t12 -101zM304 359q0 45 -7 73.5t-20 44.5t-31 22t-39 6h-79v-291h79q21 0 39 6t31 21.5t20 44t7 73.5z" />
    <glyph glyph-name="germandbls" unicode="&#xdf;" 
d="M328 224q0 -36 -1 -65t-5 -52t-12 -41t-22 -32q-20 -20 -45.5 -27t-53.5 -7v50q38 0 59 21q13 13 18.5 47.5t5.5 108.5q0 68 -5 102.5t-19 50.5q-18 22 -50 22h-9v48h7q26 0 42 19q17 19 20.5 42.5t3.5 50.5q0 35 -5 54t-17 33q-20 21 -51 21q-30 0 -50.5 -21t-20.5 -63
v-586h-56v584q0 38 9.5 61t26.5 40q17 16 41 25.5t50 9.5t50 -8.5t41 -25.5q23 -24 30.5 -51t7.5 -71q0 -25 -3 -50.5t-16 -48.5q-13 -22 -34 -36q17 -8 30 -25q10 -11 16 -24.5t10 -33.5t5.5 -49.5t1.5 -72.5z" />
    <glyph glyph-name="agrave" unicode="&#xe0;" horiz-adv-x="352" 
d="M37 0zM240 0v46q-5 -11 -13 -20t-15 -14q-12 -9 -26 -14.5t-35 -5.5q-48 0 -81 34q-14 15 -23.5 44t-9.5 71q0 36 10.5 65.5t32.5 49.5q19 17 42 25.5t58 8.5h58v91q0 42 -17.5 64.5t-52.5 22.5q-15 0 -26.5 -5.5t-19.5 -13.5q-12 -13 -17.5 -29t-5.5 -42h-56
q0 29 7.5 56t29.5 49q16 16 38 25t50 9q61 0 91 -32q17 -18 26 -43t9 -63v-379h-54zM238 246h-56q-20 0 -34.5 -5t-27.5 -17q-13 -13 -20 -34.5t-7 -47.5q0 -46 17 -73t54 -27q34 0 54 26t20 66v112zM154 586l-75 130h58l66 -130h-49z" />
    <glyph glyph-name="aacute" unicode="&#xe1;" horiz-adv-x="352" 
d="M37 0zM240 0v46q-5 -11 -13 -20t-15 -14q-12 -9 -26 -14.5t-35 -5.5q-48 0 -81 34q-14 15 -23.5 44t-9.5 71q0 36 10.5 65.5t32.5 49.5q19 17 42 25.5t58 8.5h58v91q0 42 -17.5 64.5t-52.5 22.5q-15 0 -26.5 -5.5t-19.5 -13.5q-12 -13 -17.5 -29t-5.5 -42h-56
q0 29 7.5 56t29.5 49q16 16 38 25t50 9q61 0 91 -32q17 -18 26 -43t9 -63v-379h-54zM238 246h-56q-20 0 -34.5 -5t-27.5 -17q-13 -13 -20 -34.5t-7 -47.5q0 -46 17 -73t54 -27q34 0 54 26t20 66v112zM195 586h-49l65 130h58z" />
    <glyph glyph-name="acircumflex" unicode="&#xe2;" horiz-adv-x="352" 
d="M37 0zM240 0v46q-5 -11 -13 -20t-15 -14q-12 -9 -26 -14.5t-35 -5.5q-48 0 -81 34q-14 15 -23.5 44t-9.5 71q0 36 10.5 65.5t32.5 49.5q19 17 42 25.5t58 8.5h58v91q0 42 -17.5 64.5t-52.5 22.5q-15 0 -26.5 -5.5t-19.5 -13.5q-12 -13 -17.5 -29t-5.5 -42h-56
q0 29 7.5 56t29.5 49q16 16 38 25t50 9q61 0 91 -32q17 -18 26 -43t9 -63v-379h-54zM238 246h-56q-20 0 -34.5 -5t-27.5 -17q-13 -13 -20 -34.5t-7 -47.5q0 -46 17 -73t54 -27q34 0 54 26t20 66v112zM233 586l-60 92l-60 -92h-52l87 130h50l86 -130h-51z" />
    <glyph glyph-name="atilde" unicode="&#xe3;" horiz-adv-x="352" 
d="M37 0zM240 0v46q-5 -11 -13 -20t-15 -14q-12 -9 -26 -14.5t-35 -5.5q-48 0 -81 34q-14 15 -23.5 44t-9.5 71q0 36 10.5 65.5t32.5 49.5q19 17 42 25.5t58 8.5h58v91q0 42 -17.5 64.5t-52.5 22.5q-15 0 -26.5 -5.5t-19.5 -13.5q-12 -13 -17.5 -29t-5.5 -42h-56
q0 29 7.5 56t29.5 49q16 16 38 25t50 9q61 0 91 -32q17 -18 26 -43t9 -63v-379h-54zM238 246h-56q-20 0 -34.5 -5t-27.5 -17q-13 -13 -20 -34.5t-7 -47.5q0 -46 17 -73t54 -27q34 0 54 26t20 66v112zM293 635q-26 -25 -41.5 -31.5t-29.5 -6.5q-16 0 -28 4.5t-26 12.5
q-11 7 -21 11.5t-21 4.5q-9 0 -17.5 -3.5t-25.5 -20.5l-28 29q25 25 40.5 31.5t29.5 6.5q17 0 28.5 -4.5t25.5 -12.5q11 -7 21 -11.5t21 -4.5q8 0 17 3.5t26 20.5z" />
    <glyph glyph-name="adieresis" unicode="&#xe4;" horiz-adv-x="352" 
d="M37 0zM240 0v46q-5 -11 -13 -20t-15 -14q-12 -9 -26 -14.5t-35 -5.5q-48 0 -81 34q-14 15 -23.5 44t-9.5 71q0 36 10.5 65.5t32.5 49.5q19 17 42 25.5t58 8.5h58v91q0 42 -17.5 64.5t-52.5 22.5q-15 0 -26.5 -5.5t-19.5 -13.5q-12 -13 -17.5 -29t-5.5 -42h-56
q0 29 7.5 56t29.5 49q16 16 38 25t50 9q61 0 91 -32q17 -18 26 -43t9 -63v-379h-54zM238 246h-56q-20 0 -34.5 -5t-27.5 -17q-13 -13 -20 -34.5t-7 -47.5q0 -46 17 -73t54 -27q34 0 54 26t20 66v112zM210 606v63h63v-63h-63zM72 606v63h64v-63h-64z" />
    <glyph glyph-name="aring" unicode="&#xe5;" horiz-adv-x="352" 
d="M37 0zM240 0v46q-5 -11 -13 -20t-15 -14q-12 -9 -26 -14.5t-35 -5.5q-48 0 -81 34q-14 15 -23.5 44t-9.5 71q0 36 10.5 65.5t32.5 49.5q19 17 42 25.5t58 8.5h58v91q0 42 -17.5 64.5t-52.5 22.5q-15 0 -26.5 -5.5t-19.5 -13.5q-12 -13 -17.5 -29t-5.5 -42h-56
q0 29 7.5 56t29.5 49q16 16 38 25t50 9q61 0 91 -32q17 -18 26 -43t9 -63v-379h-54zM238 246h-56q-20 0 -34.5 -5t-27.5 -17q-13 -13 -20 -34.5t-7 -47.5q0 -46 17 -73t54 -27q34 0 54 26t20 66v112zM264 672q0 -38 -26.5 -64.5t-64.5 -26.5t-64.5 26.5t-26.5 64.5
t26.5 64.5t64.5 26.5t64.5 -26.5t26.5 -64.5zM225 672q0 22 -15.5 37.5t-36.5 15.5q-22 0 -37.5 -15.5t-15.5 -37.5q0 -21 15.5 -36.5t37.5 -15.5q21 0 36.5 15.5t15.5 36.5z" />
    <glyph glyph-name="ae" unicode="&#xe6;" horiz-adv-x="544" 
d="M294 246q0 -78 4.5 -120t21.5 -61q8 -10 21.5 -16.5t30.5 -6.5t29 5t22 15q11 11 16.5 30t5.5 42h55q0 -36 -8.5 -61.5t-28.5 -45.5q-17 -18 -41 -26.5t-50 -8.5q-51 0 -83 30q-9 9 -17.5 21t-13.5 24q-6 -16 -15.5 -30t-20.5 -22q-13 -10 -30.5 -16.5t-40.5 -6.5
q-48 0 -81 34q-14 15 -23.5 44t-9.5 71q0 36 10.5 65.5t32.5 49.5q19 17 42 25.5t58 8.5h58v91q0 42 -17.5 64.5t-52.5 22.5q-15 0 -26.5 -5.5t-19.5 -13.5q-13 -13 -18 -29.5t-5 -41.5h-56q0 29 7.5 56t29.5 49q16 16 38 25t50 9q54 0 84 -28q11 -11 18 -25q7 11 15 19
q15 16 36.5 25t48.5 9q57 0 91 -37q25 -28 33 -82.5t8 -151.5h-208zM238 246h-56q-20 0 -34.5 -4.5t-27.5 -17.5q-13 -12 -20 -34t-7 -48q0 -46 17 -73t54 -27q34 0 54 26t20 66v112zM446 291q-1 66 -5.5 101t-20.5 52q-8 10 -20.5 16.5t-29.5 6.5t-30 -6.5t-21 -16.5
q-15 -17 -19.5 -52t-5.5 -101h152z" />
    <glyph glyph-name="ccedilla" unicode="&#xe7;" horiz-adv-x="340" 
d="M45 0zM303 134q-1 -36 -8.5 -62.5t-27.5 -46.5q-33 -33 -90 -33q-60 0 -94 40q-23 27 -30.5 79.5t-7.5 142.5t7.5 142.5t30.5 79.5q33 41 94 41q29 0 51 -7.5t39 -24.5q23 -22 29 -50.5t7 -60.5h-55q0 20 -3 38.5t-17 33.5q-18 21 -50 21q-34 0 -52 -23
q-17 -21 -21 -64.5t-4 -125.5t4 -125t21 -64q18 -23 52 -23q29 0 49 20q13 14 17 31.5t4 40.5h55zM163 -171h-53l53 134h46z" />
    <glyph glyph-name="egrave" unicode="&#xe8;" horiz-adv-x="349" 
d="M45 0zM101 246q0 -78 4.5 -119.5t21.5 -61.5q8 -10 21 -16.5t30 -6.5q15 0 28.5 4.5t23.5 15.5q22 23 22 72h55q0 -37 -8.5 -62t-28.5 -45q-34 -35 -92 -35q-57 0 -92 37q-25 27 -33 80.5t-8 144.5q0 92 7.5 145t33.5 81q34 37 91 37t91 -37q25 -28 33 -82.5t8 -151.5
h-208zM253 291q-1 66 -6 101t-20 52q-8 10 -20.5 16.5t-29.5 6.5t-30 -6.5t-21 -16.5q-15 -17 -19.5 -52t-5.5 -101h152zM158 586l-75 130h58l66 -130h-49z" />
    <glyph glyph-name="eacute" unicode="&#xe9;" horiz-adv-x="349" 
d="M45 0zM101 246q0 -78 4.5 -119.5t21.5 -61.5q8 -10 21 -16.5t30 -6.5q15 0 28.5 4.5t23.5 15.5q22 23 22 72h55q0 -37 -8.5 -62t-28.5 -45q-34 -35 -92 -35q-57 0 -92 37q-25 27 -33 80.5t-8 144.5q0 92 7.5 145t33.5 81q34 37 91 37t91 -37q25 -28 33 -82.5t8 -151.5
h-208zM253 291q-1 66 -6 101t-20 52q-8 10 -20.5 16.5t-29.5 6.5t-30 -6.5t-21 -16.5q-15 -17 -19.5 -52t-5.5 -101h152zM199 586h-49l65 130h58z" />
    <glyph glyph-name="ecircumflex" unicode="&#xea;" horiz-adv-x="349" 
d="M45 0zM101 246q0 -78 4.5 -119.5t21.5 -61.5q8 -10 21 -16.5t30 -6.5q15 0 28.5 4.5t23.5 15.5q22 23 22 72h55q0 -37 -8.5 -62t-28.5 -45q-34 -35 -92 -35q-57 0 -92 37q-25 27 -33 80.5t-8 144.5q0 92 7.5 145t33.5 81q34 37 91 37t91 -37q25 -28 33 -82.5t8 -151.5
h-208zM253 291q-1 66 -6 101t-20 52q-8 10 -20.5 16.5t-29.5 6.5t-30 -6.5t-21 -16.5q-15 -17 -19.5 -52t-5.5 -101h152zM237 586l-60 92l-60 -92h-52l87 130h50l86 -130h-51z" />
    <glyph glyph-name="edieresis" unicode="&#xeb;" horiz-adv-x="349" 
d="M45 0zM101 246q0 -78 4.5 -119.5t21.5 -61.5q8 -10 21 -16.5t30 -6.5q15 0 28.5 4.5t23.5 15.5q22 23 22 72h55q0 -37 -8.5 -62t-28.5 -45q-34 -35 -92 -35q-57 0 -92 37q-25 27 -33 80.5t-8 144.5q0 92 7.5 145t33.5 81q34 37 91 37t91 -37q25 -28 33 -82.5t8 -151.5
h-208zM253 291q-1 66 -6 101t-20 52q-8 10 -20.5 16.5t-29.5 6.5t-30 -6.5t-21 -16.5q-15 -17 -19.5 -52t-5.5 -101h152zM214 606v63h63v-63h-63zM76 606v63h64v-63h-64z" />
    <glyph glyph-name="igrave" unicode="&#xec;" horiz-adv-x="181" 
d="M0 0zM63 0v509h56v-509h-56zM71 586l-75 130h58l66 -130h-49z" />
    <glyph glyph-name="iacute" unicode="&#xed;" horiz-adv-x="181" 
d="M63 0zM63 0v509h56v-509h-56zM114 586h-49l65 130h58z" />
    <glyph glyph-name="icircumflex" unicode="&#xee;" horiz-adv-x="181" 
d="M0 0zM63 0v509h56v-509h-56zM152 586l-60 92l-60 -92h-52l87 130h50l86 -130h-51z" />
    <glyph glyph-name="idieresis" unicode="&#xef;" horiz-adv-x="181" 
d="M0 0zM63 0v509h56v-509h-56zM129 606v63h63v-63h-63zM-9 606v63h64v-63h-64z" />
    <glyph glyph-name="eth" unicode="&#xf0;" horiz-adv-x="355" 
d="M309 249q0 -89 -7.5 -140t-30.5 -78q-33 -39 -94 -39t-94 39q-23 27 -30.5 78t-7.5 140q0 47 1.5 82.5t6 62t11.5 45t19 31.5q32 35 85 35q14 0 28.5 -3t26.5 -11l-32 91h-82v44h67l-33 86h57l32 -86h72v-44h-57l39 -115q6 -18 10.5 -38t7 -45t4 -58t1.5 -77zM253 250
q0 80 -4 122.5t-21 62.5q-8 10 -21 16t-30 6t-29.5 -6t-20.5 -16q-17 -20 -21.5 -62.5t-4.5 -122.5t4.5 -123t21.5 -63q8 -10 20.5 -16t29.5 -6t30 6t21 16q17 20 21 63t4 123z" />
    <glyph glyph-name="ntilde" unicode="&#xf1;" 
d="M62 0zM259 0v383q0 42 -20.5 62.5t-49.5 20.5t-50 -20.5t-21 -62.5v-383h-56v509h55v-41q5 8 13.5 17t15.5 14q26 18 58 18q26 0 45 -9t35 -26q15 -16 23 -39t8 -61v-382h-56zM310 635q-26 -25 -41.5 -31.5t-29.5 -6.5q-16 0 -28 4.5t-26 12.5q-11 7 -21 11.5t-21 4.5
q-9 0 -17.5 -3.5t-25.5 -20.5l-28 29q25 25 40.5 31.5t29.5 6.5q17 0 28.5 -4.5t25.5 -12.5q11 -7 21 -11.5t21 -4.5q8 0 17 3.5t26 20.5z" />
    <glyph glyph-name="ograve" unicode="&#xf2;" horiz-adv-x="353" 
d="M45 0zM309 254q0 -90 -7.5 -142t-30.5 -80q-33 -40 -94 -40t-94 40q-23 28 -30.5 80t-7.5 142t7.5 142t30.5 80q33 41 94 41t94 -41q23 -28 30.5 -80t7.5 -142zM253 254q0 82 -4.5 125.5t-21.5 64.5q-8 10 -20.5 16.5t-29.5 6.5t-30 -6.5t-21 -16.5q-17 -21 -21 -64.5
t-4 -125.5t4 -125t21 -64q8 -10 21 -16.5t30 -6.5t29.5 6.5t20.5 16.5q17 21 21.5 64t4.5 125zM158 586l-75 130h58l66 -130h-49z" />
    <glyph glyph-name="oacute" unicode="&#xf3;" horiz-adv-x="353" 
d="M45 0zM309 254q0 -90 -7.5 -142t-30.5 -80q-33 -40 -94 -40t-94 40q-23 28 -30.5 80t-7.5 142t7.5 142t30.5 80q33 41 94 41t94 -41q23 -28 30.5 -80t7.5 -142zM253 254q0 82 -4.5 125.5t-21.5 64.5q-8 10 -20.5 16.5t-29.5 6.5t-30 -6.5t-21 -16.5q-17 -21 -21 -64.5
t-4 -125.5t4 -125t21 -64q8 -10 21 -16.5t30 -6.5t29.5 6.5t20.5 16.5q17 21 21.5 64t4.5 125zM199 586h-49l65 130h58z" />
    <glyph glyph-name="ocircumflex" unicode="&#xf4;" horiz-adv-x="353" 
d="M45 0zM309 254q0 -90 -7.5 -142t-30.5 -80q-33 -40 -94 -40t-94 40q-23 28 -30.5 80t-7.5 142t7.5 142t30.5 80q33 41 94 41t94 -41q23 -28 30.5 -80t7.5 -142zM253 254q0 82 -4.5 125.5t-21.5 64.5q-8 10 -20.5 16.5t-29.5 6.5t-30 -6.5t-21 -16.5q-17 -21 -21 -64.5
t-4 -125.5t4 -125t21 -64q8 -10 21 -16.5t30 -6.5t29.5 6.5t20.5 16.5q17 21 21.5 64t4.5 125zM237 586l-60 92l-60 -92h-52l87 130h50l86 -130h-51z" />
    <glyph glyph-name="otilde" unicode="&#xf5;" horiz-adv-x="353" 
d="M45 0zM309 254q0 -90 -7.5 -142t-30.5 -80q-33 -40 -94 -40t-94 40q-23 28 -30.5 80t-7.5 142t7.5 142t30.5 80q33 41 94 41t94 -41q23 -28 30.5 -80t7.5 -142zM253 254q0 82 -4.5 125.5t-21.5 64.5q-8 10 -20.5 16.5t-29.5 6.5t-30 -6.5t-21 -16.5q-17 -21 -21 -64.5
t-4 -125.5t4 -125t21 -64q8 -10 21 -16.5t30 -6.5t29.5 6.5t20.5 16.5q17 21 21.5 64t4.5 125zM297 635q-26 -25 -41.5 -31.5t-29.5 -6.5q-16 0 -28 4.5t-26 12.5q-11 7 -21 11.5t-21 4.5q-9 0 -17.5 -3.5t-25.5 -20.5l-28 29q25 25 40.5 31.5t29.5 6.5q17 0 28.5 -4.5
t25.5 -12.5q11 -7 21 -11.5t21 -4.5q8 0 17 3.5t26 20.5z" />
    <glyph glyph-name="odieresis" unicode="&#xf6;" horiz-adv-x="353" 
d="M45 0zM309 254q0 -90 -7.5 -142t-30.5 -80q-33 -40 -94 -40t-94 40q-23 28 -30.5 80t-7.5 142t7.5 142t30.5 80q33 41 94 41t94 -41q23 -28 30.5 -80t7.5 -142zM253 254q0 82 -4.5 125.5t-21.5 64.5q-8 10 -20.5 16.5t-29.5 6.5t-30 -6.5t-21 -16.5q-17 -21 -21 -64.5
t-4 -125.5t4 -125t21 -64q8 -10 21 -16.5t30 -6.5t29.5 6.5t20.5 16.5q17 21 21.5 64t4.5 125zM214 606v63h63v-63h-63zM76 606v63h64v-63h-64z" />
    <glyph glyph-name="divide" unicode="&#xf7;" horiz-adv-x="431" 
d="M49 248v53h334v-53h-334zM179 89v76h75v-76h-75zM179 384v75h75v-75h-75z" />
    <glyph glyph-name="oslash" unicode="&#xf8;" horiz-adv-x="347" 
d="M279 466q18 -29 24 -80t6 -132q0 -90 -7.5 -142t-30.5 -80q-33 -40 -94 -40q-42 0 -69 18l-20 -54h-46l33 87q-18 29 -24 79.5t-6 131.5q0 90 7.5 142t30.5 80q33 41 94 41q21 0 37.5 -5t30.5 -14l20 55h46zM226 447q-8 9 -20.5 15t-28.5 6q-33 0 -51 -23
q-17 -21 -21 -65t-4 -126q0 -49 1.5 -82t6.5 -53zM253 254q0 49 -1.5 82.5t-6.5 53.5l-117 -329q18 -20 49 -20q32 0 50 23q17 21 21.5 64.5t4.5 125.5z" />
    <glyph glyph-name="ugrave" unicode="&#xf9;" 
d="M58 0zM256 0v41q-5 -8 -13.5 -17t-15.5 -14q-26 -18 -58 -18q-26 0 -45 8.5t-35 25.5q-15 16 -23 39.5t-8 61.5v382h56v-383q0 -42 20.5 -62.5t49.5 -20.5t50 20.5t21 62.5v383h56v-509h-55zM165 586l-75 130h58l66 -130h-49z" />
    <glyph glyph-name="uacute" unicode="&#xfa;" 
d="M58 0zM256 0v41q-5 -8 -13.5 -17t-15.5 -14q-26 -18 -58 -18q-26 0 -45 8.5t-35 25.5q-15 16 -23 39.5t-8 61.5v382h56v-383q0 -42 20.5 -62.5t49.5 -20.5t50 20.5t21 62.5v383h56v-509h-55zM206 586h-49l65 130h58z" />
    <glyph glyph-name="ucircumflex" unicode="&#xfb;" 
d="M58 0zM256 0v41q-5 -8 -13.5 -17t-15.5 -14q-26 -18 -58 -18q-26 0 -45 8.5t-35 25.5q-15 16 -23 39.5t-8 61.5v382h56v-383q0 -42 20.5 -62.5t49.5 -20.5t50 20.5t21 62.5v383h56v-509h-55zM244 586l-60 92l-60 -92h-52l87 130h50l86 -130h-51z" />
    <glyph glyph-name="udieresis" unicode="&#xfc;" 
d="M58 0zM256 0v41q-5 -8 -13.5 -17t-15.5 -14q-26 -18 -58 -18q-26 0 -45 8.5t-35 25.5q-15 16 -23 39.5t-8 61.5v382h56v-383q0 -42 20.5 -62.5t49.5 -20.5t50 20.5t21 62.5v383h56v-509h-55zM221 606v63h63v-63h-63zM83 606v63h64v-63h-64z" />
    <glyph glyph-name="yacute" unicode="&#xfd;" horiz-adv-x="308" 
d="M4 0zM157 -99q-14 -59 -52 -81.5t-96 -22.5v50q42 0 63.5 16.5t29.5 48.5l23 90l-121 507h62l87 -420l87 420h61zM181 586h-49l65 130h58z" />
    <glyph glyph-name="thorn" unicode="&#xfe;" horiz-adv-x="366" 
d="M321 254q0 -47 -1.5 -83.5t-6 -63.5t-11.5 -46.5t-19 -32.5q-14 -17 -33.5 -26.5t-45.5 -9.5q-33 0 -58 16q-8 5 -15 13.5t-12 16.5v-241h-56v915h55v-244q4 8 12.5 17t15.5 14q25 18 58 18q47 0 79 -36q23 -27 30.5 -79.5t7.5 -147.5zM265 254q0 43 -1 74.5t-3.5 54
t-7.5 37t-14 24.5q-8 10 -20.5 16.5t-27.5 6.5q-28 0 -49 -19q-23 -23 -23 -70v-247q0 -47 23 -70q21 -19 49 -19q15 0 27.5 6t20.5 16q9 10 14 25t7.5 37t3.5 53.5t1 74.5z" />
    <glyph glyph-name="ydieresis" unicode="&#xff;" horiz-adv-x="308" 
d="M4 0zM157 -99q-14 -59 -52 -81.5t-96 -22.5v50q42 0 63.5 16.5t29.5 48.5l23 90l-121 507h62l87 -420l87 420h61zM196 606v63h63v-63h-63zM58 606v63h64v-63h-64z" />
    <glyph glyph-name="Amacron" unicode="&#x100;" horiz-adv-x="379" 
d="M4 0zM311 0l-39 195h-166l-38 -195h-64l159 712h55l156 -712h-63zM189 606l-71 -358h143zM87 785v45h212v-45h-212z" />
    <glyph glyph-name="amacron" unicode="&#x101;" horiz-adv-x="352" 
d="M37 0zM240 0v46q-5 -11 -13 -20t-15 -14q-12 -9 -26 -14.5t-35 -5.5q-48 0 -81 34q-14 15 -23.5 44t-9.5 71q0 36 10.5 65.5t32.5 49.5q19 17 42 25.5t58 8.5h58v91q0 42 -17.5 64.5t-52.5 22.5q-15 0 -26.5 -5.5t-19.5 -13.5q-12 -13 -17.5 -29t-5.5 -42h-56
q0 29 7.5 56t29.5 49q16 16 38 25t50 9q61 0 91 -32q17 -18 26 -43t9 -63v-379h-54zM238 246h-56q-20 0 -34.5 -5t-27.5 -17q-13 -13 -20 -34.5t-7 -47.5q0 -46 17 -73t54 -27q34 0 54 26t20 66v112zM67 611v45h212v-45h-212z" />
    <glyph glyph-name="Abreve" unicode="&#x102;" horiz-adv-x="379" 
d="M4 0zM311 0l-39 195h-166l-38 -195h-64l159 712h55l156 -712h-63zM189 606l-71 -358h143zM303 858q-9 -104 -110 -104q-102 0 -111 104h46q7 -60 65 -60q56 0 64 60h46z" />
    <glyph glyph-name="abreve" unicode="&#x103;" horiz-adv-x="352" 
d="M37 0zM240 0v46q-5 -11 -13 -20t-15 -14q-12 -9 -26 -14.5t-35 -5.5q-48 0 -81 34q-14 15 -23.5 44t-9.5 71q0 36 10.5 65.5t32.5 49.5q19 17 42 25.5t58 8.5h58v91q0 42 -17.5 64.5t-52.5 22.5q-15 0 -26.5 -5.5t-19.5 -13.5q-12 -13 -17.5 -29t-5.5 -42h-56
q0 29 7.5 56t29.5 49q16 16 38 25t50 9q61 0 91 -32q17 -18 26 -43t9 -63v-379h-54zM238 246h-56q-20 0 -34.5 -5t-27.5 -17q-13 -13 -20 -34.5t-7 -47.5q0 -46 17 -73t54 -27q34 0 54 26t20 66v112zM283 684q-9 -104 -110 -104t-111 104h46q7 -60 65 -60q56 0 65 60h45z
" />
    <glyph glyph-name="Aogonek" unicode="&#x104;" horiz-adv-x="379" 
d="M4 0zM311 0l-39 195h-166l-38 -195h-64l159 712h55l156 -712h-63zM189 606l-71 -358h143zM319 -171h-53l53 134h46z" />
    <glyph glyph-name="aogonek" unicode="&#x105;" horiz-adv-x="352" 
d="M37 0zM240 0v46q-5 -11 -13 -20t-15 -14q-12 -9 -26 -14.5t-35 -5.5q-48 0 -81 34q-14 15 -23.5 44t-9.5 71q0 36 10.5 65.5t32.5 49.5q19 17 42 25.5t58 8.5h58v91q0 42 -17.5 64.5t-52.5 22.5q-15 0 -26.5 -5.5t-19.5 -13.5q-12 -13 -17.5 -29t-5.5 -42h-56
q0 29 7.5 56t29.5 49q16 16 38 25t50 9q61 0 91 -32q17 -18 26 -43t9 -63v-379h-54zM238 246h-56q-20 0 -34.5 -5t-27.5 -17q-13 -13 -20 -34.5t-7 -47.5q0 -46 17 -73t54 -27q34 0 54 26t20 66v112zM245 -171h-53l53 134h46z" />
    <glyph glyph-name="Cacute" unicode="&#x106;" horiz-adv-x="399" 
d="M54 0zM358 163q-1 -42 -13 -78t-37 -59q-37 -34 -98 -34q-35 0 -61.5 11t-44.5 31q-16 17 -26 38t-15 55.5t-7 89t-2 139.5t2 139.5t7 89t15 55.5t26 38q18 20 44.5 31t61.5 11t59.5 -10t42.5 -28q23 -23 34 -57.5t12 -75.5h-59q0 27 -6 52t-22 42q-11 11 -25.5 17.5
t-35.5 6.5q-40 0 -63 -26q-11 -13 -17.5 -29.5t-10.5 -47.5t-5 -80.5t-1 -127.5t1 -127.5t5 -80.5t10.5 -47.5t17.5 -29.5q23 -26 63 -26q21 0 36 6.5t25 17.5q16 17 22 42.5t6 51.5h59zM232 764h-49l65 130h59z" />
    <glyph glyph-name="cacute" unicode="&#x107;" horiz-adv-x="340" 
d="M45 0zM303 134q-1 -36 -8.5 -62.5t-27.5 -46.5q-33 -33 -90 -33q-60 0 -94 40q-23 27 -30.5 79.5t-7.5 142.5t7.5 142.5t30.5 79.5q33 41 94 41q29 0 51 -7.5t39 -24.5q23 -22 29 -50.5t7 -60.5h-55q0 20 -3 38.5t-17 33.5q-18 21 -50 21q-34 0 -52 -23
q-17 -21 -21 -64.5t-4 -125.5t4 -125t21 -64q18 -23 52 -23q29 0 49 20q13 14 17 31.5t4 40.5h55zM199 586h-49l65 130h58z" />
    <glyph glyph-name="Ccircumflex" unicode="&#x108;" horiz-adv-x="399" 
d="M54 0zM358 163q-1 -42 -13 -78t-37 -59q-37 -34 -98 -34q-35 0 -61.5 11t-44.5 31q-16 17 -26 38t-15 55.5t-7 89t-2 139.5t2 139.5t7 89t15 55.5t26 38q18 20 44.5 31t61.5 11t59.5 -10t42.5 -28q23 -23 34 -57.5t12 -75.5h-59q0 27 -6 52t-22 42q-11 11 -25.5 17.5
t-35.5 6.5q-40 0 -63 -26q-11 -13 -17.5 -29.5t-10.5 -47.5t-5 -80.5t-1 -127.5t1 -127.5t5 -80.5t10.5 -47.5t17.5 -29.5q23 -26 63 -26q21 0 36 6.5t25 17.5q16 17 22 42.5t6 51.5h59zM270 764l-59 92l-60 -92h-52l87 130h50l86 -130h-52z" />
    <glyph glyph-name="ccircumflex" unicode="&#x109;" horiz-adv-x="340" 
d="M45 0zM303 134q-1 -36 -8.5 -62.5t-27.5 -46.5q-33 -33 -90 -33q-60 0 -94 40q-23 27 -30.5 79.5t-7.5 142.5t7.5 142.5t30.5 79.5q33 41 94 41q29 0 51 -7.5t39 -24.5q23 -22 29 -50.5t7 -60.5h-55q0 20 -3 38.5t-17 33.5q-18 21 -50 21q-34 0 -52 -23
q-17 -21 -21 -64.5t-4 -125.5t4 -125t21 -64q18 -23 52 -23q29 0 49 20q13 14 17 31.5t4 40.5h55zM237 586l-60 92l-60 -92h-52l87 130h50l86 -130h-51z" />
    <glyph glyph-name="Cdotaccent" unicode="&#x10a;" horiz-adv-x="399" 
d="M54 0zM358 163q-1 -42 -13 -78t-37 -59q-37 -34 -98 -34q-35 0 -61.5 11t-44.5 31q-16 17 -26 38t-15 55.5t-7 89t-2 139.5t2 139.5t7 89t15 55.5t26 38q18 20 44.5 31t61.5 11t59.5 -10t42.5 -28q23 -23 34 -57.5t12 -75.5h-59q0 27 -6 52t-22 42q-11 11 -25.5 17.5
t-35.5 6.5q-40 0 -63 -26q-11 -13 -17.5 -29.5t-10.5 -47.5t-5 -80.5t-1 -127.5t1 -127.5t5 -80.5t10.5 -47.5t17.5 -29.5q23 -26 63 -26q21 0 36 6.5t25 17.5q16 17 22 42.5t6 51.5h59zM179 784v63h63v-63h-63z" />
    <glyph glyph-name="cdotaccent" unicode="&#x10b;" horiz-adv-x="340" 
d="M45 0zM303 134q-1 -36 -8.5 -62.5t-27.5 -46.5q-33 -33 -90 -33q-60 0 -94 40q-23 27 -30.5 79.5t-7.5 142.5t7.5 142.5t30.5 79.5q33 41 94 41q29 0 51 -7.5t39 -24.5q23 -22 29 -50.5t7 -60.5h-55q0 20 -3 38.5t-17 33.5q-18 21 -50 21q-34 0 -52 -23
q-17 -21 -21 -64.5t-4 -125.5t4 -125t21 -64q18 -23 52 -23q29 0 49 20q13 14 17 31.5t4 40.5h55zM145 610v63h63v-63h-63z" />
    <glyph glyph-name="Ccaron" unicode="&#x10c;" horiz-adv-x="399" 
d="M54 0zM358 163q-1 -42 -13 -78t-37 -59q-37 -34 -98 -34q-35 0 -61.5 11t-44.5 31q-16 17 -26 38t-15 55.5t-7 89t-2 139.5t2 139.5t7 89t15 55.5t26 38q18 20 44.5 31t61.5 11t59.5 -10t42.5 -28q23 -23 34 -57.5t12 -75.5h-59q0 27 -6 52t-22 42q-11 11 -25.5 17.5
t-35.5 6.5q-40 0 -63 -26q-11 -13 -17.5 -29.5t-10.5 -47.5t-5 -80.5t-1 -127.5t1 -127.5t5 -80.5t10.5 -47.5t17.5 -29.5q23 -26 63 -26q21 0 36 6.5t25 17.5q16 17 22 42.5t6 51.5h59zM236 758h-50l-87 129h52l60 -91l59 91h52z" />
    <glyph glyph-name="ccaron" unicode="&#x10d;" horiz-adv-x="340" 
d="M45 0zM303 134q-1 -36 -8.5 -62.5t-27.5 -46.5q-33 -33 -90 -33q-60 0 -94 40q-23 27 -30.5 79.5t-7.5 142.5t7.5 142.5t30.5 79.5q33 41 94 41q29 0 51 -7.5t39 -24.5q23 -22 29 -50.5t7 -60.5h-55q0 20 -3 38.5t-17 33.5q-18 21 -50 21q-34 0 -52 -23
q-17 -21 -21 -64.5t-4 -125.5t4 -125t21 -64q18 -23 52 -23q29 0 49 20q13 14 17 31.5t4 40.5h55zM202 580h-50l-87 129h52l60 -91l60 91h51z" />
    <glyph glyph-name="Dcaron" unicode="&#x10e;" horiz-adv-x="424" 
d="M69 0zM371 356q0 -83 -2 -136.5t-7 -87.5t-15 -54t-26 -37q-18 -19 -44.5 -30t-61.5 -11h-146v712h146q35 0 61.5 -11t44.5 -30q16 -17 26 -37t15 -54t7 -87.5t2 -136.5zM312 356q0 76 -1 124.5t-5 78.5t-10.5 46.5t-18.5 28.5q-22 25 -65 25h-84v-606h84q43 0 65 25
q12 12 18.5 28.5t10.5 46.5t5 78.5t1 124.5zM236 758h-50l-87 129h52l60 -91l59 91h52z" />
    <glyph glyph-name="dcaron" unicode="&#x10f;" horiz-adv-x="365" 
d="M45 0zM248 0v41q-4 -8 -12.5 -17t-15.5 -14q-26 -18 -58 -18q-48 0 -79 36q-23 26 -30.5 78.5t-7.5 147.5q0 48 1.5 84t6 63t11.5 46.5t19 33.5q14 17 33 26.5t46 9.5q36 0 58 -16q7 -5 14.5 -13.5t12.5 -16.5v241h56v-712h-55zM247 378q0 47 -23 70q-21 19 -49 19
q-15 0 -27.5 -6.5t-20.5 -16.5q-9 -10 -14 -24.5t-7.5 -37t-3.5 -54t-1 -74.5t1 -74.5t3.5 -53.5t7.5 -37t14 -25q8 -10 20.5 -16t27.5 -6q28 0 49 19q23 23 23 70v247zM393 586h-44l21 134h53z" />
    <glyph glyph-name="Dcroat" unicode="&#x110;" horiz-adv-x="429" 
d="M375 356q0 -81 -1.5 -133.5t-6.5 -87t-15 -55.5t-27 -39q-18 -19 -44 -30t-61 -11h-147v332h-53v49h53v331h147q35 0 61 -11t44 -30q17 -18 27 -39t15 -55.5t6.5 -87t1.5 -133.5zM316 356q0 76 -1 124.5t-5 78.5t-10.5 46t-18.5 29q-11 11 -27 18t-37 7h-85v-278h91v-49
h-91v-279h85q21 0 37 7t27 18q12 13 18.5 29t10.5 46t5 78t1 125z" />
    <glyph glyph-name="dcroat" unicode="&#x111;" horiz-adv-x="377" 
d="M248 0v41q-4 -8 -12.5 -17t-15.5 -14q-26 -18 -58 -18q-48 0 -79 36q-23 26 -30.5 78.5t-7.5 147.5q0 48 1.5 84t6 63t11.5 46.5t19 33.5q14 17 33 26.5t46 9.5q36 0 58 -16q7 -5 14.5 -13.5t12.5 -16.5v113h-90v42h90v86h56v-86h58v-42h-58v-584h-55zM247 378
q0 47 -23 70q-21 19 -49 19q-15 0 -27.5 -6.5t-20.5 -16.5q-9 -10 -14 -24.5t-7.5 -37t-3.5 -54t-1 -74.5t1 -74.5t3.5 -53.5t7.5 -37t14 -25q8 -10 20.5 -16t27.5 -6q28 0 49 19q23 23 23 70v247z" />
    <glyph glyph-name="Emacron" unicode="&#x112;" horiz-adv-x="364" 
d="M69 0zM69 0v712h248v-53h-189v-276h163v-53h-163v-277h189v-53h-248zM93 785v45h212v-45h-212z" />
    <glyph glyph-name="emacron" unicode="&#x113;" horiz-adv-x="349" 
d="M45 0zM101 246q0 -78 4.5 -119.5t21.5 -61.5q8 -10 21 -16.5t30 -6.5q15 0 28.5 4.5t23.5 15.5q22 23 22 72h55q0 -37 -8.5 -62t-28.5 -45q-34 -35 -92 -35q-57 0 -92 37q-25 27 -33 80.5t-8 144.5q0 92 7.5 145t33.5 81q34 37 91 37t91 -37q25 -28 33 -82.5t8 -151.5
h-208zM253 291q-1 66 -6 101t-20 52q-8 10 -20.5 16.5t-29.5 6.5t-30 -6.5t-21 -16.5q-15 -17 -19.5 -52t-5.5 -101h152zM71 611v45h212v-45h-212z" />
    <glyph glyph-name="Ebreve" unicode="&#x114;" horiz-adv-x="364" 
d="M69 0zM69 0v712h248v-53h-189v-276h163v-53h-163v-277h189v-53h-248zM310 858q-9 -104 -110 -104q-102 0 -111 104h46q7 -60 65 -60q56 0 64 60h46z" />
    <glyph glyph-name="ebreve" unicode="&#x115;" horiz-adv-x="349" 
d="M45 0zM101 246q0 -78 4.5 -119.5t21.5 -61.5q8 -10 21 -16.5t30 -6.5q15 0 28.5 4.5t23.5 15.5q22 23 22 72h55q0 -37 -8.5 -62t-28.5 -45q-34 -35 -92 -35q-57 0 -92 37q-25 27 -33 80.5t-8 144.5q0 92 7.5 145t33.5 81q34 37 91 37t91 -37q25 -28 33 -82.5t8 -151.5
h-208zM253 291q-1 66 -6 101t-20 52q-8 10 -20.5 16.5t-29.5 6.5t-30 -6.5t-21 -16.5q-15 -17 -19.5 -52t-5.5 -101h152zM288 684q-9 -104 -110 -104t-111 104h46q7 -60 65 -60q56 0 65 60h45z" />
    <glyph glyph-name="Edotaccent" unicode="&#x116;" horiz-adv-x="364" 
d="M69 0zM69 0v712h248v-53h-189v-276h163v-53h-163v-277h189v-53h-248zM167 784v63h63v-63h-63z" />
    <glyph glyph-name="edotaccent" unicode="&#x117;" horiz-adv-x="349" 
d="M45 0zM101 246q0 -78 4.5 -119.5t21.5 -61.5q8 -10 21 -16.5t30 -6.5q15 0 28.5 4.5t23.5 15.5q22 23 22 72h55q0 -37 -8.5 -62t-28.5 -45q-34 -35 -92 -35q-57 0 -92 37q-25 27 -33 80.5t-8 144.5q0 92 7.5 145t33.5 81q34 37 91 37t91 -37q25 -28 33 -82.5t8 -151.5
h-208zM253 291q-1 66 -6 101t-20 52q-8 10 -20.5 16.5t-29.5 6.5t-30 -6.5t-21 -16.5q-15 -17 -19.5 -52t-5.5 -101h152zM145 610v63h63v-63h-63z" />
    <glyph glyph-name="Eogonek" unicode="&#x118;" horiz-adv-x="364" 
d="M69 0zM69 0v712h248v-53h-189v-276h163v-53h-163v-277h189v-53h-248zM254 -171h-53l53 134h46z" />
    <glyph glyph-name="eogonek" unicode="&#x119;" horiz-adv-x="349" 
d="M45 0zM101 246q0 -78 4.5 -119.5t21.5 -61.5q8 -10 21 -16.5t30 -6.5q15 0 28.5 4.5t23.5 15.5q22 23 22 72h55q0 -37 -8.5 -62t-28.5 -45q-34 -35 -92 -35q-57 0 -92 37q-25 27 -33 80.5t-8 144.5q0 92 7.5 145t33.5 81q34 37 91 37t91 -37q25 -28 33 -82.5t8 -151.5
h-208zM253 291q-1 66 -6 101t-20 52q-8 10 -20.5 16.5t-29.5 6.5t-30 -6.5t-21 -16.5q-15 -17 -19.5 -52t-5.5 -101h152zM203 -171h-53l53 134h46z" />
    <glyph glyph-name="Ecaron" unicode="&#x11a;" horiz-adv-x="364" 
d="M69 0zM69 0v712h248v-53h-189v-276h163v-53h-163v-277h189v-53h-248zM224 758h-50l-87 129h52l60 -91l59 91h52z" />
    <glyph glyph-name="ecaron" unicode="&#x11b;" horiz-adv-x="349" 
d="M45 0zM101 246q0 -78 4.5 -119.5t21.5 -61.5q8 -10 21 -16.5t30 -6.5q15 0 28.5 4.5t23.5 15.5q22 23 22 72h55q0 -37 -8.5 -62t-28.5 -45q-34 -35 -92 -35q-57 0 -92 37q-25 27 -33 80.5t-8 144.5q0 92 7.5 145t33.5 81q34 37 91 37t91 -37q25 -28 33 -82.5t8 -151.5
h-208zM253 291q-1 66 -6 101t-20 52q-8 10 -20.5 16.5t-29.5 6.5t-30 -6.5t-21 -16.5q-15 -17 -19.5 -52t-5.5 -101h152zM202 580h-50l-87 129h52l60 -91l60 91h51z" />
    <glyph glyph-name="Gcircumflex" unicode="&#x11c;" horiz-adv-x="412" 
d="M54 0zM358 152q0 -40 -12 -70t-32.5 -50t-47 -30t-56.5 -10q-35 0 -61.5 11t-44.5 31q-16 17 -26 38t-15 55.5t-7 89t-2 139.5t2 139.5t7 89t15 55.5t26 38q18 20 44.5 31t61.5 11t60.5 -10.5t43.5 -28.5q23 -24 33 -57.5t11 -74.5h-59q0 21 -4 42.5t-13.5 38t-27 27
t-44.5 10.5q-40 0 -63 -26q-11 -13 -17.5 -29.5t-10.5 -47.5t-5 -80.5t-1 -127.5t1 -127.5t5 -80.5t10.5 -47.5t17.5 -29.5q23 -26 63 -26q39 0 64 28t25 79v175h-89v50h148v-225zM270 764l-59 92l-60 -92h-52l87 130h50l86 -130h-52z" />
    <glyph glyph-name="gcircumflex" unicode="&#x11d;" horiz-adv-x="365" 
d="M45 0zM303 -15q0 -32 -2 -55.5t-6.5 -41t-11.5 -31t-18 -25.5q-16 -17 -39.5 -27t-51.5 -10q-27 0 -51 8.5t-41 25.5q-20 20 -27.5 46t-7.5 61h55q0 -23 4 -41t18 -32q18 -19 49 -19q17 0 29.5 6t20.5 16q14 15 19 42.5t5 75.5v65q-5 -8 -12 -16t-15 -13
q-12 -8 -25.5 -12.5t-31.5 -4.5q-48 0 -79 35q-12 13 -19.5 31.5t-12 44.5t-6 62t-1.5 84t1.5 84t6 62t12 44t19.5 31q31 36 79 36q18 0 32 -4.5t26 -12.5q17 -12 27 -30v39h55v-524zM247 378q0 47 -23 70q-21 19 -49 19q-15 0 -27.5 -6.5t-20.5 -16.5q-9 -10 -14 -24.5
t-7.5 -36t-3.5 -52t-1 -72.5t1 -72.5t3.5 -52.5t7.5 -36t14 -24q8 -10 20.5 -16t27.5 -6q32 0 49 18q11 13 17 29t6 42v237zM237 586l-60 92l-60 -92h-52l87 130h50l86 -130h-51z" />
    <glyph glyph-name="Gbreve" unicode="&#x11e;" horiz-adv-x="412" 
d="M54 0zM358 152q0 -40 -12 -70t-32.5 -50t-47 -30t-56.5 -10q-35 0 -61.5 11t-44.5 31q-16 17 -26 38t-15 55.5t-7 89t-2 139.5t2 139.5t7 89t15 55.5t26 38q18 20 44.5 31t61.5 11t60.5 -10.5t43.5 -28.5q23 -24 33 -57.5t11 -74.5h-59q0 21 -4 42.5t-13.5 38t-27 27
t-44.5 10.5q-40 0 -63 -26q-11 -13 -17.5 -29.5t-10.5 -47.5t-5 -80.5t-1 -127.5t1 -127.5t5 -80.5t10.5 -47.5t17.5 -29.5q23 -26 63 -26q39 0 64 28t25 79v175h-89v50h148v-225zM321 858q-9 -104 -110 -104q-102 0 -111 104h46q7 -60 65 -60q56 0 64 60h46z" />
    <glyph glyph-name="gbreve" unicode="&#x11f;" horiz-adv-x="365" 
d="M45 0zM303 -15q0 -32 -2 -55.5t-6.5 -41t-11.5 -31t-18 -25.5q-16 -17 -39.5 -27t-51.5 -10q-27 0 -51 8.5t-41 25.5q-20 20 -27.5 46t-7.5 61h55q0 -23 4 -41t18 -32q18 -19 49 -19q17 0 29.5 6t20.5 16q14 15 19 42.5t5 75.5v65q-5 -8 -12 -16t-15 -13
q-12 -8 -25.5 -12.5t-31.5 -4.5q-48 0 -79 35q-12 13 -19.5 31.5t-12 44.5t-6 62t-1.5 84t1.5 84t6 62t12 44t19.5 31q31 36 79 36q18 0 32 -4.5t26 -12.5q17 -12 27 -30v39h55v-524zM247 378q0 47 -23 70q-21 19 -49 19q-15 0 -27.5 -6.5t-20.5 -16.5q-9 -10 -14 -24.5
t-7.5 -36t-3.5 -52t-1 -72.5t1 -72.5t3.5 -52.5t7.5 -36t14 -24q8 -10 20.5 -16t27.5 -6q32 0 49 18q11 13 17 29t6 42v237zM287 684q-9 -104 -110 -104t-111 104h46q7 -60 65 -60q56 0 65 60h45z" />
    <glyph glyph-name="Gdotaccent" unicode="&#x120;" horiz-adv-x="412" 
d="M54 0zM358 152q0 -40 -12 -70t-32.5 -50t-47 -30t-56.5 -10q-35 0 -61.5 11t-44.5 31q-16 17 -26 38t-15 55.5t-7 89t-2 139.5t2 139.5t7 89t15 55.5t26 38q18 20 44.5 31t61.5 11t60.5 -10.5t43.5 -28.5q23 -24 33 -57.5t11 -74.5h-59q0 21 -4 42.5t-13.5 38t-27 27
t-44.5 10.5q-40 0 -63 -26q-11 -13 -17.5 -29.5t-10.5 -47.5t-5 -80.5t-1 -127.5t1 -127.5t5 -80.5t10.5 -47.5t17.5 -29.5q23 -26 63 -26q39 0 64 28t25 79v175h-89v50h148v-225zM179 784v63h63v-63h-63z" />
    <glyph glyph-name="gdotaccent" unicode="&#x121;" horiz-adv-x="365" 
d="M45 0zM303 -15q0 -32 -2 -55.5t-6.5 -41t-11.5 -31t-18 -25.5q-16 -17 -39.5 -27t-51.5 -10q-27 0 -51 8.5t-41 25.5q-20 20 -27.5 46t-7.5 61h55q0 -23 4 -41t18 -32q18 -19 49 -19q17 0 29.5 6t20.5 16q14 15 19 42.5t5 75.5v65q-5 -8 -12 -16t-15 -13
q-12 -8 -25.5 -12.5t-31.5 -4.5q-48 0 -79 35q-12 13 -19.5 31.5t-12 44.5t-6 62t-1.5 84t1.5 84t6 62t12 44t19.5 31q31 36 79 36q18 0 32 -4.5t26 -12.5q17 -12 27 -30v39h55v-524zM247 378q0 47 -23 70q-21 19 -49 19q-15 0 -27.5 -6.5t-20.5 -16.5q-9 -10 -14 -24.5
t-7.5 -36t-3.5 -52t-1 -72.5t1 -72.5t3.5 -52.5t7.5 -36t14 -24q8 -10 20.5 -16t27.5 -6q32 0 49 18q11 13 17 29t6 42v237zM145 610v63h63v-63h-63z" />
    <glyph glyph-name="Gcommaaccent" unicode="&#x122;" horiz-adv-x="412" 
d="M54 0zM358 152q0 -40 -12 -70t-32.5 -50t-47 -30t-56.5 -10q-35 0 -61.5 11t-44.5 31q-16 17 -26 38t-15 55.5t-7 89t-2 139.5t2 139.5t7 89t15 55.5t26 38q18 20 44.5 31t61.5 11t60.5 -10.5t43.5 -28.5q23 -24 33 -57.5t11 -74.5h-59q0 21 -4 42.5t-13.5 38t-27 27
t-44.5 10.5q-40 0 -63 -26q-11 -13 -17.5 -29.5t-10.5 -47.5t-5 -80.5t-1 -127.5t1 -127.5t5 -80.5t10.5 -47.5t17.5 -29.5q23 -26 63 -26q39 0 64 28t25 79v175h-89v50h148v-225zM190 -171h-53l53 134h46z" />
    <glyph glyph-name="gcommaaccent" unicode="&#x123;" horiz-adv-x="365" 
d="M45 0zM303 -15q0 -32 -2 -55.5t-6.5 -41t-11.5 -31t-18 -25.5q-16 -17 -39.5 -27t-51.5 -10q-27 0 -51 8.5t-41 25.5q-20 20 -27.5 46t-7.5 61h55q0 -23 4 -41t18 -32q18 -19 49 -19q17 0 29.5 6t20.5 16q14 15 19 42.5t5 75.5v65q-5 -8 -12 -16t-15 -13
q-12 -8 -25.5 -12.5t-31.5 -4.5q-48 0 -79 35q-12 13 -19.5 31.5t-12 44.5t-6 62t-1.5 84t1.5 84t6 62t12 44t19.5 31q31 36 79 36q18 0 32 -4.5t26 -12.5q17 -12 27 -30v39h55v-524zM247 378q0 47 -23 70q-21 19 -49 19q-15 0 -27.5 -6.5t-20.5 -16.5q-9 -10 -14 -24.5
t-7.5 -36t-3.5 -52t-1 -72.5t1 -72.5t3.5 -52.5t7.5 -36t14 -24q8 -10 20.5 -16t27.5 -6q32 0 49 18q11 13 17 29t6 42v237zM199 720h53l-53 -134h-46z" />
    <glyph glyph-name="Hcircumflex" unicode="&#x124;" horiz-adv-x="432" 
d="M69 0zM304 0v336h-176v-336h-59v712h59v-323h176v323h59v-712h-59zM275 764l-59 92l-60 -92h-52l87 130h50l86 -130h-52z" />
    <glyph glyph-name="hcircumflex" unicode="&#x125;" 
d="M0 0zM259 0v383q0 40 -19.5 61.5t-50.5 21.5t-51 -21.5t-20 -61.5v-383h-56v712h56v-243q4 8 12.5 16.5t15.5 13.5q26 18 58 18q26 0 45 -9t35 -26q15 -16 23 -39t8 -61v-382h-56zM152 764l-60 92l-60 -92h-52l87 130h50l86 -130h-51z" />
    <glyph glyph-name="Hbar" unicode="&#x126;" horiz-adv-x="442" 
d="M368 520v-520h-59v335h-176v-335h-60v520h-50v48h50v144h60v-144h176v144h59v-144h51v-48h-51zM309 520h-176v-131h176v131z" />
    <glyph glyph-name="hbar" unicode="&#x127;" horiz-adv-x="387" 
d="M273 0v383q0 40 -19.5 61.5t-50.5 21.5t-51 -21.5t-20 -61.5v-383h-56v584h-60v42h60v86h56v-86h87v-42h-87v-115q4 8 12.5 16.5t15.5 13.5q26 18 58 18q26 0 45 -9t35 -26q15 -16 23 -39t8 -61v-382h-56z" />
    <glyph glyph-name="Itilde" unicode="&#x128;" horiz-adv-x="197" 
d="M0 0zM69 0v712h59v-712h-59zM219 813q-26 -25 -41.5 -31.5t-29.5 -6.5q-16 0 -28 4.5t-26 12.5q-11 7 -21 11.5t-21 4.5q-9 0 -17.5 -3.5t-25.5 -20.5l-28 29q25 25 40.5 31.5t29.5 6.5q17 0 28.5 -4.5t25.5 -12.5q11 -7 21 -11.5t21 -4.5q8 0 17 3.5t26 20.5z" />
    <glyph glyph-name="itilde" unicode="&#x129;" horiz-adv-x="181" 
d="M0 0zM63 0v509h56v-509h-56zM212 635q-26 -25 -41.5 -31.5t-29.5 -6.5q-16 0 -28 4.5t-26 12.5q-11 7 -21 11.5t-21 4.5q-9 0 -17.5 -3.5t-25.5 -20.5l-28 29q25 25 40.5 31.5t29.5 6.5q17 0 28.5 -4.5t25.5 -12.5q11 -7 21 -11.5t21 -4.5q8 0 17 3.5t26 20.5z" />
    <glyph glyph-name="Imacron" unicode="&#x12a;" horiz-adv-x="197" 
d="M0 0zM69 0v712h59v-712h-59zM-6 785v45h212v-45h-212z" />
    <glyph glyph-name="imacron" unicode="&#x12b;" horiz-adv-x="181" 
d="M0 0zM63 0v509h56v-509h-56zM-14 611v45h212v-45h-212z" />
    <glyph glyph-name="Ibreve" unicode="&#x12c;" horiz-adv-x="197" 
d="M0 0zM69 0v712h59v-712h-59zM211 858q-9 -104 -110 -104q-102 0 -111 104h46q7 -60 65 -60q56 0 64 60h46z" />
    <glyph glyph-name="ibreve" unicode="&#x12d;" horiz-adv-x="181" 
d="M0 0zM63 0v509h56v-509h-56zM203 684q-9 -104 -110 -104t-111 104h46q7 -60 65 -60q56 0 65 60h45z" />
    <glyph glyph-name="Iogonek" unicode="&#x12e;" horiz-adv-x="197" 
d="M29 0zM69 0v712h59v-712h-59zM82 -171h-53l53 134h46z" />
    <glyph glyph-name="iogonek" unicode="&#x12f;" horiz-adv-x="181" 
d="M20 0zM62 0v509h56v-509h-56zM54 626v72h72v-72h-72zM73 -171h-53l53 134h46z" />
    <glyph glyph-name="Idotaccent" unicode="&#x130;" horiz-adv-x="197" 
d="M68 0zM69 0v712h59v-712h-59zM68 784v63h63v-63h-63z" />
    <glyph glyph-name="dotlessi" unicode="&#x131;" horiz-adv-x="181" 
d="M63 0v509h56v-509h-56z" />
    <glyph glyph-name="IJ" unicode="&#x132;" horiz-adv-x="529" 
d="M69 0zM69 0v712h59v-712h-59zM468 153q0 -78 -42 -120q-21 -21 -48.5 -31t-59.5 -10q-71 0 -113 50l43 39q12 -17 30 -26.5t40 -9.5q38 0 64.5 27t26.5 81v559h59v-559z" />
    <glyph glyph-name="ij" unicode="&#x133;" horiz-adv-x="362" 
d="M54 0zM62 0v509h56v-509h-56zM54 626v72h72v-72h-72zM299 -68q0 -38 -10 -62t-28 -41q-21 -20 -46.5 -26t-54.5 -6v50q38 0 60.5 19t22.5 67v576h56v-577zM235 626v72h72v-72h-72z" />
    <glyph glyph-name="Jcircumflex" unicode="&#x134;" horiz-adv-x="332" 
d="M8 0zM271 153q0 -78 -42 -120q-21 -21 -48.5 -31t-59.5 -10q-71 0 -113 50l43 39q12 -17 30 -26.5t40 -9.5q38 0 64.5 27t26.5 81v559h59v-559zM301 764l-59 92l-60 -92h-52l87 130h50l86 -130h-52z" />
    <glyph glyph-name="jcircumflex" unicode="&#x135;" horiz-adv-x="181" 
d="M0 0zM118 -67q0 -39 -10.5 -63.5t-27.5 -40.5q-21 -20 -46.5 -26t-54.5 -6v50q39 0 61 19t22 67v576h56v-576zM152 586l-60 92l-60 -92h-52l87 130h50l86 -130h-51z" />
    <glyph glyph-name="Kcommaaccent" unicode="&#x136;" horiz-adv-x="409" 
d="M69 0zM335 0l-138 352l-69 -136v-216h-59v712h59v-387l189 387h63l-146 -294l165 -418h-64zM201 -171h-53l53 134h46z" />
    <glyph glyph-name="kcommaaccent" unicode="&#x137;" 
d="M62 0zM295 0l-110 265l-67 -106v-159h-56v712h56v-470l161 267h61l-120 -195l137 -314h-62zM181 -171h-53l53 134h46z" />
    <glyph glyph-name="kgreenlandic" unicode="&#x138;" 
d="M295 0l-110 265l-67 -106v-159h-56v509h56v-267l161 267h61l-120 -195l137 -314h-62z" />
    <glyph glyph-name="Lacute" unicode="&#x139;" horiz-adv-x="339" 
d="M69 0zM69 0v712h59v-659h189v-53h-248zM121 764h-49l65 130h59z" />
    <glyph glyph-name="lacute" unicode="&#x13a;" horiz-adv-x="212" 
d="M57 0zM196 0q-29 0 -54.5 6t-46.5 26q-18 17 -28 41.5t-10 62.5v576h56v-576q0 -42 20.5 -64t62.5 -22v-50zM108 760h-49l65 130h58z" />
    <glyph glyph-name="Lcommaaccent" unicode="&#x13b;" horiz-adv-x="339" 
d="M69 0zM69 0v712h59v-659h189v-53h-248zM182 -171h-53l53 134h46z" />
    <glyph glyph-name="lcommaaccent" unicode="&#x13c;" horiz-adv-x="212" 
d="M57 0zM196 0q-29 0 -54.5 6t-46.5 26q-18 17 -28 41.5t-10 62.5v576h56v-576q0 -42 20.5 -64t62.5 -22v-50zM118 -171h-53l53 134h46z" />
    <glyph glyph-name="Lcaron" unicode="&#x13d;" horiz-adv-x="339" 
d="M69 0zM69 0v712h59v-659h189v-53h-248zM237 579h-44l21 134h53z" />
    <glyph glyph-name="lcaron" unicode="&#x13e;" horiz-adv-x="212" 
d="M57 0zM196 0q-29 0 -54.5 6t-46.5 26q-18 17 -28 41.5t-10 62.5v576h56v-576q0 -42 20.5 -64t62.5 -22v-50zM204 586h-44l21 134h53z" />
    <glyph glyph-name="Ldot" unicode="&#x13f;" horiz-adv-x="339" 
d="M69 0zM69 0v712h59v-659h189v-53h-248zM238 325v63h63v-63h-63z" />
    <glyph glyph-name="ldot" unicode="&#x140;" horiz-adv-x="208" 
d="M57 0zM196 0q-29 0 -54.5 6t-46.5 26q-18 17 -28 41.5t-10 62.5v576h56v-576q0 -42 20.5 -64t62.5 -22v-50zM160 275v63h63v-63h-63z" />
    <glyph glyph-name="Lslash" unicode="&#x141;" horiz-adv-x="341" 
d="M70 0v294l-50 -47v64l50 48v353h59v-300l95 90v-64l-95 -91v-294h189v-53h-248z" />
    <glyph glyph-name="lslash" unicode="&#x142;" horiz-adv-x="238" 
d="M218 0q-29 0 -54.5 6t-46.5 26q-18 17 -28 41.5t-10 62.5v184l-62 -64v63l62 64v329h56v-276l63 66v-63l-63 -66v-237q0 -42 20.5 -64t62.5 -22v-50z" />
    <glyph glyph-name="Nacute" unicode="&#x143;" horiz-adv-x="454" 
d="M69 0zM327 0l-199 555v-555h-59v712h59l198 -555v555h59v-712h-58zM248 764h-49l65 130h59z" />
    <glyph glyph-name="nacute" unicode="&#x144;" 
d="M62 0zM259 0v383q0 42 -20.5 62.5t-49.5 20.5t-50 -20.5t-21 -62.5v-383h-56v509h55v-41q5 8 13.5 17t15.5 14q26 18 58 18q26 0 45 -9t35 -26q15 -16 23 -39t8 -61v-382h-56zM212 586h-49l65 130h58z" />
    <glyph glyph-name="Ncommaaccent" unicode="&#x145;" horiz-adv-x="454" 
d="M69 0zM327 0l-199 555v-555h-59v712h59l198 -555v555h59v-712h-58zM201 -171h-53l53 134h46z" />
    <glyph glyph-name="ncommaaccent" unicode="&#x146;" 
d="M62 0zM259 0v383q0 42 -20.5 62.5t-49.5 20.5t-50 -20.5t-21 -62.5v-383h-56v509h55v-41q5 8 13.5 17t15.5 14q26 18 58 18q26 0 45 -9t35 -26q15 -16 23 -39t8 -61v-382h-56zM173 -171h-53l53 134h46z" />
    <glyph glyph-name="Ncaron" unicode="&#x147;" horiz-adv-x="454" 
d="M69 0zM327 0l-199 555v-555h-59v712h59l198 -555v555h59v-712h-58zM252 758h-50l-87 129h52l60 -91l59 91h52z" />
    <glyph glyph-name="ncaron" unicode="&#x148;" 
d="M62 0zM259 0v383q0 42 -20.5 62.5t-49.5 20.5t-50 -20.5t-21 -62.5v-383h-56v509h55v-41q5 8 13.5 17t15.5 14q26 18 58 18q26 0 45 -9t35 -26q15 -16 23 -39t8 -61v-382h-56zM215 580h-50l-87 129h52l60 -91l60 91h51z" />
    <glyph glyph-name="napostrophe" unicode="&#x149;" horiz-adv-x="383" 
d="M1 0zM269 0v383q0 42 -20.5 62.5t-49.5 20.5t-50 -20.5t-21 -62.5v-383h-56v509h55v-41q5 8 13.5 17t15.5 14q26 18 58 18q26 0 45 -9t35 -26q15 -16 23 -39t8 -61v-382h-56zM1 568v152h52v-112z" />
    <glyph glyph-name="Eng" unicode="&#x14a;" horiz-adv-x="454" 
d="M246 -120q38 1 59.5 19.5t21.5 66.5v34l-199 555v-555h-59v712h59l198 -555v555h59v-746q0 -39 -10.5 -63.5t-27.5 -40.5q-21 -20 -46.5 -26t-54.5 -6v50z" />
    <glyph glyph-name="eng" unicode="&#x14b;" 
d="M315 -35q0 -39 -10.5 -63.5t-27.5 -40.5q-21 -20 -46.5 -26t-54.5 -6v50q39 0 61 19t22 67v418q0 42 -20.5 62.5t-49.5 20.5t-50 -20.5t-21 -62.5v-383h-56v509h55v-41q5 8 13.5 17t15.5 14q26 18 58 18q26 0 45 -9t35 -26q15 -16 23 -39t8 -61v-417z" />
    <glyph glyph-name="Omacron" unicode="&#x14c;" horiz-adv-x="421" 
d="M54 0zM367 356q0 -85 -2 -139.5t-7 -89t-15 -55.5t-26 -38q-18 -20 -45 -31t-62 -11t-61.5 11t-44.5 31q-16 17 -26 38t-15 55.5t-7 89t-2 139.5t2 139.5t7 89t15 55.5t26 38q18 20 44.5 31t61.5 11t62 -11t45 -31q16 -17 26 -38t15 -55.5t7 -89t2 -139.5zM308 356
q0 78 -1 127.5t-5 80.5t-10.5 47.5t-17.5 29.5q-23 26 -64 26q-40 0 -63 -26q-11 -13 -17.5 -29.5t-10.5 -47.5t-5 -80.5t-1 -127.5t1 -127.5t5 -80.5t10.5 -47.5t17.5 -29.5q23 -26 63 -26q21 0 37 7t27 19q11 13 17.5 29.5t10.5 47.5t5 80.5t1 127.5zM105 785v45h212v-45
h-212z" />
    <glyph glyph-name="omacron" unicode="&#x14d;" horiz-adv-x="353" 
d="M45 0zM309 254q0 -90 -7.5 -142t-30.5 -80q-33 -40 -94 -40t-94 40q-23 28 -30.5 80t-7.5 142t7.5 142t30.5 80q33 41 94 41t94 -41q23 -28 30.5 -80t7.5 -142zM253 254q0 82 -4.5 125.5t-21.5 64.5q-8 10 -20.5 16.5t-29.5 6.5t-30 -6.5t-21 -16.5q-17 -21 -21 -64.5
t-4 -125.5t4 -125t21 -64q8 -10 21 -16.5t30 -6.5t29.5 6.5t20.5 16.5q17 21 21.5 64t4.5 125zM71 611v45h212v-45h-212z" />
    <glyph glyph-name="Obreve" unicode="&#x14e;" horiz-adv-x="421" 
d="M54 0zM367 356q0 -85 -2 -139.5t-7 -89t-15 -55.5t-26 -38q-18 -20 -45 -31t-62 -11t-61.5 11t-44.5 31q-16 17 -26 38t-15 55.5t-7 89t-2 139.5t2 139.5t7 89t15 55.5t26 38q18 20 44.5 31t61.5 11t62 -11t45 -31q16 -17 26 -38t15 -55.5t7 -89t2 -139.5zM308 356
q0 78 -1 127.5t-5 80.5t-10.5 47.5t-17.5 29.5q-23 26 -64 26q-40 0 -63 -26q-11 -13 -17.5 -29.5t-10.5 -47.5t-5 -80.5t-1 -127.5t1 -127.5t5 -80.5t10.5 -47.5t17.5 -29.5q23 -26 63 -26q21 0 37 7t27 19q11 13 17.5 29.5t10.5 47.5t5 80.5t1 127.5zM322 858
q-9 -104 -110 -104q-102 0 -111 104h46q7 -60 65 -60q56 0 64 60h46z" />
    <glyph glyph-name="obreve" unicode="&#x14f;" horiz-adv-x="353" 
d="M45 0zM309 254q0 -90 -7.5 -142t-30.5 -80q-33 -40 -94 -40t-94 40q-23 28 -30.5 80t-7.5 142t7.5 142t30.5 80q33 41 94 41t94 -41q23 -28 30.5 -80t7.5 -142zM253 254q0 82 -4.5 125.5t-21.5 64.5q-8 10 -20.5 16.5t-29.5 6.5t-30 -6.5t-21 -16.5q-17 -21 -21 -64.5
t-4 -125.5t4 -125t21 -64q8 -10 21 -16.5t30 -6.5t29.5 6.5t20.5 16.5q17 21 21.5 64t4.5 125zM288 684q-9 -104 -110 -104t-111 104h46q7 -60 65 -60q56 0 65 60h45z" />
    <glyph glyph-name="Ohungarumlaut" unicode="&#x150;" horiz-adv-x="421" 
d="M54 0zM367 356q0 -85 -2 -139.5t-7 -89t-15 -55.5t-26 -38q-18 -20 -45 -31t-62 -11t-61.5 11t-44.5 31q-16 17 -26 38t-15 55.5t-7 89t-2 139.5t2 139.5t7 89t15 55.5t26 38q18 20 44.5 31t61.5 11t62 -11t45 -31q16 -17 26 -38t15 -55.5t7 -89t2 -139.5zM308 356
q0 78 -1 127.5t-5 80.5t-10.5 47.5t-17.5 29.5q-23 26 -64 26q-40 0 -63 -26q-11 -13 -17.5 -29.5t-10.5 -47.5t-5 -80.5t-1 -127.5t1 -127.5t5 -80.5t10.5 -47.5t17.5 -29.5q23 -26 63 -26q21 0 37 7t27 19q11 13 17.5 29.5t10.5 47.5t5 80.5t1 127.5zM171 764h-48l59 130
h59zM297 764h-47l58 130h59z" />
    <glyph glyph-name="ohungarumlaut" unicode="&#x151;" horiz-adv-x="353" 
d="M45 0zM309 254q0 -90 -7.5 -142t-30.5 -80q-33 -40 -94 -40t-94 40q-23 28 -30.5 80t-7.5 142t7.5 142t30.5 80q33 41 94 41t94 -41q23 -28 30.5 -80t7.5 -142zM253 254q0 82 -4.5 125.5t-21.5 64.5q-8 10 -20.5 16.5t-29.5 6.5t-30 -6.5t-21 -16.5q-17 -21 -21 -64.5
t-4 -125.5t4 -125t21 -64q8 -10 21 -16.5t30 -6.5t29.5 6.5t20.5 16.5q17 21 21.5 64t4.5 125zM136 586h-48l59 130h58zM262 586h-47l58 130h58z" />
    <glyph glyph-name="OE" unicode="&#x152;" horiz-adv-x="602" 
d="M310 0v40q-34 -48 -101 -48q-33 0 -60 11t-45 31q-16 18 -26 39.5t-15 57t-7 89.5t-2 136t2 136t7 89.5t15 57t26 39.5q18 20 45 31t60 11q68 0 101 -48v40h246v-53h-190v-276h164v-53h-164v-277h190v-53h-246zM308 356q0 78 -1 127.5t-5 80t-10.5 47.5t-17.5 30
q-23 26 -64 26q-22 0 -37 -7t-26 -19q-11 -13 -17.5 -30t-10.5 -47.5t-5 -80t-1 -127.5t1 -127.5t5 -80t10.5 -47.5t17.5 -30q11 -12 26 -19t37 -7t37.5 7t26.5 19q11 13 17.5 30t10.5 47.5t5 80t1 127.5z" />
    <glyph glyph-name="oe" unicode="&#x153;" horiz-adv-x="559" 
d="M309 246q0 -78 4.5 -119.5t21.5 -61.5q8 -10 21 -16.5t30 -6.5q15 0 28.5 4.5t22.5 15.5q23 23 23 72h55q0 -37 -9 -62t-29 -45q-17 -18 -40 -26.5t-51 -8.5t-49.5 9.5t-36.5 24.5q-5 6 -10 13t-9 16q-4 -9 -9 -16t-10 -13q-14 -16 -35.5 -25t-49.5 -9q-60 0 -94 40
q-23 28 -30.5 80t-7.5 142t7.5 142.5t30.5 79.5q33 41 94 41q28 0 49.5 -9.5t36.5 -24.5q11 -13 18 -29q7 17 19 29q15 15 36.5 24.5t47.5 9.5q57 0 91 -37q25 -28 33 -82.5t8 -151.5h-207zM253 254q0 82 -4.5 125.5t-21.5 64.5q-8 10 -20.5 16.5t-29.5 6.5t-30 -6.5
t-21 -16.5q-17 -21 -21 -64.5t-4 -125.5t4 -125.5t21 -63.5q18 -23 51 -23q32 0 50 23q17 20 21.5 63.5t4.5 125.5zM460 291q0 66 -4.5 101t-20.5 52q-8 10 -21 16.5t-30 6.5t-29.5 -6.5t-20.5 -16.5q-16 -17 -20.5 -52t-4.5 -101h151z" />
    <glyph glyph-name="Racute" unicode="&#x154;" horiz-adv-x="432" 
d="M69 0zM323 0l-103 319h-92v-319h-59v712h140q32 0 60 -7.5t49 -29t33 -60t12 -100.5q0 -83 -22 -125.5t-66 -59.5l111 -330h-63zM304 515q0 69 -19.5 106.5t-73.5 37.5h-83v-287h83q54 0 73.5 37t19.5 106zM224 764h-49l65 130h59z" />
    <glyph glyph-name="racute" unicode="&#x155;" horiz-adv-x="245" 
d="M62 0zM217 464q-45 0 -72 -26.5t-27 -72.5v-365h-56v509h55v-54q4 8 11.5 17.5t13.5 14.5q17 16 39 23t48 7v-53h-12zM153 586h-49l65 130h58z" />
    <glyph glyph-name="Rcommaaccent" unicode="&#x156;" horiz-adv-x="432" 
d="M69 0zM323 0l-103 319h-92v-319h-59v712h140q32 0 60 -7.5t49 -29t33 -60t12 -100.5q0 -83 -22 -125.5t-66 -59.5l111 -330h-63zM304 515q0 69 -19.5 106.5t-73.5 37.5h-83v-287h83q54 0 73.5 37t19.5 106zM198 -171h-53l53 134h46z" />
    <glyph glyph-name="rcommaaccent" unicode="&#x157;" horiz-adv-x="245" 
d="M20 0zM217 464q-45 0 -72 -26.5t-27 -72.5v-365h-56v509h55v-54q4 8 11.5 17.5t13.5 14.5q17 16 39 23t48 7v-53h-12zM73 -171h-53l53 134h46z" />
    <glyph glyph-name="Rcaron" unicode="&#x158;" horiz-adv-x="432" 
d="M69 0zM323 0l-103 319h-92v-319h-59v712h140q32 0 60 -7.5t49 -29t33 -60t12 -100.5q0 -83 -22 -125.5t-66 -59.5l111 -330h-63zM304 515q0 69 -19.5 106.5t-73.5 37.5h-83v-287h83q54 0 73.5 37t19.5 106zM228 758h-50l-87 129h52l60 -91l59 91h52z" />
    <glyph glyph-name="rcaron" unicode="&#x159;" horiz-adv-x="245" 
d="M20 0zM217 464q-45 0 -72 -26.5t-27 -72.5v-365h-56v509h55v-54q4 8 11.5 17.5t13.5 14.5q17 16 39 23t48 7v-53h-12zM157 580h-50l-87 129h52l60 -91l60 91h51z" />
    <glyph glyph-name="Sacute" unicode="&#x15a;" horiz-adv-x="396" 
d="M41 0zM350 186q0 -57 -10 -93.5t-34 -60.5q-18 -18 -45.5 -28t-65.5 -10q-74 0 -112 38q-12 12 -20 25.5t-13 30.5t-7 39t-2 51h59q0 -42 5.5 -66t22.5 -41q24 -24 67 -24q25 0 41 6.5t27 17.5q17 19 22.5 45t5.5 68q0 33 -3 56.5t-11.5 40.5t-23 28.5t-37.5 20.5l-76 31
q-27 11 -45.5 25.5t-29 35t-15 49t-4.5 68.5q0 46 12 82t37 59q40 38 104 38q68 0 107 -39q26 -26 34.5 -58.5t8.5 -79.5h-59q0 34 -5.5 57t-21.5 41q-11 12 -26.5 19t-38.5 7q-21 0 -36 -6t-26 -17q-17 -17 -24 -43t-7 -59q0 -31 3 -51.5t11 -35.5t23.5 -25.5t39.5 -20.5
l76 -31q29 -12 47 -28.5t28 -39.5t13.5 -53t3.5 -69zM224 764h-49l65 130h59z" />
    <glyph glyph-name="sacute" unicode="&#x15b;" horiz-adv-x="336" 
d="M33 0zM303 130q0 -30 -11 -55.5t-29 -43.5q-39 -39 -97 -39q-57 0 -93 36q-22 23 -31 50.5t-9 59.5h56q0 -24 6 -42.5t20 -32.5q21 -21 51 -21q35 0 58 23t23 63q0 33 -14 55q-16 25 -51 44l-64 35q-24 14 -41 30t-25 30q-14 27 -14 64q0 29 11 53.5t29 42.5q35 35 91 35
q57 0 91 -34q37 -37 37 -110h-56q0 29 -5 45t-17 29q-11 11 -23.5 15.5t-26.5 4.5q-34 0 -53 -19q-12 -11 -17 -27.5t-5 -32.5q0 -27 10 -44q5 -10 17.5 -19t29.5 -19l63 -36q49 -27 69 -60q11 -17 15.5 -37.5t4.5 -42.5zM196 586h-49l65 130h58z" />
    <glyph glyph-name="Scircumflex" unicode="&#x15c;" horiz-adv-x="396" 
d="M41 0zM350 186q0 -57 -10 -93.5t-34 -60.5q-18 -18 -45.5 -28t-65.5 -10q-74 0 -112 38q-12 12 -20 25.5t-13 30.5t-7 39t-2 51h59q0 -42 5.5 -66t22.5 -41q24 -24 67 -24q25 0 41 6.5t27 17.5q17 19 22.5 45t5.5 68q0 33 -3 56.5t-11.5 40.5t-23 28.5t-37.5 20.5l-76 31
q-27 11 -45.5 25.5t-29 35t-15 49t-4.5 68.5q0 46 12 82t37 59q40 38 104 38q68 0 107 -39q26 -26 34.5 -58.5t8.5 -79.5h-59q0 34 -5.5 57t-21.5 41q-11 12 -26.5 19t-38.5 7q-21 0 -36 -6t-26 -17q-17 -17 -24 -43t-7 -59q0 -31 3 -51.5t11 -35.5t23.5 -25.5t39.5 -20.5
l76 -31q29 -12 47 -28.5t28 -39.5t13.5 -53t3.5 -69zM262 764l-59 92l-60 -92h-52l87 130h50l86 -130h-52z" />
    <glyph glyph-name="scircumflex" unicode="&#x15d;" horiz-adv-x="336" 
d="M33 0zM303 130q0 -30 -11 -55.5t-29 -43.5q-39 -39 -97 -39q-57 0 -93 36q-22 23 -31 50.5t-9 59.5h56q0 -24 6 -42.5t20 -32.5q21 -21 51 -21q35 0 58 23t23 63q0 33 -14 55q-16 25 -51 44l-64 35q-24 14 -41 30t-25 30q-14 27 -14 64q0 29 11 53.5t29 42.5q35 35 91 35
q57 0 91 -34q37 -37 37 -110h-56q0 29 -5 45t-17 29q-11 11 -23.5 15.5t-26.5 4.5q-34 0 -53 -19q-12 -11 -17 -27.5t-5 -32.5q0 -27 10 -44q5 -10 17.5 -19t29.5 -19l63 -36q49 -27 69 -60q11 -17 15.5 -37.5t4.5 -42.5zM234 586l-60 92l-60 -92h-52l87 130h50l86 -130h-51
z" />
    <glyph glyph-name="Scedilla" unicode="&#x15e;" horiz-adv-x="396" 
d="M41 0zM350 186q0 -57 -10 -93.5t-34 -60.5q-18 -18 -45.5 -28t-65.5 -10q-74 0 -112 38q-12 12 -20 25.5t-13 30.5t-7 39t-2 51h59q0 -42 5.5 -66t22.5 -41q24 -24 67 -24q25 0 41 6.5t27 17.5q17 19 22.5 45t5.5 68q0 33 -3 56.5t-11.5 40.5t-23 28.5t-37.5 20.5l-76 31
q-27 11 -45.5 25.5t-29 35t-15 49t-4.5 68.5q0 46 12 82t37 59q40 38 104 38q68 0 107 -39q26 -26 34.5 -58.5t8.5 -79.5h-59q0 34 -5.5 57t-21.5 41q-11 12 -26.5 19t-38.5 7q-21 0 -36 -6t-26 -17q-17 -17 -24 -43t-7 -59q0 -31 3 -51.5t11 -35.5t23.5 -25.5t39.5 -20.5
l76 -31q29 -12 47 -28.5t28 -39.5t13.5 -53t3.5 -69zM172 -171h-53l53 134h46z" />
    <glyph glyph-name="scedilla" unicode="&#x15f;" horiz-adv-x="336" 
d="M33 0zM303 130q0 -30 -11 -55.5t-29 -43.5q-39 -39 -97 -39q-57 0 -93 36q-22 23 -31 50.5t-9 59.5h56q0 -24 6 -42.5t20 -32.5q21 -21 51 -21q35 0 58 23t23 63q0 33 -14 55q-16 25 -51 44l-64 35q-24 14 -41 30t-25 30q-14 27 -14 64q0 29 11 53.5t29 42.5q35 35 91 35
q57 0 91 -34q37 -37 37 -110h-56q0 29 -5 45t-17 29q-11 11 -23.5 15.5t-26.5 4.5q-34 0 -53 -19q-12 -11 -17 -27.5t-5 -32.5q0 -27 10 -44q5 -10 17.5 -19t29.5 -19l63 -36q49 -27 69 -60q11 -17 15.5 -37.5t4.5 -42.5zM145 -171h-53l53 134h46z" />
    <glyph glyph-name="Scaron" unicode="&#x160;" horiz-adv-x="396" 
d="M41 0zM350 186q0 -57 -10 -93.5t-34 -60.5q-18 -18 -45.5 -28t-65.5 -10q-74 0 -112 38q-12 12 -20 25.5t-13 30.5t-7 39t-2 51h59q0 -42 5.5 -66t22.5 -41q24 -24 67 -24q25 0 41 6.5t27 17.5q17 19 22.5 45t5.5 68q0 33 -3 56.5t-11.5 40.5t-23 28.5t-37.5 20.5l-76 31
q-27 11 -45.5 25.5t-29 35t-15 49t-4.5 68.5q0 46 12 82t37 59q40 38 104 38q68 0 107 -39q26 -26 34.5 -58.5t8.5 -79.5h-59q0 34 -5.5 57t-21.5 41q-11 12 -26.5 19t-38.5 7q-21 0 -36 -6t-26 -17q-17 -17 -24 -43t-7 -59q0 -31 3 -51.5t11 -35.5t23.5 -25.5t39.5 -20.5
l76 -31q29 -12 47 -28.5t28 -39.5t13.5 -53t3.5 -69zM232 758h-50l-87 129h52l60 -91l59 91h52z" />
    <glyph glyph-name="scaron" unicode="&#x161;" horiz-adv-x="336" 
d="M33 0zM303 130q0 -30 -11 -55.5t-29 -43.5q-39 -39 -97 -39q-57 0 -93 36q-22 23 -31 50.5t-9 59.5h56q0 -24 6 -42.5t20 -32.5q21 -21 51 -21q35 0 58 23t23 63q0 33 -14 55q-16 25 -51 44l-64 35q-24 14 -41 30t-25 30q-14 27 -14 64q0 29 11 53.5t29 42.5q35 35 91 35
q57 0 91 -34q37 -37 37 -110h-56q0 29 -5 45t-17 29q-11 11 -23.5 15.5t-26.5 4.5q-34 0 -53 -19q-12 -11 -17 -27.5t-5 -32.5q0 -27 10 -44q5 -10 17.5 -19t29.5 -19l63 -36q49 -27 69 -60q11 -17 15.5 -37.5t4.5 -42.5zM199 580h-50l-87 129h52l60 -91l60 91h51z" />
    <glyph glyph-name="Tcommaaccent" unicode="&#x162;" horiz-adv-x="341" 
d="M22 0zM200 659v-659h-59v659h-119v53h297v-53h-119zM149 -171h-53l53 134h46z" />
    <glyph glyph-name="tcommaaccent" unicode="&#x163;" horiz-adv-x="245" 
d="M16 0zM225 0q-31 0 -58.5 5.5t-50.5 26.5q-38 35 -38 104v329h-62v44h62v149h56v-149h87v-44h-87v-329q0 -46 23 -66t68 -20v-50zM136 -171h-53l53 134h46z" />
    <glyph glyph-name="Tcaron" unicode="&#x164;" horiz-adv-x="341" 
d="M22 0zM200 659v-659h-59v659h-119v53h297v-53h-119zM195 758h-50l-87 129h52l60 -91l59 91h52z" />
    <glyph glyph-name="tcaron" unicode="&#x165;" horiz-adv-x="245" 
d="M16 0zM225 0q-31 0 -58.5 5.5t-50.5 26.5q-38 35 -38 104v329h-62v44h62v149h56v-149h87v-44h-87v-329q0 -46 23 -66t68 -20v-50zM224 586h-44l21 134h53z" />
    <glyph glyph-name="Tbar" unicode="&#x166;" horiz-adv-x="341" 
d="M200 332v-332h-59v332h-71v49h71v278h-119v53h297v-53h-119v-278h73v-49h-73z" />
    <glyph glyph-name="tbar" unicode="&#x167;" horiz-adv-x="245" 
d="M225 0q-31 0 -58.5 5.5t-50.5 26.5q-38 35 -38 104v148h-62v44h62v137h-62v44h62v149h56v-149h87v-44h-87v-137h87v-44h-87v-148q0 -46 23 -66t68 -20v-50z" />
    <glyph glyph-name="Utilde" unicode="&#x168;" horiz-adv-x="417" 
d="M61 0zM356 148q0 -38 -11 -66.5t-31 -48.5q-43 -41 -105 -41t-105 41q-20 20 -31.5 48.5t-11.5 66.5v564h59v-569q0 -46 26 -72t63 -26t62.5 26t25.5 72v569h59v-564zM330 813q-26 -25 -41.5 -31.5t-29.5 -6.5q-16 0 -28 4.5t-26 12.5q-11 7 -21 11.5t-21 4.5
q-9 0 -17.5 -3.5t-25.5 -20.5l-28 29q25 25 40.5 31.5t29.5 6.5q17 0 28.5 -4.5t25.5 -12.5q11 -7 21 -11.5t21 -4.5q8 0 17 3.5t26 20.5z" />
    <glyph glyph-name="utilde" unicode="&#x169;" 
d="M58 0zM256 0v41q-5 -8 -13.5 -17t-15.5 -14q-26 -18 -58 -18q-26 0 -45 8.5t-35 25.5q-15 16 -23 39.5t-8 61.5v382h56v-383q0 -42 20.5 -62.5t49.5 -20.5t50 20.5t21 62.5v383h56v-509h-55zM303 635q-26 -25 -41.5 -31.5t-29.5 -6.5q-16 0 -28 4.5t-26 12.5
q-11 7 -21 11.5t-21 4.5q-9 0 -17.5 -3.5t-25.5 -20.5l-28 29q25 25 40.5 31.5t29.5 6.5q17 0 28.5 -4.5t25.5 -12.5q11 -7 21 -11.5t21 -4.5q8 0 17 3.5t26 20.5z" />
    <glyph glyph-name="Umacron" unicode="&#x16a;" horiz-adv-x="417" 
d="M61 0zM356 148q0 -38 -11 -66.5t-31 -48.5q-43 -41 -105 -41t-105 41q-20 20 -31.5 48.5t-11.5 66.5v564h59v-569q0 -46 26 -72t63 -26t62.5 26t25.5 72v569h59v-564zM105 785v45h212v-45h-212z" />
    <glyph glyph-name="umacron" unicode="&#x16b;" 
d="M58 0zM256 0v41q-5 -8 -13.5 -17t-15.5 -14q-26 -18 -58 -18q-26 0 -45 8.5t-35 25.5q-15 16 -23 39.5t-8 61.5v382h56v-383q0 -42 20.5 -62.5t49.5 -20.5t50 20.5t21 62.5v383h56v-509h-55zM78 611v45h212v-45h-212z" />
    <glyph glyph-name="Ubreve" unicode="&#x16c;" horiz-adv-x="417" 
d="M61 0zM356 148q0 -38 -11 -66.5t-31 -48.5q-43 -41 -105 -41t-105 41q-20 20 -31.5 48.5t-11.5 66.5v564h59v-569q0 -46 26 -72t63 -26t62.5 26t25.5 72v569h59v-564zM321 858q-9 -104 -110 -104q-102 0 -111 104h46q7 -60 65 -60q56 0 64 60h46z" />
    <glyph glyph-name="ubreve" unicode="&#x16d;" 
d="M58 0zM256 0v41q-5 -8 -13.5 -17t-15.5 -14q-26 -18 -58 -18q-26 0 -45 8.5t-35 25.5q-15 16 -23 39.5t-8 61.5v382h56v-383q0 -42 20.5 -62.5t49.5 -20.5t50 20.5t21 62.5v383h56v-509h-55zM294 684q-9 -104 -110 -104t-111 104h46q7 -60 65 -60q56 0 65 60h45z" />
    <glyph glyph-name="Uring" unicode="&#x16e;" horiz-adv-x="417" 
d="M61 0zM356 148q0 -38 -11 -66.5t-31 -48.5q-43 -41 -105 -41t-105 41q-20 20 -31.5 48.5t-11.5 66.5v564h59v-569q0 -46 26 -72t63 -26t62.5 26t25.5 72v569h59v-564zM302 842q0 -19 -7.5 -35.5t-20 -29t-29 -19.5t-34.5 -7q-38 0 -64.5 26.5t-26.5 64.5t26.5 64.5
t64.5 26.5q18 0 34.5 -7t29 -19.5t20 -29t7.5 -35.5zM263 842q0 22 -15.5 37t-36.5 15q-22 0 -37.5 -15t-15.5 -37t15.5 -37.5t37.5 -15.5q21 0 36.5 15.5t15.5 37.5z" />
    <glyph glyph-name="uring" unicode="&#x16f;" 
d="M58 0zM256 0v41q-5 -8 -13.5 -17t-15.5 -14q-26 -18 -58 -18q-26 0 -45 8.5t-35 25.5q-15 16 -23 39.5t-8 61.5v382h56v-383q0 -42 20.5 -62.5t49.5 -20.5t50 20.5t21 62.5v383h56v-509h-55zM275 672q0 -38 -26.5 -64.5t-64.5 -26.5t-64.5 26.5t-26.5 64.5t26.5 64.5
t64.5 26.5t64.5 -26.5t26.5 -64.5zM236 672q0 22 -15.5 37.5t-36.5 15.5q-22 0 -37.5 -15.5t-15.5 -37.5q0 -21 15.5 -36.5t37.5 -15.5q21 0 36.5 15.5t15.5 36.5z" />
    <glyph glyph-name="Uhungarumlaut" unicode="&#x170;" horiz-adv-x="417" 
d="M61 0zM356 148q0 -38 -11 -66.5t-31 -48.5q-43 -41 -105 -41t-105 41q-20 20 -31.5 48.5t-11.5 66.5v564h59v-569q0 -46 26 -72t63 -26t62.5 26t25.5 72v569h59v-564zM170 764h-48l59 130h59zM296 764h-47l58 130h59z" />
    <glyph glyph-name="uhungarumlaut" unicode="&#x171;" 
d="M58 0zM256 0v41q-5 -8 -13.5 -17t-15.5 -14q-26 -18 -58 -18q-26 0 -45 8.5t-35 25.5q-15 16 -23 39.5t-8 61.5v382h56v-383q0 -42 20.5 -62.5t49.5 -20.5t50 20.5t21 62.5v383h56v-509h-55zM143 586h-48l59 130h58zM269 586h-47l58 130h58z" />
    <glyph glyph-name="Uogonek" unicode="&#x172;" horiz-adv-x="417" 
d="M61 0zM356 148q0 -38 -11 -66.5t-31 -48.5q-43 -41 -105 -41t-105 41q-20 20 -31.5 48.5t-11.5 66.5v564h59v-569q0 -46 26 -72t63 -26t62.5 26t25.5 72v569h59v-564zM261 -171h-53l53 134h46z" />
    <glyph glyph-name="uogonek" unicode="&#x173;" 
d="M58 0zM256 0v41q-5 -8 -13.5 -17t-15.5 -14q-26 -18 -58 -18q-26 0 -45 8.5t-35 25.5q-15 16 -23 39.5t-8 61.5v382h56v-383q0 -42 20.5 -62.5t49.5 -20.5t50 20.5t21 62.5v383h56v-509h-55zM264 -171h-53l53 134h46z" />
    <glyph glyph-name="Wcircumflex" unicode="&#x174;" horiz-adv-x="587" 
d="M4 0zM475 0h-62l-119 607l-118 -607h-62l-110 712h65l76 -606l115 606h67l117 -606l75 606h64zM353 764l-59 92l-60 -92h-52l87 130h50l86 -130h-52z" />
    <glyph glyph-name="wcircumflex" unicode="&#x175;" horiz-adv-x="474" 
d="M4 0zM371 0h-60l-77 416l-73 -416h-60l-97 509h65l63 -421l74 421h56l78 -421l65 421h65zM295 586l-60 92l-60 -92h-52l87 130h50l86 -130h-51z" />
    <glyph glyph-name="Ycircumflex" unicode="&#x176;" horiz-adv-x="315" 
d="M3 0zM187 298v-298h-59v298l-125 414h65l89 -326l90 326h65zM218 764l-59 92l-60 -92h-52l87 130h50l86 -130h-52z" />
    <glyph glyph-name="ycircumflex" unicode="&#x177;" horiz-adv-x="308" 
d="M4 0zM157 -99q-14 -59 -52 -81.5t-96 -22.5v50q42 0 63.5 16.5t29.5 48.5l23 90l-121 507h62l87 -420l87 420h61zM219 586l-60 92l-60 -92h-52l87 130h50l86 -130h-51z" />
    <glyph glyph-name="Ydieresis" unicode="&#x178;" horiz-adv-x="315" 
d="M3 0zM187 298v-298h-59v298l-125 414h65l89 -326l90 326h65zM197 784v63h63v-63h-63zM59 784v63h63v-63h-63z" />
    <glyph glyph-name="Zacute" unicode="&#x179;" horiz-adv-x="324" 
d="M30 0zM30 0v46l203 613h-189v53h250v-46l-202 -613h202v-53h-264zM190 764h-49l65 130h59z" />
    <glyph glyph-name="zacute" unicode="&#x17a;" horiz-adv-x="276" 
d="M22 0zM22 0v44l172 415h-162v50h223v-44l-172 -415h172v-50h-233zM167 586h-49l65 130h58z" />
    <glyph glyph-name="Zdotaccent" unicode="&#x17b;" horiz-adv-x="324" 
d="M30 0zM30 0v46l203 613h-189v53h250v-46l-202 -613h202v-53h-264zM137 784v63h63v-63h-63z" />
    <glyph glyph-name="zdotaccent" unicode="&#x17c;" horiz-adv-x="276" 
d="M22 0zM22 0v44l172 415h-162v50h223v-44l-172 -415h172v-50h-233zM113 610v63h63v-63h-63z" />
    <glyph glyph-name="Zcaron" unicode="&#x17d;" horiz-adv-x="324" 
d="M30 0zM30 0v46l203 613h-189v53h250v-46l-202 -613h202v-53h-264zM194 758h-50l-87 129h52l60 -91l59 91h52z" />
    <glyph glyph-name="zcaron" unicode="&#x17e;" horiz-adv-x="276" 
d="M22 0zM22 0v44l172 415h-162v50h223v-44l-172 -415h172v-50h-233zM170 580h-50l-87 129h52l60 -91l60 91h51z" />
    <glyph glyph-name="longs" unicode="&#x17f;" horiz-adv-x="181" 
d="M118 0h-56v578q0 68 38 103q22 20 49 26.5t56 6.5v-51q-87 0 -87 -85v-578z" />
    <glyph glyph-name="uni018F" unicode="&#x18f;" horiz-adv-x="412" 
d="M54 377h245q0 71 -1.5 116.5t-5.5 74t-10.5 44.5t-16.5 29q-11 12 -26 19t-37 7q-27 0 -44.5 -10.5t-27 -27t-13.5 -38t-4 -42.5h-59q0 41 11 75t34 57q18 18 43 28.5t60 10.5t61.5 -11t44.5 -31q17 -18 27 -40t15 -57.5t6.5 -89t1.5 -135.5t-1.5 -135.5t-6.5 -89
t-15 -57.5t-27 -40q-18 -20 -44.5 -31t-61.5 -11q-30 0 -56.5 10t-47 30t-32.5 50t-12 70v225zM113 152q0 -51 25.5 -79t63.5 -28q22 0 37 7t26 19q10 12 16.5 28t10 43.5t5.5 71.5t2 113h-186v-175z" />
    <glyph glyph-name="florin" unicode="&#x192;" horiz-adv-x="337" 
d="M297 664q-35 0 -59.5 -20.5t-32.5 -60.5l-37 -201h83v-44h-91l-104 -542h-56l104 542h-57v44h65l37 202q12 64 52 97t100 33h15v-50h-19z" />
    <glyph glyph-name="uni01B5" unicode="&#x1b5;" horiz-adv-x="324" 
d="M30 0v46l94 286h-64v49h81l92 278h-189v53h250v-46l-94 -285h64v-49h-80l-92 -279h202v-53h-264z" />
    <glyph glyph-name="uni01B6" unicode="&#x1b6;" horiz-adv-x="276" 
d="M22 0v44l78 188h-57v45h75l76 182h-162v50h223v-44l-78 -188h61v-45h-80l-75 -182h172v-50h-233z" />
    <glyph glyph-name="uni01C4" unicode="&#x1c4;" horiz-adv-x="748" 
d="M69 0zM371 356q0 -83 -2 -136.5t-7 -87.5t-15 -54t-26 -37q-18 -19 -44.5 -30t-61.5 -11h-146v712h146q35 0 61.5 -11t44.5 -30q16 -17 26 -37t15 -54t7 -87.5t2 -136.5zM312 356q0 76 -1 124.5t-5 78.5t-10.5 46.5t-18.5 28.5q-22 25 -65 25h-84v-606h84q43 0 65 25
q12 12 18.5 28.5t10.5 46.5t5 78.5t1 124.5zM454 0v46l203 613h-189v53h250v-46l-202 -613h202v-53h-264zM617 758h-50l-87 129h52l60 -91l59 91h52z" />
    <glyph glyph-name="uni01C5" unicode="&#x1c5;" horiz-adv-x="700" 
d="M69 0zM371 356q0 -83 -2 -136.5t-7 -87.5t-15 -54t-26 -37q-18 -19 -44.5 -30t-61.5 -11h-146v712h146q35 0 61.5 -11t44.5 -30q16 -17 26 -37t15 -54t7 -87.5t2 -136.5zM312 356q0 76 -1 124.5t-5 78.5t-10.5 46.5t-18.5 28.5q-22 25 -65 25h-84v-606h84q43 0 65 25
q12 12 18.5 28.5t10.5 46.5t5 78.5t1 124.5zM446 0v44l172 415h-162v50h223v-44l-172 -415h172v-50h-233zM593 580h-50l-87 129h52l60 -91l60 91h51z" />
    <glyph glyph-name="uni01C6" unicode="&#x1c6;" horiz-adv-x="641" 
d="M45 0zM248 0v41q-4 -8 -12.5 -17t-15.5 -14q-26 -18 -58 -18q-48 0 -79 36q-23 26 -30.5 78.5t-7.5 147.5q0 48 1.5 84t6 63t11.5 46.5t19 33.5q14 17 33 26.5t46 9.5q36 0 58 -16q7 -5 14.5 -13.5t12.5 -16.5v241h56v-712h-55zM247 378q0 47 -23 70q-21 19 -49 19
q-15 0 -27.5 -6.5t-20.5 -16.5q-9 -10 -14 -24.5t-7.5 -37t-3.5 -54t-1 -74.5t1 -74.5t3.5 -53.5t7.5 -37t14 -25q8 -10 20.5 -16t27.5 -6q28 0 49 19q23 23 23 70v247zM387 0v44l172 415h-162v50h223v-44l-172 -415h172v-50h-233zM534 580h-50l-87 129h52l60 -91l60 91h51z
" />
    <glyph glyph-name="uni01C7" unicode="&#x1c7;" horiz-adv-x="671" 
d="M69 0zM69 0v712h59v-659h189v-53h-248zM610 153q0 -78 -42 -120q-21 -21 -48.5 -31t-59.5 -10q-71 0 -113 50l43 39q12 -17 30 -26.5t40 -9.5q38 0 64.5 27t26.5 81v559h59v-559z" />
    <glyph glyph-name="uni01C8" unicode="&#x1c8;" horiz-adv-x="520" 
d="M69 0zM69 0v712h59v-659h189v-53h-248zM457 -68q0 -38 -10 -62t-28 -41q-21 -20 -46.5 -26t-54.5 -6v50q38 0 60.5 19t22.5 67v576h56v-577zM393 626v72h72v-72h-72z" />
    <glyph glyph-name="uni01C9" unicode="&#x1c9;" horiz-adv-x="393" 
d="M57 0zM196 0q-29 0 -54.5 6t-46.5 26q-18 17 -28 41.5t-10 62.5v576h56v-576q0 -42 20.5 -64t62.5 -22v-50zM330 -68q0 -38 -10 -62t-28 -41q-21 -20 -46.5 -26t-54.5 -6v50q38 0 60.5 19t22.5 67v576h56v-577zM266 626v72h72v-72h-72z" />
    <glyph glyph-name="uni01CA" unicode="&#x1ca;" horiz-adv-x="786" 
d="M69 0zM327 0l-199 555v-555h-59v712h59l198 -555v555h59v-712h-58zM725 153q0 -78 -42 -120q-21 -21 -48.5 -31t-59.5 -10q-71 0 -113 50l43 39q12 -17 30 -26.5t40 -9.5q38 0 64.5 27t26.5 81v559h59v-559z" />
    <glyph glyph-name="uni01CB" unicode="&#x1cb;" horiz-adv-x="635" 
d="M69 0zM327 0l-199 555v-555h-59v712h59l198 -555v555h59v-712h-58zM572 -68q0 -38 -10 -62t-28 -41q-21 -20 -46.5 -26t-54.5 -6v50q38 0 60.5 19t22.5 67v576h56v-577zM508 626v72h72v-72h-72z" />
    <glyph glyph-name="uni01CC" unicode="&#x1cc;" horiz-adv-x="554" 
d="M62 0zM259 0v383q0 42 -20.5 62.5t-49.5 20.5t-50 -20.5t-21 -62.5v-383h-56v509h55v-41q5 8 13.5 17t15.5 14q26 18 58 18q26 0 45 -9t35 -26q15 -16 23 -39t8 -61v-382h-56zM491 -68q0 -38 -10 -62t-28 -41q-21 -20 -46.5 -26t-54.5 -6v50q38 0 60.5 19t22.5 67v576h56
v-577zM427 626v72h72v-72h-72z" />
    <glyph glyph-name="uni01F1" unicode="&#x1f1;" horiz-adv-x="748" 
d="M69 0zM371 356q0 -83 -2 -136.5t-7 -87.5t-15 -54t-26 -37q-18 -19 -44.5 -30t-61.5 -11h-146v712h146q35 0 61.5 -11t44.5 -30q16 -17 26 -37t15 -54t7 -87.5t2 -136.5zM312 356q0 76 -1 124.5t-5 78.5t-10.5 46.5t-18.5 28.5q-22 25 -65 25h-84v-606h84q43 0 65 25
q12 12 18.5 28.5t10.5 46.5t5 78.5t1 124.5zM454 0v46l203 613h-189v53h250v-46l-202 -613h202v-53h-264z" />
    <glyph glyph-name="uni01F2" unicode="&#x1f2;" horiz-adv-x="700" 
d="M69 0zM371 356q0 -83 -2 -136.5t-7 -87.5t-15 -54t-26 -37q-18 -19 -44.5 -30t-61.5 -11h-146v712h146q35 0 61.5 -11t44.5 -30q16 -17 26 -37t15 -54t7 -87.5t2 -136.5zM312 356q0 76 -1 124.5t-5 78.5t-10.5 46.5t-18.5 28.5q-22 25 -65 25h-84v-606h84q43 0 65 25
q12 12 18.5 28.5t10.5 46.5t5 78.5t1 124.5zM446 0v44l172 415h-162v50h223v-44l-172 -415h172v-50h-233z" />
    <glyph glyph-name="uni01F3" unicode="&#x1f3;" horiz-adv-x="641" 
d="M45 0zM248 0v41q-4 -8 -12.5 -17t-15.5 -14q-26 -18 -58 -18q-48 0 -79 36q-23 26 -30.5 78.5t-7.5 147.5q0 48 1.5 84t6 63t11.5 46.5t19 33.5q14 17 33 26.5t46 9.5q36 0 58 -16q7 -5 14.5 -13.5t12.5 -16.5v241h56v-712h-55zM247 378q0 47 -23 70q-21 19 -49 19
q-15 0 -27.5 -6.5t-20.5 -16.5q-9 -10 -14 -24.5t-7.5 -37t-3.5 -54t-1 -74.5t1 -74.5t3.5 -53.5t7.5 -37t14 -25q8 -10 20.5 -16t27.5 -6q28 0 49 19q23 23 23 70v247zM387 0v44l172 415h-162v50h223v-44l-172 -415h172v-50h-233z" />
    <glyph glyph-name="Aringacute" unicode="&#x1fa;" horiz-adv-x="379" 
d="M4 0zM311 0l-39 195h-166l-38 -195h-64l159 712h55l156 -712h-63zM189 606l-71 -358h143zM284 842q0 -19 -7.5 -35.5t-20 -29t-29 -19.5t-34.5 -7q-38 0 -64.5 26.5t-26.5 64.5t26.5 64.5t64.5 26.5q18 0 34.5 -7t29 -19.5t20 -29t7.5 -35.5zM245 842q0 22 -15.5 37
t-36.5 15q-22 0 -37.5 -15t-15.5 -37t15.5 -37.5t37.5 -15.5q21 0 36.5 15.5t15.5 37.5zM214 943h-49l65 130h59z" />
    <glyph glyph-name="aringacute" unicode="&#x1fb;" horiz-adv-x="352" 
d="M37 0zM240 0v46q-5 -11 -13 -20t-15 -14q-12 -9 -26 -14.5t-35 -5.5q-48 0 -81 34q-14 15 -23.5 44t-9.5 71q0 36 10.5 65.5t32.5 49.5q19 17 42 25.5t58 8.5h58v91q0 42 -17.5 64.5t-52.5 22.5q-15 0 -26.5 -5.5t-19.5 -13.5q-12 -13 -17.5 -29t-5.5 -42h-56
q0 29 7.5 56t29.5 49q16 16 38 25t50 9q61 0 91 -32q17 -18 26 -43t9 -63v-379h-54zM238 246h-56q-20 0 -34.5 -5t-27.5 -17q-13 -13 -20 -34.5t-7 -47.5q0 -46 17 -73t54 -27q34 0 54 26t20 66v112zM264 672q0 -38 -26.5 -64.5t-64.5 -26.5t-64.5 26.5t-26.5 64.5
t26.5 64.5t64.5 26.5t64.5 -26.5t26.5 -64.5zM225 672q0 22 -15.5 37.5t-36.5 15.5q-22 0 -37.5 -15.5t-15.5 -37.5q0 -21 15.5 -36.5t37.5 -15.5q21 0 36.5 15.5t15.5 36.5zM195 773h-49l65 130h58z" />
    <glyph glyph-name="AEacute" unicode="&#x1fc;" horiz-adv-x="604" 
d="M5 0zM309 0v197h-168l-72 -197h-64l265 712h288v-53h-190v-276h164v-53h-164v-277h190v-53h-249zM309 660l-149 -410h149v410zM362 764h-49l65 130h59z" />
    <glyph glyph-name="aeacute" unicode="&#x1fd;" horiz-adv-x="544" 
d="M37 0zM294 246q0 -78 4.5 -120t21.5 -61q8 -10 21.5 -16.5t30.5 -6.5t29 5t22 15q11 11 16.5 30t5.5 42h55q0 -36 -8.5 -61.5t-28.5 -45.5q-17 -18 -41 -26.5t-50 -8.5q-51 0 -83 30q-9 9 -17.5 21t-13.5 24q-6 -16 -15.5 -30t-20.5 -22q-13 -10 -30.5 -16.5t-40.5 -6.5
q-48 0 -81 34q-14 15 -23.5 44t-9.5 71q0 36 10.5 65.5t32.5 49.5q19 17 42 25.5t58 8.5h58v91q0 42 -17.5 64.5t-52.5 22.5q-15 0 -26.5 -5.5t-19.5 -13.5q-13 -13 -18 -29.5t-5 -41.5h-56q0 29 7.5 56t29.5 49q16 16 38 25t50 9q54 0 84 -28q11 -11 18 -25q7 11 15 19
q15 16 36.5 25t48.5 9q57 0 91 -37q25 -28 33 -82.5t8 -151.5h-208zM238 246h-56q-20 0 -34.5 -4.5t-27.5 -17.5q-13 -12 -20 -34t-7 -48q0 -46 17 -73t54 -27q34 0 54 26t20 66v112zM446 291q-1 66 -5.5 101t-20.5 52q-8 10 -20.5 16.5t-29.5 6.5t-30 -6.5t-21 -16.5
q-15 -17 -19.5 -52t-5.5 -101h152zM288 586h-49l65 130h58z" />
    <glyph glyph-name="Oslashacute" unicode="&#x1fe;" horiz-adv-x="405" 
d="M54 0zM367 356q0 -85 -2 -139.5t-7 -89t-15 -55.5t-26 -38q-18 -20 -45 -31t-62 -11q-45 0 -79 20l-17 -56h-50l29 90q-13 16 -20.5 38t-11.5 57t-5.5 87t-1.5 128q0 85 2 139.5t7 89t15 55.5t26 38q18 20 44.5 31t61.5 11q47 0 80 -21l17 57h50l-28 -91q12 -17 19.5 -39
t11.5 -57t5.5 -86.5t1.5 -126.5zM272 644q-21 23 -62 23q-40 0 -63 -26q-11 -13 -17.5 -29.5t-10.5 -47.5t-5 -80.5t-1 -127.5q0 -50 0.5 -87t1.5 -63.5t3.5 -44.5t5.5 -31zM308 356q0 97 -2 148t-8 77l-149 -513q20 -23 61 -23q21 0 37 7t27 19q11 13 17.5 29.5t10.5 47.5
t5 80.5t1 127.5zM232 764h-49l65 130h59z" />
    <glyph glyph-name="oslashacute" unicode="&#x1ff;" horiz-adv-x="347" 
d="M42 0zM279 466q18 -29 24 -80t6 -132q0 -90 -7.5 -142t-30.5 -80q-33 -40 -94 -40q-42 0 -69 18l-20 -54h-46l33 87q-18 29 -24 79.5t-6 131.5q0 90 7.5 142t30.5 80q33 41 94 41q21 0 37.5 -5t30.5 -14l20 55h46zM226 447q-8 9 -20.5 15t-28.5 6q-33 0 -51 -23
q-17 -21 -21 -65t-4 -126q0 -49 1.5 -82t6.5 -53zM253 254q0 49 -1.5 82.5t-6.5 53.5l-117 -329q18 -20 49 -20q32 0 50 23q17 21 21.5 64.5t4.5 125.5zM199 586h-49l65 130h58z" />
    <glyph glyph-name="Scommaaccent" unicode="&#x218;" horiz-adv-x="396" 
d="M41 0zM350 186q0 -57 -10 -93.5t-34 -60.5q-18 -18 -45.5 -28t-65.5 -10q-74 0 -112 38q-12 12 -20 25.5t-13 30.5t-7 39t-2 51h59q0 -42 5.5 -66t22.5 -41q24 -24 67 -24q25 0 41 6.5t27 17.5q17 19 22.5 45t5.5 68q0 33 -3 56.5t-11.5 40.5t-23 28.5t-37.5 20.5l-76 31
q-27 11 -45.5 25.5t-29 35t-15 49t-4.5 68.5q0 46 12 82t37 59q40 38 104 38q68 0 107 -39q26 -26 34.5 -58.5t8.5 -79.5h-59q0 34 -5.5 57t-21.5 41q-11 12 -26.5 19t-38.5 7q-21 0 -36 -6t-26 -17q-17 -17 -24 -43t-7 -59q0 -31 3 -51.5t11 -35.5t23.5 -25.5t39.5 -20.5
l76 -31q29 -12 47 -28.5t28 -39.5t13.5 -53t3.5 -69zM172 -171h-53l53 134h46z" />
    <glyph glyph-name="scommaaccent" unicode="&#x219;" horiz-adv-x="336" 
d="M33 0zM303 130q0 -30 -11 -55.5t-29 -43.5q-39 -39 -97 -39q-57 0 -93 36q-22 23 -31 50.5t-9 59.5h56q0 -24 6 -42.5t20 -32.5q21 -21 51 -21q35 0 58 23t23 63q0 33 -14 55q-16 25 -51 44l-64 35q-24 14 -41 30t-25 30q-14 27 -14 64q0 29 11 53.5t29 42.5q35 35 91 35
q57 0 91 -34q37 -37 37 -110h-56q0 29 -5 45t-17 29q-11 11 -23.5 15.5t-26.5 4.5q-34 0 -53 -19q-12 -11 -17 -27.5t-5 -32.5q0 -27 10 -44q5 -10 17.5 -19t29.5 -19l63 -36q49 -27 69 -60q11 -17 15.5 -37.5t4.5 -42.5zM145 -171h-53l53 134h46z" />
    <glyph glyph-name="uni021A" unicode="&#x21a;" horiz-adv-x="341" 
d="M22 0zM200 659v-659h-59v659h-119v53h297v-53h-119zM149 -171h-53l53 134h46z" />
    <glyph glyph-name="uni021B" unicode="&#x21b;" horiz-adv-x="245" 
d="M16 0zM225 0q-31 0 -58.5 5.5t-50.5 26.5q-38 35 -38 104v329h-62v44h62v149h56v-149h87v-44h-87v-329q0 -46 23 -66t68 -20v-50zM127 -171h-53l53 134h46z" />
    <glyph glyph-name="uni0237" unicode="&#x237;" horiz-adv-x="181" 
d="M118 -67q0 -39 -10.5 -63.5t-27.5 -40.5q-21 -20 -46.5 -26t-54.5 -6v50q39 0 61 19t22 67v576h56v-576z" />
    <glyph glyph-name="uni0259" unicode="&#x259;" horiz-adv-x="349" 
d="M253 263q0 78 -4.5 119.5t-21.5 61.5q-8 10 -21 16.5t-30 6.5q-15 0 -28.5 -4.5t-23.5 -15.5q-22 -23 -22 -72h-55q0 37 8.5 62t28.5 45q34 35 92 35q57 0 92 -37q25 -27 33 -80.5t8 -144.5q0 -92 -7.5 -145t-33.5 -81q-34 -37 -91 -37t-91 37q-13 14 -21 34t-12.5 48
t-6 65.5t-1.5 86.5h208zM101 218q1 -66 6 -101t20 -52q8 -10 20.5 -16.5t29.5 -6.5t30 6.5t21 16.5q15 17 19.5 52t5.5 101h-152z" />
    <glyph glyph-name="uni02BB" unicode="&#x2bb;" horiz-adv-x="184" 
d="M58 620zM58 620v92l69 51v-143h-69z" />
    <glyph glyph-name="afii57929" unicode="&#x2bc;" horiz-adv-x="184" 
d="M58 570zM58 570v142h69v-92z" />
    <glyph glyph-name="circumflex" unicode="&#x2c6;" horiz-adv-x="354" 
d="M65 586zM237 586l-60 92l-60 -92h-52l87 130h50l86 -130h-51z" />
    <glyph glyph-name="caron" unicode="&#x2c7;" horiz-adv-x="354" 
d="M65 580zM202 580h-50l-87 129h52l60 -91l60 91h51z" />
    <glyph glyph-name="breve" unicode="&#x2d8;" horiz-adv-x="354" 
d="M287 684q-9 -104 -110 -104t-111 104h46q7 -60 65 -60q56 0 65 60h45z" />
    <glyph glyph-name="dotaccent" unicode="&#x2d9;" horiz-adv-x="354" 
d="M145 610v63h63v-63h-63z" />
    <glyph glyph-name="ring" unicode="&#x2da;" horiz-adv-x="354" 
d="M268 672q0 -38 -26.5 -64.5t-64.5 -26.5t-64.5 26.5t-26.5 64.5t26.5 64.5t64.5 26.5t64.5 -26.5t26.5 -64.5zM229 672q0 22 -15.5 37.5t-36.5 15.5q-22 0 -37.5 -15.5t-15.5 -37.5q0 -21 15.5 -36.5t37.5 -15.5q21 0 36.5 15.5t15.5 36.5z" />
    <glyph glyph-name="ogonek" unicode="&#x2db;" horiz-adv-x="354" 
d="M163 -171h-53l53 134h46z" />
    <glyph glyph-name="tilde" unicode="&#x2dc;" horiz-adv-x="354" 
d="M297 635q-26 -25 -41.5 -31.5t-29.5 -6.5q-16 0 -28 4.5t-26 12.5q-11 7 -21 11.5t-21 4.5q-9 0 -17.5 -3.5t-25.5 -20.5l-28 29q25 25 40.5 31.5t29.5 6.5q17 0 28.5 -4.5t25.5 -12.5q11 -7 21 -11.5t21 -4.5q8 0 17 3.5t26 20.5z" />
    <glyph glyph-name="hungarumlaut" unicode="&#x2dd;" horiz-adv-x="354" 
d="M136 586h-48l59 130h58zM262 586h-47l58 130h58z" />
    <glyph glyph-name="uni0394" unicode="&#x394;" horiz-adv-x="379" 
d="M4 0zM4 0l159 712h56l156 -712h-371zM189 606l-110 -553h222z" />
    <glyph glyph-name="uni03A9" unicode="&#x3a9;" horiz-adv-x="429" 
d="M52 0zM238 0v44q20 10 36.5 26t24.5 39q9 26 11 84t2 163q0 80 -1.5 130t-5 80.5t-10.5 46.5t-18 28q-23 26 -63 26t-63 -26q-11 -12 -18 -28t-10.5 -46.5t-5 -80.5t-1.5 -130q0 -105 2 -163t11 -84q8 -23 24.5 -39t37.5 -26v-44h-139v49h73q-15 9 -28.5 22t-22.5 34
q-6 14 -9 34.5t-5 50.5t-2.5 70.5t-0.5 95.5q0 84 2 138t7 89.5t15 56.5t27 38q18 20 44.5 31t61.5 11t61.5 -11t44.5 -31q16 -17 26.5 -38t15.5 -56.5t7 -89.5t2 -138q0 -55 -0.5 -95.5t-2.5 -70.5t-5 -50.5t-9 -34.5q-8 -21 -21.5 -34t-29.5 -22h73v-49h-138z" />
    <glyph glyph-name="uni03BC" unicode="&#x3bc;" horiz-adv-x="378" 
d="M62 0zM260 0v41q-5 -8 -13.5 -17t-15.5 -14q-12 -8 -26 -13t-32 -5q-19 0 -35 6.5t-21 14.5v-217h-55v713h56v-384q0 -42 20.5 -62.5t49.5 -20.5t50 20.5t21 62.5v384h56v-509h-55z" />
    <glyph glyph-name="pi" unicode="&#x3c0;" horiz-adv-x="391" 
d="M322 0h-56v461h-141v-461h-56v509h253v-509z" />
    <glyph glyph-name="uni0400" unicode="&#x400;" horiz-adv-x="364" 
d="M69 0zM69 0v712h248v-53h-189v-276h163v-53h-163v-277h189v-53h-248zM177 764l-75 130h59l65 -130h-49z" />
    <glyph glyph-name="afii10023" unicode="&#x401;" horiz-adv-x="364" 
d="M69 0zM69 0v712h248v-53h-189v-276h163v-53h-163v-277h189v-53h-248zM231 784v63h63v-63h-63zM93 784v63h63v-63h-63z" />
    <glyph glyph-name="afii10051" unicode="&#x402;" horiz-adv-x="464" 
d="M418 207q0 -58 -10 -97.5t-29.5 -64t-48.5 -35t-66 -10.5h-15v53h12q54 0 76 36.5t22 117.5q0 80 -22 116.5t-76 36.5h-75v-360h-59v659h-105v53h296v-53h-132v-246h78q37 0 66 -10.5t48.5 -34.5t29.5 -63.5t10 -97.5z" />
    <glyph glyph-name="afii10052" unicode="&#x403;" horiz-adv-x="337" 
d="M69 0zM128 659v-659h-59v712h243v-53h-184zM191 764h-49l65 130h59z" />
    <glyph glyph-name="afii10053" unicode="&#x404;" horiz-adv-x="399" 
d="M357 163q0 -43 -12 -78.5t-38 -58.5q-18 -17 -41.5 -25.5t-55.5 -8.5q-35 0 -61.5 11t-44.5 31q-16 17 -26 38t-15 55.5t-7 89t-2 139.5t2 139.5t7 89t15 55.5t26 38q18 20 44.5 31t61.5 11q34 0 59 -10t43 -28q22 -22 33.5 -57t11.5 -76h-58q0 27 -6 52.5t-22 42.5
q-21 23 -61 23q-43 0 -63 -25q-11 -12 -17.5 -27.5t-10.5 -43t-5.5 -72.5t-1.5 -116h149v-53h-149q0 -72 1.5 -117t5.5 -73t10.5 -43t17.5 -27q20 -25 63 -25q40 0 61 23q16 17 22 42.5t6 52.5h58z" />
    <glyph glyph-name="afii10054" unicode="&#x405;" horiz-adv-x="396" 
d="M41 0zM350 186q0 -57 -10 -93.5t-34 -60.5q-18 -18 -45.5 -28t-65.5 -10q-74 0 -112 38q-12 12 -20 25.5t-13 30.5t-7 39t-2 51h59q0 -42 5.5 -66t22.5 -41q24 -24 67 -24q25 0 41 6.5t27 17.5q17 19 22.5 45t5.5 68q0 33 -3 56.5t-11.5 40.5t-23 28.5t-37.5 20.5l-76 31
q-27 11 -45.5 25.5t-29 35t-15 49t-4.5 68.5q0 46 12 82t37 59q40 38 104 38q68 0 107 -39q26 -26 34.5 -58.5t8.5 -79.5h-59q0 34 -5.5 57t-21.5 41q-11 12 -26.5 19t-38.5 7q-21 0 -36 -6t-26 -17q-17 -17 -24 -43t-7 -59q0 -31 3 -51.5t11 -35.5t23.5 -25.5t39.5 -20.5
l76 -31q29 -12 47 -28.5t28 -39.5t13.5 -53t3.5 -69z" />
    <glyph glyph-name="afii10055" unicode="&#x406;" horiz-adv-x="197" 
d="M69 0zM69 0v712h59v-712h-59z" />
    <glyph glyph-name="afii10056" unicode="&#x407;" horiz-adv-x="197" 
d="M0 0zM69 0v712h59v-712h-59zM137 784v63h63v-63h-63zM-1 784v63h63v-63h-63z" />
    <glyph glyph-name="afii10057" unicode="&#x408;" horiz-adv-x="332" 
d="M8 0zM271 153q0 -78 -42 -120q-21 -21 -48.5 -31t-59.5 -10q-71 0 -113 50l43 39q12 -17 30 -26.5t40 -9.5q38 0 64.5 27t26.5 81v559h59v-559z" />
    <glyph glyph-name="afii10058" unicode="&#x409;" horiz-adv-x="666" 
d="M620 199q0 -62 -12 -101t-33 -61t-49 -29.5t-60 -7.5h-140v659h-143v-323q0 -116 -12.5 -183t-33.5 -101t-48.5 -43t-57.5 -9h-17v53h8q20 0 39 6.5t33.5 35.5t23.5 88.5t9 165.5v363h258v-315h81q32 0 60 -7.5t49 -29t33 -60.5t12 -101zM561 199q0 45 -7 73.5t-20 44
t-31 21.5t-39 6h-79v-291h79q21 0 39 6t31 22t20 44.5t7 73.5z" />
    <glyph glyph-name="afii10059" unicode="&#x40a;" horiz-adv-x="645" 
d="M598 198q0 -63 -12 -101.5t-33 -60t-49 -29t-60 -7.5h-140v344h-176v-344h-59v712h59v-315h176v315h59v-315h81q38 0 66.5 -10t48 -33.5t29.5 -61.5t10 -94zM539 199q0 70 -20 107.5t-73 37.5h-83v-291h83q53 0 73 38t20 108z" />
    <glyph glyph-name="afii10060" unicode="&#x40b;" horiz-adv-x="469" 
d="M359 0v239q0 36 -6.5 59t-20 37t-33.5 19.5t-46 5.5h-67v-360h-59v659h-105v53h296v-53h-132v-246h74q78 0 118 -37t40 -128v-248h-59z" />
    <glyph glyph-name="afii10061" unicode="&#x40c;" horiz-adv-x="423" 
d="M68 0zM344 0l-215 371l200 341h66l-205 -338l222 -374h-68zM68 0v712h59v-712h-59zM242 764h-49l65 130h59z" />
    <glyph glyph-name="uni040D" unicode="&#x40d;" horiz-adv-x="444" 
d="M69 0zM69 0v712h59v-555l188 555h59v-712h-59v555l-189 -555h-58zM200 764l-75 130h59l65 -130h-49z" />
    <glyph glyph-name="afii10062" unicode="&#x40e;" horiz-adv-x="359" 
d="M4 0zM172 102q-10 -33 -23 -53.5t-30.5 -31t-40 -14t-51.5 -3.5v53q20 0 35 3t26 11t19 22.5t15 37.5l30 102l-148 483h64l113 -400l110 400h64zM295 857q-5 -53 -33 -77.5t-80 -24.5t-79.5 24.5t-32.5 77.5h48q6 -61 64 -61q59 0 65 61h48z" />
    <glyph glyph-name="afii10145" unicode="&#x40f;" horiz-adv-x="432" 
d="M244 0v-141h-57v141h-118v712h59v-659h176v659h59v-712h-119z" />
    <glyph glyph-name="afii10017" unicode="&#x410;" horiz-adv-x="379" 
d="M4 0zM311 0l-39 195h-166l-38 -195h-64l159 712h55l156 -712h-63zM189 606l-71 -358h143z" />
    <glyph glyph-name="afii10018" unicode="&#x411;" horiz-adv-x="416" 
d="M367 198q0 -63 -12 -101.5t-33 -60t-49 -29t-60 -7.5h-144v712h269v-53h-210v-262h85q38 0 66.5 -10t48 -33.5t29.5 -61.5t10 -94zM308 199q0 70 -20 107.5t-73 37.5h-87v-291h87q53 0 73 38t20 108z" />
    <glyph glyph-name="afii10019" unicode="&#x412;" horiz-adv-x="415" 
d="M69 0zM363 196q0 -33 -2.5 -57t-8 -42t-13.5 -31t-20 -25q-21 -22 -49.5 -31.5t-73.5 -9.5h-127v712h128q44 0 71.5 -9t48.5 -32q22 -24 31 -55t9 -87q0 -38 -8 -70.5t-35 -60.5q-22 -22 -45 -28q30 -8 50 -28q29 -29 36.5 -66t7.5 -80zM304 198q0 78 -27.5 111.5
t-78.5 33.5h-70v-290h70q25 0 45 6.5t33.5 23t20.5 44.5t7 71zM298 527q0 39 -6.5 64.5t-19 40.5t-31.5 21t-43 6h-70v-264h70q48 0 74 30t26 102z" />
    <glyph glyph-name="afii10020" unicode="&#x413;" horiz-adv-x="337" 
d="M128 659v-659h-59v712h243v-53h-184z" />
    <glyph glyph-name="afii10021" unicode="&#x414;" horiz-adv-x="455" 
d="M369 -119v119h-298v-119h-57v172h44q28 72 43 159.5t15 191.5v308h258v-659h52v-172h-57zM315 659h-143v-263q0 -99 -13 -184t-40 -159h196v606z" />
    <glyph glyph-name="afii10022" unicode="&#x415;" horiz-adv-x="364" 
d="M69 0zM69 0v712h248v-53h-189v-276h163v-53h-163v-277h189v-53h-248z" />
    <glyph glyph-name="afii10024" unicode="&#x416;" horiz-adv-x="632" 
d="M557 0l-206 371l191 341h66l-193 -338l206 -374h-64zM290 0v712h59v-712h-59zM75 0h-65l214 374l-200 338h65l199 -341z" />
    <glyph glyph-name="afii10025" unicode="&#x417;" horiz-adv-x="393" 
d="M340 186q0 -53 -8.5 -88.5t-36.5 -65.5q-19 -20 -46 -30t-60 -10q-63 0 -99 34q-26 25 -37 59.5t-12 77.5h59q0 -28 6 -53.5t23 -42.5q20 -22 60 -22q42 0 63 24q18 20 24 48.5t6 69.5q0 27 -2 46t-6 32.5t-10 23.5t-14 19q-24 24 -59 24h-59v51h59q36 0 58 23
q7 9 12.5 18.5t9.5 23t5.5 32t1.5 45.5q0 42 -3.5 69t-23.5 50q-21 23 -62 23q-40 0 -60 -22q-16 -17 -22.5 -42.5t-6.5 -53.5h-58q0 42 10.5 75.5t33.5 56.5q18 18 43 28.5t60 10.5q67 0 105 -39q29 -31 36 -69t7 -86q0 -28 -2 -48t-6 -34.5t-10 -25.5t-13 -21
q-19 -24 -46 -38q30 -18 47 -37q8 -10 14.5 -21.5t10.5 -27t6 -36.5t2 -51z" />
    <glyph glyph-name="afii10026" unicode="&#x418;" horiz-adv-x="444" 
d="M69 0v712h59v-555l188 555h59v-712h-59v555l-189 -555h-58z" />
    <glyph glyph-name="afii10027" unicode="&#x419;" horiz-adv-x="444" 
d="M69 0zM69 0v712h59v-555l188 555h59v-712h-59v555l-189 -555h-58zM336 857q-5 -53 -33 -77.5t-80 -24.5t-79.5 24.5t-32.5 77.5h48q6 -61 64 -61q59 0 65 61h48z" />
    <glyph glyph-name="afii10028" unicode="&#x41a;" horiz-adv-x="423" 
d="M344 0l-215 371l200 341h66l-205 -338l222 -374h-68zM68 0v712h59v-712h-59z" />
    <glyph glyph-name="afii10029" unicode="&#x41b;" horiz-adv-x="453" 
d="M325 0v659h-142v-323q0 -116 -12.5 -183t-33.5 -101t-48.5 -43t-57.5 -9h-17v53h8q20 0 39 6.5t33.5 35.5t23.5 88.5t9 165.5v363h257v-712h-59z" />
    <glyph glyph-name="afii10030" unicode="&#x41c;" horiz-adv-x="557" 
d="M69 0zM429 0v573l-130 -376h-43l-128 364v-561h-59v712h59l150 -419l151 419h59v-712h-59z" />
    <glyph glyph-name="afii10031" unicode="&#x41d;" horiz-adv-x="432" 
d="M69 0zM304 0v336h-176v-336h-59v712h59v-323h176v323h59v-712h-59z" />
    <glyph glyph-name="afii10032" unicode="&#x41e;" horiz-adv-x="421" 
d="M54 0zM367 356q0 -85 -2 -139.5t-7 -89t-15 -55.5t-26 -38q-18 -20 -45 -31t-62 -11t-61.5 11t-44.5 31q-16 17 -26 38t-15 55.5t-7 89t-2 139.5t2 139.5t7 89t15 55.5t26 38q18 20 44.5 31t61.5 11t62 -11t45 -31q16 -17 26 -38t15 -55.5t7 -89t2 -139.5zM308 356
q0 78 -1 127.5t-5 80.5t-10.5 47.5t-17.5 29.5q-23 26 -64 26q-40 0 -63 -26q-11 -13 -17.5 -29.5t-10.5 -47.5t-5 -80.5t-1 -127.5t1 -127.5t5 -80.5t10.5 -47.5t17.5 -29.5q23 -26 63 -26q21 0 37 7t27 19q11 13 17.5 29.5t10.5 47.5t5 80.5t1 127.5z" />
    <glyph glyph-name="afii10033" unicode="&#x41f;" horiz-adv-x="432" 
d="M304 0v659h-177v-659h-58v712h294v-712h-59z" />
    <glyph glyph-name="afii10034" unicode="&#x420;" horiz-adv-x="410" 
d="M69 0zM363 513q0 -63 -12.5 -101.5t-33.5 -60t-49 -29t-59 -7.5h-81v-315h-59v712h140q31 0 59 -7.5t49 -29.5t33.5 -60.5t12.5 -101.5zM304 513q0 45 -7 73.5t-20 44.5t-31 22t-40 6h-78v-291h78q22 0 40 6t31 21.5t20 44t7 73.5z" />
    <glyph glyph-name="afii10035" unicode="&#x421;" horiz-adv-x="399" 
d="M54 0zM358 163q-1 -42 -13 -78t-37 -59q-37 -34 -98 -34q-35 0 -61.5 11t-44.5 31q-16 17 -26 38t-15 55.5t-7 89t-2 139.5t2 139.5t7 89t15 55.5t26 38q18 20 44.5 31t61.5 11t59.5 -10t42.5 -28q23 -23 34 -57.5t12 -75.5h-59q0 27 -6 52t-22 42q-11 11 -25.5 17.5
t-35.5 6.5q-40 0 -63 -26q-11 -13 -17.5 -29.5t-10.5 -47.5t-5 -80.5t-1 -127.5t1 -127.5t5 -80.5t10.5 -47.5t17.5 -29.5q23 -26 63 -26q21 0 36 6.5t25 17.5q16 17 22 42.5t6 51.5h59z" />
    <glyph glyph-name="afii10036" unicode="&#x422;" horiz-adv-x="341" 
d="M22 0zM200 659v-659h-59v659h-119v53h297v-53h-119z" />
    <glyph glyph-name="afii10037" unicode="&#x423;" horiz-adv-x="359" 
d="M172 102q-10 -33 -23 -53.5t-30.5 -31t-40 -14t-51.5 -3.5v53q20 0 35 3t26 11t19 22.5t15 37.5l30 102l-148 483h64l113 -400l110 400h64z" />
    <glyph glyph-name="afii10038" unicode="&#x424;" horiz-adv-x="515" 
d="M470 379q0 -74 -7.5 -129t-27.5 -91.5t-55.5 -55.5t-91.5 -22v-85h-59v85q-56 3 -91.5 22t-56 55.5t-28 91.5t-7.5 129t7.5 128.5t28 91.5t56 56t91.5 22v60h59v-60q56 -3 91.5 -22t55.5 -56t27.5 -91.5t7.5 -128.5zM411 379q0 64 -4.5 110t-18 75.5t-37.5 44t-63 16.5
v-491q39 2 63 16.5t37.5 44t18 75t4.5 109.5zM229 625q-39 -2 -63 -16.5t-37.5 -44t-18.5 -75.5t-5 -110t5 -109.5t18.5 -75t37.5 -44t63 -16.5v491z" />
    <glyph glyph-name="afii10039" unicode="&#x425;" horiz-adv-x="372" 
d="M19 0zM289 0l-103 308l-102 -308h-65l132 371l-121 341h65l91 -282l92 282h64l-124 -341l135 -371h-64z" />
    <glyph glyph-name="afii10040" unicode="&#x426;" horiz-adv-x="444" 
d="M358 -141v141h-289v712h59v-659h176v659h59v-659h52v-194h-57z" />
    <glyph glyph-name="afii10041" unicode="&#x427;" horiz-adv-x="425" 
d="M298 0v266q-51 -9 -96 -9q-30 0 -54.5 7t-42.5 24t-28 46.5t-10 73.5v304h59v-298q0 -33 6.5 -53.5t18 -31.5t26.5 -15t33 -4q23 0 44 1.5t44 6.5v394h59v-712h-59z" />
    <glyph glyph-name="afii10042" unicode="&#x428;" horiz-adv-x="644" 
d="M69 0v712h59v-659h165v659h59v-659h165v659h59v-712h-507z" />
    <glyph glyph-name="afii10043" unicode="&#x429;" horiz-adv-x="656" 
d="M576 53h52v-194h-57v141h-502v712h59v-659h165v659h59v-659h165v659h59v-659z" />
    <glyph glyph-name="afii10044" unicode="&#x42a;" horiz-adv-x="470" 
d="M22 712h167v-315h81q38 0 66.5 -10t48 -33.5t29.5 -61.5t10 -94q0 -63 -12 -101.5t-33 -60t-49 -29t-60 -7.5h-140v659h-108v53zM365 199q0 70 -20 107.5t-73 37.5h-83v-291h83q53 0 73 38t20 108z" />
    <glyph glyph-name="afii10045" unicode="&#x42b;" horiz-adv-x="559" 
d="M69 0zM363 198q0 -63 -12 -101.5t-33 -60t-49 -29t-60 -7.5h-140v712h59v-315h81q38 0 66.5 -10t48 -33.5t29.5 -61.5t10 -94zM304 199q0 70 -20 107.5t-73 37.5h-83v-291h83q53 0 73 38t20 108zM431 0v712h59v-712h-59z" />
    <glyph glyph-name="afii10046" unicode="&#x42c;" horiz-adv-x="409" 
d="M363 198q0 -63 -12 -101.5t-33 -60t-49 -29t-60 -7.5h-140v712h59v-315h81q38 0 66.5 -10t48 -33.5t29.5 -61.5t10 -94zM304 199q0 70 -20 107.5t-73 37.5h-83v-291h83q53 0 73 38t20 108z" />
    <glyph glyph-name="afii10047" unicode="&#x42d;" horiz-adv-x="399" 
d="M133 383h153q0 70 -2 114.5t-5.5 72t-10 43.5t-16.5 28q-23 26 -63 26t-61 -24q-16 -17 -22 -42t-6 -52h-59q1 41 12 75.5t34 57.5q18 18 42.5 28t59.5 10t61.5 -11t44.5 -31q16 -17 26 -38t15 -55.5t7 -89t2 -139.5t-2 -139.5t-7 -89t-15 -55.5t-26 -38
q-18 -20 -44.5 -31t-61.5 -11q-61 0 -98 34q-25 23 -37 59t-13 78h59q0 -26 6 -51.5t22 -42.5q11 -11 25.5 -17.5t35.5 -6.5q42 0 63 26q10 12 16.5 28t10 44t5.5 72.5t2 114.5h-153v53z" />
    <glyph glyph-name="afii10048" unicode="&#x42e;" horiz-adv-x="589" 
d="M536 356q0 -85 -2 -139.5t-7 -89t-15 -55.5t-26 -38q-18 -20 -45 -31t-62 -11t-61.5 11t-44.5 31q-16 16 -25.5 36t-15 53t-7.5 83.5t-2 128.5h-95v-335h-59v712h59v-324h95q0 74 2.5 122.5t7.5 80t15 51t25 36.5q18 20 44.5 31t61.5 11t62 -11t45 -31q16 -17 26 -38
t15 -55.5t7 -89t2 -139.5zM477 356q0 78 -1 127.5t-5 80.5t-10.5 47.5t-17.5 29.5q-23 26 -64 26q-40 0 -63 -26q-11 -13 -17.5 -29.5t-10.5 -47.5t-5 -80.5t-1 -127.5t1 -127.5t5 -80.5t10.5 -47.5t17.5 -29.5q23 -26 63 -26q21 0 37 7t27 19q11 13 17.5 29.5t10.5 47.5
t5 80.5t1 127.5z" />
    <glyph glyph-name="afii10049" unicode="&#x42f;" horiz-adv-x="398" 
d="M17 0l111 330q-44 17 -66 59.5t-22 125.5q0 62 12 100.5t33 60t49 29t60 7.5h140v-712h-59v319h-92l-103 -319h-63zM99 515q0 -69 19.5 -106t73.5 -37h83v287h-83q-54 0 -73.5 -37.5t-19.5 -106.5z" />
    <glyph glyph-name="afii10065" unicode="&#x430;" horiz-adv-x="352" 
d="M37 0zM240 0v46q-5 -11 -13 -20t-15 -14q-12 -9 -26 -14.5t-35 -5.5q-48 0 -81 34q-14 15 -23.5 44t-9.5 71q0 36 10.5 65.5t32.5 49.5q19 17 42 25.5t58 8.5h58v91q0 42 -17.5 64.5t-52.5 22.5q-15 0 -26.5 -5.5t-19.5 -13.5q-12 -13 -17.5 -29t-5.5 -42h-56
q0 29 7.5 56t29.5 49q16 16 38 25t50 9q61 0 91 -32q17 -18 26 -43t9 -63v-379h-54zM238 246h-56q-20 0 -34.5 -5t-27.5 -17q-13 -13 -20 -34.5t-7 -47.5q0 -46 17 -73t54 -27q34 0 54 26t20 66v112z" />
    <glyph glyph-name="afii10066" unicode="&#x431;" horiz-adv-x="359" 
d="M314 254q0 -90 -7.5 -142t-30.5 -80q-34 -40 -94 -40t-94 40q-23 28 -30.5 80t-7.5 142q0 102 1 166t5 104.5t11.5 63.5t19.5 43q28 45 79.5 63t127.5 20v-51q-58 -2 -97.5 -12t-59.5 -42q-18 -29 -23.5 -63.5t-8.5 -82.5q14 24 37 38t53 14q22 0 42.5 -8.5t37.5 -28.5
q24 -26 31.5 -77.5t7.5 -146.5zM258 254q0 82 -4.5 125.5t-21.5 64.5q-8 10 -20.5 16.5t-29.5 6.5t-30 -6.5t-21 -16.5q-17 -21 -21 -64.5t-4 -125.5t4 -125.5t21 -63.5q18 -23 51 -23q32 0 50 23q17 20 21.5 63.5t4.5 125.5z" />
    <glyph glyph-name="afii10067" unicode="&#x432;" horiz-adv-x="360" 
d="M261 145q0 53 -22 75t-61 22h-60v-192h60q39 0 61 19.5t22 75.5zM255 374q0 50 -20.5 67.5t-56.5 17.5h-60v-172h60q36 0 56.5 19.5t20.5 67.5zM317 143q0 -45 -9.5 -69t-27.5 -42q-16 -16 -40 -24t-62 -8h-116v509h115q36 0 59.5 -6.5t40.5 -23.5q19 -17 26.5 -40.5
t7.5 -61.5q0 -29 -8 -52t-27 -40q-13 -11 -30 -18q20 -7 34 -19q23 -18 30 -45.5t7 -59.5z" />
    <glyph glyph-name="afii10068" unicode="&#x433;" horiz-adv-x="288" 
d="M273 459h-155v-459h-56v509h211v-50z" />
    <glyph glyph-name="afii10069" unicode="&#x434;" horiz-adv-x="399" 
d="M319 -124v124h-249v-124h-56v174h45q12 29 20.5 56.5t14 60.5t8 74.5t2.5 97.5v170h226v-459h44v-174h-55zM273 459h-115v-125q0 -56 -2 -97t-7 -73t-12.5 -59t-18.5 -55h155v409z" />
    <glyph glyph-name="afii10070" unicode="&#x435;" horiz-adv-x="349" 
d="M45 0zM101 246q0 -78 4.5 -119.5t21.5 -61.5q8 -10 21 -16.5t30 -6.5q15 0 28.5 4.5t23.5 15.5q22 23 22 72h55q0 -37 -8.5 -62t-28.5 -45q-34 -35 -92 -35q-57 0 -92 37q-25 27 -33 80.5t-8 144.5q0 92 7.5 145t33.5 81q34 37 91 37t91 -37q25 -28 33 -82.5t8 -151.5
h-208zM253 291q-1 66 -6 101t-20 52q-8 10 -20.5 16.5t-29.5 6.5t-30 -6.5t-21 -16.5q-15 -17 -19.5 -52t-5.5 -101h152z" />
    <glyph glyph-name="afii10072" unicode="&#x436;" horiz-adv-x="529" 
d="M457 0l-162 264l152 245h63l-155 -242l166 -267h-64zM237 0v509h56v-509h-56zM73 0h-65l167 267l-155 242h62l153 -245z" />
    <glyph glyph-name="afii10073" unicode="&#x437;" horiz-adv-x="339" 
d="M296 136q0 -46 -9 -70.5t-31 -45.5q-15 -13 -37.5 -20.5t-52.5 -7.5q-57 0 -88 28q-21 19 -31 47.5t-11 62.5h56q0 -22 6 -41.5t19 -31.5q17 -15 49 -15q17 0 29 4t21 12q14 12 19 30.5t5 49.5q0 37 -6 54t-19 28q-11 9 -22.5 12.5t-29.5 3.5h-39v47h39q32 0 49 17
q12 11 18 27t6 48q0 28 -4.5 46t-18.5 31q-8 8 -19 11.5t-28 3.5t-30 -4.5t-21 -12.5q-13 -13 -18 -31.5t-5 -39.5h-56q1 32 10 58.5t28 45.5q16 16 38.5 25t53.5 9q30 0 50.5 -6t37.5 -22q21 -19 29.5 -45t8.5 -66q0 -37 -7 -55.5t-19 -32.5q-7 -8 -16.5 -15.5t-20.5 -12.5
q20 -9 36 -23t23.5 -36t7.5 -67z" />
    <glyph glyph-name="afii10074" unicode="&#x438;" horiz-adv-x="391" 
d="M272 0v388l-157 -388h-53v509h56v-388l157 388h53v-509h-56z" />
    <glyph glyph-name="afii10075" unicode="&#x439;" horiz-adv-x="391" 
d="M62 0zM272 0v388l-157 -388h-53v509h56v-388l157 388h53v-509h-56zM307 684q-4 -54 -32 -78.5t-80 -24.5t-80 24.5t-33 78.5h48q6 -61 65 -61q58 0 64 61h48z" />
    <glyph glyph-name="afii10076" unicode="&#x43a;" horiz-adv-x="358" 
d="M283 0l-163 264l153 245h62l-154 -242l166 -267h-64zM63 0v509h56v-509h-56z" />
    <glyph glyph-name="afii10077" unicode="&#x43b;" horiz-adv-x="387" 
d="M269 0v459h-112v-262q0 -59 -9.5 -97t-26 -60t-39.5 -31t-51 -9h-17v49h9q12 0 26 4t25.5 20.5t19 49t7.5 88.5v298h224v-509h-56z" />
    <glyph glyph-name="afii10078" unicode="&#x43c;" horiz-adv-x="475" 
d="M357 0v385l-100 -241h-40l-99 241v-385h-56v509h53l122 -297l123 297h53v-509h-56z" />
    <glyph glyph-name="afii10079" unicode="&#x43d;" horiz-adv-x="374" 
d="M255 0v237h-137v-237h-56v509h56v-222h137v222h56v-509h-56z" />
    <glyph glyph-name="afii10080" unicode="&#x43e;" horiz-adv-x="353" 
d="M45 0zM309 254q0 -90 -7.5 -142t-30.5 -80q-33 -40 -94 -40t-94 40q-23 28 -30.5 80t-7.5 142t7.5 142t30.5 80q33 41 94 41t94 -41q23 -28 30.5 -80t7.5 -142zM253 254q0 82 -4.5 125.5t-21.5 64.5q-8 10 -20.5 16.5t-29.5 6.5t-30 -6.5t-21 -16.5q-17 -21 -21 -64.5
t-4 -125.5t4 -125t21 -64q8 -10 21 -16.5t30 -6.5t29.5 6.5t20.5 16.5q17 21 21.5 64t4.5 125z" />
    <glyph glyph-name="afii10081" unicode="&#x43f;" horiz-adv-x="374" 
d="M255 0v459h-137v-459h-56v509h249v-509h-56z" />
    <glyph glyph-name="afii10082" unicode="&#x440;" horiz-adv-x="365" 
d="M62 0zM321 254q0 -95 -7.5 -147t-30.5 -79q-16 -18 -34.5 -27t-44.5 -9q-35 0 -58 16q-7 5 -15 13.5t-13 16.5v-241h-56v712h55v-41q4 8 13 17t16 14q12 8 26 13t32 5q47 0 79 -36q23 -27 30.5 -79.5t7.5 -147.5zM265 254q0 43 -1 74.5t-3.5 54t-7.5 37t-14 24.5
q-8 10 -20.5 16.5t-28.5 6.5q-29 0 -48 -19q-24 -23 -24 -70v-247q0 -48 24 -70q19 -19 48 -19q16 0 28.5 6t20.5 16q9 10 14 25t7.5 37t3.5 53.5t1 74.5z" />
    <glyph glyph-name="afii10083" unicode="&#x441;" horiz-adv-x="340" 
d="M45 0zM303 134q-1 -36 -8.5 -62.5t-27.5 -46.5q-33 -33 -90 -33q-60 0 -94 40q-23 27 -30.5 79.5t-7.5 142.5t7.5 142.5t30.5 79.5q33 41 94 41q29 0 51 -7.5t39 -24.5q23 -22 29 -50.5t7 -60.5h-55q0 20 -3 38.5t-17 33.5q-18 21 -50 21q-34 0 -52 -23
q-17 -21 -21 -64.5t-4 -125.5t4 -125t21 -64q18 -23 52 -23q29 0 49 20q13 14 17 31.5t4 40.5h55z" />
    <glyph glyph-name="afii10084" unicode="&#x442;" horiz-adv-x="288" 
d="M172 459v-459h-56v459h-100v50h257v-50h-101z" />
    <glyph glyph-name="afii10085" unicode="&#x443;" horiz-adv-x="308" 
d="M4 0zM157 -99q-14 -59 -52 -81.5t-96 -22.5v50q42 0 63.5 16.5t29.5 48.5l23 90l-121 507h62l87 -420l87 420h61z" />
    <glyph glyph-name="afii10086" unicode="&#x444;" horiz-adv-x="479" 
d="M435 254q0 -46 -2.5 -80t-8 -59t-15 -43.5t-24.5 -32.5q-23 -23 -52 -33t-65 -11v-198h-56v198q-38 1 -67.5 12t-49.5 32q-15 14 -24.5 33t-15.5 44.5t-8 59.5t-2 78q0 89 10 138t39 78q41 42 118 44v198h56v-198q38 -1 66 -11.5t48 -29.5q16 -15 26.5 -34t16.5 -44.5
t8 -60t2 -80.5zM378 254q0 81 -7 122t-30 62q-12 11 -30.5 18.5t-42.5 7.5v-419q24 0 42.5 7.5t30.5 18.5q23 21 30 62t7 121zM212 464q-24 0 -43 -7.5t-30 -18.5q-23 -21 -30.5 -62t-7.5 -122q0 -42 1.5 -72t6 -51t12 -35t18.5 -25t30 -18.5t43 -7.5v419z" />
    <glyph glyph-name="afii10087" unicode="&#x445;" horiz-adv-x="321" 
d="M17 0zM242 0l-81 210l-82 -210h-62l112 259l-106 250h62l76 -202l75 202h62l-108 -250l114 -259h-62z" />
    <glyph glyph-name="afii10088" unicode="&#x446;" horiz-adv-x="381" 
d="M303 -124v124h-241v509h56v-459h137v459h56v-459h45v-174h-53z" />
    <glyph glyph-name="afii10089" unicode="&#x447;" horiz-adv-x="339" 
d="M221 0v178q-18 -4 -36.5 -5.5t-36.5 -1.5q-22 0 -41.5 5.5t-34.5 18.5t-23.5 34.5t-8.5 53.5v226h56v-219q0 -22 4.5 -35.5t13 -21t19 -10t22.5 -2.5q16 0 32.5 1t33.5 5v282h56v-509h-56z" />
    <glyph glyph-name="afii10090" unicode="&#x448;" horiz-adv-x="530" 
d="M62 0v509h56v-459h119v459h56v-459h118v459h56v-509h-405z" />
    <glyph glyph-name="afii10091" unicode="&#x449;" horiz-adv-x="537" 
d="M458 -124v124h-396v509h56v-459h119v459h56v-459h118v459h56v-459h45v-174h-54z" />
    <glyph glyph-name="afii10092" unicode="&#x44a;" horiz-adv-x="390" 
d="M356 147q0 -75 -30.5 -111t-99.5 -36h-124v459h-86v50h142v-214h68q69 0 99.5 -36.5t30.5 -111.5zM299 147q0 52 -18.5 75t-58.5 23h-64v-195h64q40 0 58.5 23t18.5 74z" />
    <glyph glyph-name="afii10093" unicode="&#x44b;" horiz-adv-x="490" 
d="M62 0zM118 509v-214h68q69 0 99.5 -36.5t30.5 -111.5t-30.5 -111t-99.5 -36h-124v509h56zM259 147q0 52 -18.5 75t-58.5 23h-64v-195h64q40 0 58.5 23t18.5 74zM372 0v509h56v-509h-56z" />
    <glyph glyph-name="afii10094" unicode="&#x44c;" horiz-adv-x="350" 
d="M118 509v-214h68q69 0 99.5 -36.5t30.5 -111.5t-30.5 -111t-99.5 -36h-124v509h56zM259 147q0 52 -18.5 75t-58.5 23h-64v-195h64q40 0 58.5 23t18.5 74z" />
    <glyph glyph-name="afii10095" unicode="&#x44d;" horiz-adv-x="343" 
d="M299 254q0 -90 -7.5 -142t-30.5 -79q-17 -20 -41.5 -30.5t-53.5 -10.5q-27 0 -48.5 6t-38.5 21q-21 19 -31 48.5t-11 61.5h54q1 -21 7 -40.5t18 -30.5q16 -16 50 -16t52 23q16 19 20.5 57.5t4.5 114.5h-130v48h130q0 67 -4 103.5t-21 55.5q-18 23 -52 23t-52 -18
q-12 -12 -17 -30.5t-6 -39.5h-54q1 32 10 60t28 46q14 14 37.5 23t53.5 9q29 0 53.5 -10.5t41.5 -30.5q23 -27 30.5 -79.5t7.5 -142.5z" />
    <glyph glyph-name="afii10096" unicode="&#x44e;" horiz-adv-x="502" 
d="M457 254q0 -90 -7.5 -142t-30.5 -79q-33 -41 -94 -41t-94 41q-11 13 -18 29.5t-11.5 40t-6.5 56t-2 77.5h-75v-236h-56v509h56v-223h75q1 77 9.5 121.5t28.5 68.5q33 41 94 41t94 -41q23 -27 30.5 -79.5t7.5 -142.5zM401 254q0 82 -4.5 125.5t-21.5 64.5
q-8 10 -20.5 16.5t-29.5 6.5t-29.5 -6.5t-20.5 -16.5q-17 -21 -21.5 -64.5t-4.5 -125.5q0 -81 4.5 -124.5t21.5 -64.5q8 -10 20.5 -16.5t29.5 -6.5t29.5 6.5t20.5 16.5q17 21 21.5 64.5t4.5 124.5z" />
    <glyph glyph-name="afii10097" unicode="&#x44f;" horiz-adv-x="349" 
d="M231 0v219h-68l-75 -219h-59l82 229q-35 17 -51 50.5t-16 84.5q0 72 29.5 108.5t95.5 36.5h118v-509h-56zM231 460h-60q-38 0 -54.5 -23t-16.5 -73q0 -48 16.5 -72t54.5 -24h60v192z" />
    <glyph glyph-name="uni0450" unicode="&#x450;" horiz-adv-x="349" 
d="M45 0zM101 246q0 -78 4.5 -119.5t21.5 -61.5q8 -10 21 -16.5t30 -6.5q15 0 28.5 4.5t23.5 15.5q22 23 22 72h55q0 -37 -8.5 -62t-28.5 -45q-34 -35 -92 -35q-57 0 -92 37q-25 27 -33 80.5t-8 144.5q0 92 7.5 145t33.5 81q34 37 91 37t91 -37q25 -28 33 -82.5t8 -151.5
h-208zM253 291q-1 66 -6 101t-20 52q-8 10 -20.5 16.5t-29.5 6.5t-30 -6.5t-21 -16.5q-15 -17 -19.5 -52t-5.5 -101h152zM158 586l-75 130h58l66 -130h-49z" />
    <glyph glyph-name="afii10071" unicode="&#x451;" horiz-adv-x="349" 
d="M45 0zM101 246q0 -78 4.5 -119.5t21.5 -61.5q8 -10 21 -16.5t30 -6.5q15 0 28.5 4.5t23.5 15.5q22 23 22 72h55q0 -37 -8.5 -62t-28.5 -45q-34 -35 -92 -35q-57 0 -92 37q-25 27 -33 80.5t-8 144.5q0 92 7.5 145t33.5 81q34 37 91 37t91 -37q25 -28 33 -82.5t8 -151.5
h-208zM253 291q-1 66 -6 101t-20 52q-8 10 -20.5 16.5t-29.5 6.5t-30 -6.5t-21 -16.5q-15 -17 -19.5 -52t-5.5 -101h152zM214 606v63h63v-63h-63zM76 606v63h64v-63h-64z" />
    <glyph glyph-name="afii10099" unicode="&#x452;" 
d="M315 -55q0 -37 -10 -60t-27 -38q-20 -18 -43.5 -24t-50.5 -6v50q35 0 55 17t20 61v438q0 42 -20.5 62.5t-50.5 20.5q-29 0 -49.5 -20.5t-20.5 -62.5v-383h-56v586h-57v42h57v84h56v-84h147v-42h-147v-116q5 8 12.5 16t14.5 13q26 18 58 18q26 0 45.5 -9t35.5 -26
q15 -16 23 -39t8 -61v-437z" />
    <glyph glyph-name="afii10100" unicode="&#x453;" horiz-adv-x="288" 
d="M62 0zM273 459h-155v-459h-56v509h211v-50zM175 586h-49l65 130h58z" />
    <glyph glyph-name="afii10101" unicode="&#x454;" horiz-adv-x="343" 
d="M45 254q0 90 7.5 142.5t30.5 79.5q17 20 41.5 30.5t53.5 10.5q30 0 53.5 -9t37.5 -23q19 -18 28 -46t10 -60h-54q-1 21 -6 39.5t-17 30.5q-18 18 -52 18t-52 -23q-17 -19 -21 -55.5t-4 -103.5h130v-48h-130q0 -38 1 -66t3.5 -48.5t7.5 -34.5t13 -23q18 -23 52 -23t50 16
q12 11 18 30.5t7 40.5h54q-1 -32 -11 -61.5t-31 -48.5q-17 -15 -38.5 -21t-48.5 -6q-29 0 -53.5 10.5t-41.5 30.5q-23 27 -30.5 79t-7.5 142z" />
    <glyph glyph-name="afii10102" unicode="&#x455;" horiz-adv-x="336" 
d="M33 0zM303 130q0 -30 -11 -55.5t-29 -43.5q-39 -39 -97 -39q-57 0 -93 36q-22 23 -31 50.5t-9 59.5h56q0 -24 6 -42.5t20 -32.5q21 -21 51 -21q35 0 58 23t23 63q0 33 -14 55q-16 25 -51 44l-64 35q-24 14 -41 30t-25 30q-14 27 -14 64q0 29 11 53.5t29 42.5q35 35 91 35
q57 0 91 -34q37 -37 37 -110h-56q0 29 -5 45t-17 29q-11 11 -23.5 15.5t-26.5 4.5q-34 0 -53 -19q-12 -11 -17 -27.5t-5 -32.5q0 -27 10 -44q5 -10 17.5 -19t29.5 -19l63 -36q49 -27 69 -60q11 -17 15.5 -37.5t4.5 -42.5z" />
    <glyph glyph-name="afii10103" unicode="&#x456;" horiz-adv-x="181" 
d="M54 0zM62 0v509h56v-509h-56zM54 626v72h72v-72h-72z" />
    <glyph glyph-name="afii10104" unicode="&#x457;" horiz-adv-x="181" 
d="M0 0zM63 0v509h56v-509h-56zM129 606v63h63v-63h-63zM-9 606v63h64v-63h-64z" />
    <glyph glyph-name="afii10105" unicode="&#x458;" horiz-adv-x="181" 
d="M0 0zM118 -68q0 -38 -10 -62t-28 -41q-21 -20 -46.5 -26t-54.5 -6v50q38 0 60.5 19t22.5 67v576h56v-577zM54 626v72h72v-72h-72z" />
    <glyph glyph-name="afii10106" unicode="&#x459;" horiz-adv-x="556" 
d="M523 147q0 -75 -30.5 -111t-100.5 -36h-123v459h-112v-262q0 -59 -9.5 -97t-26 -60t-39.5 -31t-51 -9h-17v48h9q12 0 26 4t25.5 20.5t19 49t7.5 89.5v298h224v-214h67q70 0 100.5 -36.5t30.5 -111.5zM466 147q0 52 -19 75t-58 23h-64v-195h64q39 0 58 22.5t19 74.5z" />
    <glyph glyph-name="afii10107" unicode="&#x45a;" horiz-adv-x="543" 
d="M509 147q0 -75 -30.5 -111t-99.5 -36h-124v246h-137v-246h-56v509h56v-215h137v215h56v-215h68q69 0 99.5 -36t30.5 -111zM453 147q0 52 -19 75.5t-59 23.5h-64v-196h64q40 0 59 23t19 74z" />
    <glyph glyph-name="afii10108" unicode="&#x45b;" 
d="M259 0v383q0 42 -20.5 62.5t-49.5 20.5t-50 -20.5t-21 -62.5v-383h-56v586h-57v42h57v84h56v-84h147v-42h-147v-116q5 8 13 16t15 13q26 18 58 18q26 0 45.5 -9t35.5 -26q15 -16 22.5 -39t7.5 -61v-382h-56z" />
    <glyph glyph-name="afii10109" unicode="&#x45c;" horiz-adv-x="358" 
d="M63 0zM283 0l-163 264l153 245h62l-154 -242l166 -267h-64zM63 0v509h56v-509h-56zM204 586h-49l65 130h58z" />
    <glyph glyph-name="uni045D" unicode="&#x45d;" horiz-adv-x="391" 
d="M62 0zM272 0v388l-157 -388h-53v509h56v-388l157 388h53v-509h-56zM173 586l-75 130h58l66 -130h-49z" />
    <glyph glyph-name="afii10110" unicode="&#x45e;" horiz-adv-x="308" 
d="M4 0zM157 -99q-14 -59 -52 -81.5t-96 -22.5v50q42 0 63.5 16.5t29.5 48.5l23 90l-121 507h62l87 -420l87 420h61zM267 684q-4 -54 -32 -78.5t-80 -24.5t-80 24.5t-33 78.5h48q6 -61 65 -61q58 0 64 61h48z" />
    <glyph glyph-name="afii10193" unicode="&#x45f;" horiz-adv-x="374" 
d="M214 0v-124h-54v124h-98v509h56v-459h137v459h56v-509h-97z" />
    <glyph glyph-name="afii10146" unicode="&#x462;" horiz-adv-x="412" 
d="M366 198q0 -63 -12 -101.5t-33 -60t-49 -29t-60 -7.5h-140v556h-52v49h52v107h59v-107h92v-49h-92v-159h81q38 0 66.5 -10t48 -33.5t29.5 -61.5t10 -94zM307 199q0 70 -20 107.5t-73 37.5h-83v-291h83q53 0 73 38t20 108z" />
    <glyph glyph-name="afii10194" unicode="&#x463;" horiz-adv-x="362" 
d="M130 393v-98h68q69 0 99.5 -36.5t30.5 -111.5t-30.5 -111t-99.5 -36h-124v393h-58v42h58v74h56v-74h90v-42h-90zM271 147q0 52 -18.5 75t-58.5 23h-64v-195h64q40 0 58.5 23t18.5 74z" />
    <glyph glyph-name="afii10147" unicode="&#x472;" horiz-adv-x="421" 
d="M367 356q0 -82 -1.5 -135.5t-6.5 -89t-15 -57.5t-27 -40q-18 -20 -45 -31t-62 -11t-61.5 11t-44.5 31q-17 18 -27 40t-15 57.5t-6.5 89t-1.5 135.5t1.5 135.5t6.5 89t15 57.5t27 40q18 20 44.5 31t61.5 11t62 -11t45 -31q17 -18 27 -40t15 -57.5t6.5 -89t1.5 -135.5z
M274 71q10 12 16.5 28t10 44t5.5 72.5t2 114.5h-195q0 -70 1.5 -114.5t5 -72.5t10 -44t17.5 -28t26 -19t37 -7t37.5 7t26.5 19zM147 641q-11 -13 -17.5 -29t-10 -44t-5 -72t-1.5 -113h195q0 69 -2 113t-5.5 72t-10 44t-16.5 29q-23 26 -64 26q-22 0 -37 -7t-26 -19z" />
    <glyph glyph-name="afii10195" unicode="&#x473;" horiz-adv-x="353" 
d="M309 254q0 -90 -7.5 -142t-30.5 -80q-33 -40 -94 -40t-94 40q-23 28 -30.5 80t-7.5 142t7.5 142t30.5 80q33 41 94 41t94 -41q23 -28 30.5 -80t7.5 -142zM227 65q17 20 21.5 61.5t4.5 119.5h-152q0 -77 4 -119t21 -62q8 -10 21 -16.5t30 -6.5t29.5 6.5t20.5 16.5z
M126 444q-15 -19 -20 -54.5t-5 -98.5h152q-1 63 -6 98.5t-20 54.5q-8 10 -20.5 16.5t-29.5 6.5t-30 -6.5t-21 -16.5z" />
    <glyph glyph-name="afii10148" unicode="&#x474;" horiz-adv-x="438" 
d="M281 610q11 60 46 81t99 21v-53q-39 0 -59 -17.5t-28 -56.5l-125 -585h-58l-152 712h65l116 -606z" />
    <glyph glyph-name="afii10196" unicode="&#x475;" horiz-adv-x="381" 
d="M182 0h-59l-119 509h62l87 -421l65 317q12 59 51 81.5t97 22.5v-50q-41 0 -62.5 -16.5t-29.5 -48.5z" />
    <glyph glyph-name="afii10050" unicode="&#x490;" horiz-adv-x="337" 
d="M128 659v-659h-59v712h186v89h57v-142h-184z" />
    <glyph glyph-name="afii10098" unicode="&#x491;" horiz-adv-x="288" 
d="M118 459v-459h-56v509h157v117h54v-167h-155z" />
    <glyph glyph-name="uni0492" unicode="&#x492;" horiz-adv-x="341" 
d="M132 659v-278h91v-49h-91v-332h-59v332h-53v49h53v331h243v-53h-184z" />
    <glyph glyph-name="uni0493" unicode="&#x493;" horiz-adv-x="300" 
d="M130 459v-132h90v-42h-90v-285h-56v285h-58v42h58v182h211v-50h-155z" />
    <glyph glyph-name="uni0496" unicode="&#x496;" horiz-adv-x="632" 
d="M415 374l178 -324h28v-174h-54v124h-10l-206 371l191 341h66zM75 0h-65l214 374l-200 338h65l199 -341zM290 0v712h59v-712h-59z" />
    <glyph glyph-name="uni0497" unicode="&#x497;" horiz-adv-x="529" 
d="M355 267l135 -217h31v-174h-54v124h-10l-162 264l152 245h63zM73 0h-65l167 267l-155 242h62l153 -245zM237 0v509h56v-509h-56z" />
    <glyph glyph-name="uni049A" unicode="&#x49a;" horiz-adv-x="423" 
d="M190 374l192 -324h30v-174h-54v124h-14l-215 371l200 341h66zM68 0v712h59v-712h-59z" />
    <glyph glyph-name="uni049B" unicode="&#x49b;" horiz-adv-x="358" 
d="M181 267l135 -217h31v-174h-54v124h-10l-163 264l153 245h62zM63 0v509h56v-509h-56z" />
    <glyph glyph-name="uni049C" unicode="&#x49c;" horiz-adv-x="479" 
d="M399 0l-164 346h-25v-107h-48v107h-34v-346h-59v712h59v-313h34v107h48v-107h27l147 313h66l-164 -338l182 -374h-69z" />
    <glyph glyph-name="uni049D" unicode="&#x49d;" horiz-adv-x="410" 
d="M335 0l-120 240h-24v-109h-43v109h-30v-240h-56v509h56v-221h30v109h43v-109h24l110 221h62l-123 -242l135 -267h-64z" />
    <glyph glyph-name="uni04A2" unicode="&#x4a2;" horiz-adv-x="432" 
d="M363 50h24v-174h-54v124h-29v336h-176v-336h-59v712h59v-323h176v323h59v-662z" />
    <glyph glyph-name="uni04A3" unicode="&#x4a3;" horiz-adv-x="374" 
d="M311 50h26v-174h-54v124h-28v237h-137v-237h-56v509h56v-222h137v222h56v-459z" />
    <glyph glyph-name="uni04AE" unicode="&#x4ae;" horiz-adv-x="315" 
d="M3 0zM187 298v-298h-59v298l-125 414h65l89 -326l90 326h65z" />
    <glyph glyph-name="uni04AF" unicode="&#x4af;" horiz-adv-x="308" 
d="M181 3v-206h-56v205l-121 507h62l87 -420l87 420h61z" />
    <glyph glyph-name="uni04B0" unicode="&#x4b0;" horiz-adv-x="315" 
d="M187 298h72v-49h-72v-249h-59v249h-72v49h72l-125 414h65l89 -326l90 326h65z" />
    <glyph glyph-name="uni04B1" unicode="&#x4b1;" horiz-adv-x="308" 
d="M181 3h74v-42h-74v-164h-56v164h-74v42h74l-121 506h62l87 -420l87 420h61z" />
    <glyph glyph-name="uni04B2" unicode="&#x4b2;" horiz-adv-x="372" 
d="M218 371l117 -321h18v-174h-54v124h-10l-103 308l-102 -308h-65l132 371l-121 341h65l91 -282l92 282h64z" />
    <glyph glyph-name="uni04B3" unicode="&#x4b3;" horiz-adv-x="321" 
d="M190 259l92 -209h22v-174h-54v124h-8l-81 209l-82 -209h-62l112 259l-106 250h62l76 -202l75 202h62z" />
    <glyph glyph-name="uni04B6" unicode="&#x4b6;" horiz-adv-x="425" 
d="M357 50h24v-174h-54v124h-29v266q-51 -9 -96 -9q-30 0 -54.5 7t-42.5 24t-28 46.5t-10 73.5v304h59v-298q0 -33 6.5 -53.5t18 -31.5t26.5 -15t33 -4q23 0 44 1.5t44 6.5v394h59v-662z" />
    <glyph glyph-name="uni04B7" unicode="&#x4b7;" horiz-adv-x="339" 
d="M277 50h26v-174h-54v124h-28v178q-18 -4 -36.5 -5.5t-36.5 -1.5q-22 0 -41.5 5.5t-34.5 18.5t-23.5 34.5t-8.5 53.5v226h56v-219q0 -22 4.5 -35.5t13 -21t19 -10t22.5 -2.5q16 0 32.5 1t33.5 5v282h56v-459z" />
    <glyph glyph-name="uni04B8" unicode="&#x4b8;" horiz-adv-x="434" 
d="M193 150v107q-29 2 -52 10.5t-39.5 26t-25.5 45.5t-9 69v304h59v-298q0 -55 18.5 -76t48.5 -26v105h48v-107q17 1 33 3t33 5v394h59v-712h-59v266q-17 -3 -33.5 -5t-32.5 -3v-108h-48z" />
    <glyph glyph-name="uni04B9" unicode="&#x4b9;" horiz-adv-x="346" 
d="M141 62v109q-44 3 -72.5 27.5t-28.5 84.5v226h56v-219q0 -35 12.5 -50t32.5 -19v108h43v-109q22 2 44 7v282h56v-509h-56v178q-22 -4 -44 -6v-110h-43z" />
    <glyph glyph-name="uni04BA" unicode="&#x4ba;" horiz-adv-x="425" 
d="M127 712v-266q51 9 96 9q30 0 54.5 -7t42.5 -24.5t28 -46.5t10 -73v-304h-59v298q0 33 -6.5 53.5t-18 31.5t-26.5 15t-33 4q-23 0 -44 -1.5t-44 -6.5v-394h-59v712h59z" />
    <glyph glyph-name="uni04BB" unicode="&#x4bb;" horiz-adv-x="339" 
d="M118 509v-178q18 4 36.5 5.5t36.5 1.5q22 0 41.5 -5.5t34.5 -18.5t23.5 -34.5t8.5 -53.5v-226h-56v219q0 22 -4.5 35.5t-13 21t-19 10t-22.5 2.5q-16 0 -32.5 -1t-33.5 -5v-282h-56v509h56z" />
    <glyph glyph-name="uni04C0" unicode="&#x4c0;" horiz-adv-x="197" 
d="M69 0zM69 0v712h59v-712h-59z" />
    <glyph glyph-name="uni04CF" unicode="&#x4cf;" horiz-adv-x="170" 
d="M57 0v712h56v-712h-56z" />
    <glyph glyph-name="uni04D8" unicode="&#x4d8;" horiz-adv-x="412" 
d="M54 0zM54 377h245q0 71 -1.5 116.5t-5.5 74t-10.5 44.5t-16.5 29q-11 12 -26 19t-37 7q-27 0 -44.5 -10.5t-27 -27t-13.5 -38t-4 -42.5h-59q0 41 11 75t34 57q18 18 43 28.5t60 10.5t61.5 -11t44.5 -31q17 -18 27 -40t15 -57.5t6.5 -89t1.5 -135.5t-1.5 -135.5t-6.5 -89
t-15 -57.5t-27 -40q-18 -20 -44.5 -31t-61.5 -11q-30 0 -56.5 10t-47 30t-32.5 50t-12 70v225zM113 152q0 -51 25.5 -79t63.5 -28q22 0 37 7t26 19q10 12 16.5 28t10 43.5t5.5 71.5t2 113h-186v-175z" />
    <glyph glyph-name="afii10846" unicode="&#x4d9;" horiz-adv-x="349" 
d="M45 0zM253 263q0 78 -4.5 119.5t-21.5 61.5q-8 10 -21 16.5t-30 6.5q-15 0 -28.5 -4.5t-23.5 -15.5q-22 -23 -22 -72h-55q0 37 8.5 62t28.5 45q34 35 92 35q57 0 92 -37q25 -27 33 -80.5t8 -144.5q0 -92 -7.5 -145t-33.5 -81q-34 -37 -91 -37t-91 37q-13 14 -21 34
t-12.5 48t-6 65.5t-1.5 86.5h208zM101 218q1 -66 6 -101t20 -52q8 -10 20.5 -16.5t29.5 -6.5t30 6.5t21 16.5q15 17 19.5 52t5.5 101h-152z" />
    <glyph glyph-name="uni04E2" unicode="&#x4e2;" horiz-adv-x="444" 
d="M69 0zM69 0v712h59v-555l188 555h59v-712h-59v555l-189 -555h-58zM117 785v45h212v-45h-212z" />
    <glyph glyph-name="uni04E3" unicode="&#x4e3;" horiz-adv-x="391" 
d="M62 0zM272 0v388l-157 -388h-53v509h56v-388l157 388h53v-509h-56zM89 611v45h212v-45h-212z" />
    <glyph glyph-name="uni04E8" unicode="&#x4e8;" horiz-adv-x="421" 
d="M54 0zM367 356q0 -82 -1.5 -135.5t-6.5 -89t-15 -57.5t-27 -40q-18 -20 -45 -31t-62 -11t-61.5 11t-44.5 31q-17 18 -27 40t-15 57.5t-6.5 89t-1.5 135.5t1.5 135.5t6.5 89t15 57.5t27 40q18 20 44.5 31t61.5 11t62 -11t45 -31q17 -18 27 -40t15 -57.5t6.5 -89
t1.5 -135.5zM274 71q10 12 16.5 28t10 44t5.5 72.5t2 114.5h-195q0 -70 1.5 -114.5t5 -72.5t10 -44t17.5 -28t26 -19t37 -7t37.5 7t26.5 19zM147 641q-11 -13 -17.5 -29t-10 -44t-5 -72t-1.5 -113h195q0 69 -2 113t-5.5 72t-10 44t-16.5 29q-23 26 -64 26q-22 0 -37 -7
t-26 -19z" />
    <glyph glyph-name="uni04E9" unicode="&#x4e9;" horiz-adv-x="353" 
d="M45 0zM309 254q0 -90 -7.5 -142t-30.5 -80q-33 -40 -94 -40t-94 40q-23 28 -30.5 80t-7.5 142t7.5 142t30.5 80q33 41 94 41t94 -41q23 -28 30.5 -80t7.5 -142zM227 65q17 20 21.5 61.5t4.5 119.5h-152q0 -77 4 -119t21 -62q8 -10 21 -16.5t30 -6.5t29.5 6.5t20.5 16.5z
M126 444q-15 -19 -20 -54.5t-5 -98.5h152q-1 63 -6 98.5t-20 54.5q-8 10 -20.5 16.5t-29.5 6.5t-30 -6.5t-21 -16.5z" />
    <glyph glyph-name="uni04EE" unicode="&#x4ee;" horiz-adv-x="359" 
d="M4 0zM172 102q-10 -33 -23 -53.5t-30.5 -31t-40 -14t-51.5 -3.5v53q20 0 35 3t26 11t19 22.5t15 37.5l30 102l-148 483h64l113 -400l110 400h64zM77 785v45h212v-45h-212z" />
    <glyph glyph-name="uni04EF" unicode="&#x4ef;" horiz-adv-x="308" 
d="M4 0zM157 -99q-14 -59 -52 -81.5t-96 -22.5v50q42 0 63.5 16.5t29.5 48.5l23 90l-121 507h62l87 -420l87 420h61zM48 611v45h212v-45h-212z" />
    <glyph glyph-name="Wgrave" unicode="&#x1e80;" horiz-adv-x="587" 
d="M4 0zM475 0h-62l-119 607l-118 -607h-62l-110 712h65l76 -606l115 606h67l117 -606l75 606h64zM272 764l-75 130h59l65 -130h-49z" />
    <glyph glyph-name="wgrave" unicode="&#x1e81;" horiz-adv-x="474" 
d="M4 0zM371 0h-60l-77 416l-73 -416h-60l-97 509h65l63 -421l74 421h56l78 -421l65 421h65zM215 586l-75 130h58l66 -130h-49z" />
    <glyph glyph-name="Wacute" unicode="&#x1e82;" horiz-adv-x="587" 
d="M4 0zM475 0h-62l-119 607l-118 -607h-62l-110 712h65l76 -606l115 606h67l117 -606l75 606h64zM315 764h-49l65 130h59z" />
    <glyph glyph-name="wacute" unicode="&#x1e83;" horiz-adv-x="474" 
d="M4 0zM371 0h-60l-77 416l-73 -416h-60l-97 509h65l63 -421l74 421h56l78 -421l65 421h65zM259 586h-49l65 130h58z" />
    <glyph glyph-name="Wdieresis" unicode="&#x1e84;" horiz-adv-x="587" 
d="M4 0zM475 0h-62l-119 607l-118 -607h-62l-110 712h65l76 -606l115 606h67l117 -606l75 606h64zM331 784v63h63v-63h-63zM193 784v63h63v-63h-63z" />
    <glyph glyph-name="wdieresis" unicode="&#x1e85;" horiz-adv-x="474" 
d="M4 0zM371 0h-60l-77 416l-73 -416h-60l-97 509h65l63 -421l74 421h56l78 -421l65 421h65zM272 606v63h63v-63h-63zM134 606v63h64v-63h-64z" />
    <glyph glyph-name="uni1E8A" unicode="&#x1e8a;" horiz-adv-x="372" 
d="M19 0zM289 0l-103 308l-102 -308h-65l132 371l-121 341h65l91 -282l92 282h64l-124 -341l135 -371h-64zM156 784v63h63v-63h-63z" />
    <glyph glyph-name="uni1E8B" unicode="&#x1e8b;" horiz-adv-x="321" 
d="M17 0zM242 0l-81 210l-82 -210h-62l112 259l-106 250h62l76 -202l75 202h62l-108 -250l114 -259h-62zM131 610v63h63v-63h-63z" />
    <glyph glyph-name="Ygrave" unicode="&#x1ef2;" horiz-adv-x="315" 
d="M3 0zM187 298v-298h-59v298l-125 414h65l89 -326l90 326h65zM137 764l-75 130h59l65 -130h-49z" />
    <glyph glyph-name="ygrave" unicode="&#x1ef3;" horiz-adv-x="308" 
d="M4 0zM157 -99q-14 -59 -52 -81.5t-96 -22.5v50q42 0 63.5 16.5t29.5 48.5l23 90l-121 507h62l87 -420l87 420h61zM134 586l-75 130h58l66 -130h-49z" />
    <glyph glyph-name="uni2007" unicode="&#x2007;" horiz-adv-x="361" 
 />
    <glyph glyph-name="uni2008" unicode="&#x2008;" horiz-adv-x="199" 
 />
    <glyph glyph-name="uni200B" unicode="&#x200b;" horiz-adv-x="0" 
 />
    <glyph glyph-name="endash" unicode="&#x2013;" horiz-adv-x="432" 
d="M48 250v54h335v-54h-335z" />
    <glyph glyph-name="emdash" unicode="&#x2014;" horiz-adv-x="671" 
d="M55 250v54h561v-54h-561z" />
    <glyph glyph-name="afii00208" unicode="&#x2015;" horiz-adv-x="670" 
d="M55 250zM55 250v54h561v-54h-561z" />
    <glyph glyph-name="quoteleft" unicode="&#x2018;" horiz-adv-x="184" 
d="M58 620v92l69 51v-143h-69z" />
    <glyph glyph-name="quoteright" unicode="&#x2019;" horiz-adv-x="184" 
d="M58 570v142h69v-92z" />
    <glyph glyph-name="quotesinglbase" unicode="&#x201a;" horiz-adv-x="184" 
d="M58 -51v143h69v-92z" />
    <glyph glyph-name="quotedblleft" unicode="&#x201c;" horiz-adv-x="329" 
d="M202 620v92l69 51v-143h-69zM58 620v92l69 51v-143h-69z" />
    <glyph glyph-name="quotedblright" unicode="&#x201d;" horiz-adv-x="329" 
d="M202 570v142h69v-92zM58 570v142h69v-92z" />
    <glyph glyph-name="quotedblbase" unicode="&#x201e;" horiz-adv-x="329" 
d="M202 -67v143h69v-92zM58 -67v143h69v-92z" />
    <glyph glyph-name="dagger" unicode="&#x2020;" horiz-adv-x="437" 
d="M245 460v-460h-54v460h-143v49h143v203h54v-203h143v-49h-143z" />
    <glyph glyph-name="daggerdbl" unicode="&#x2021;" horiz-adv-x="437" 
d="M245 0v-203h-54v203h-143v49h143v411h-143v49h143v203h54v-203h143v-49h-143v-411h143v-49h-143z" />
    <glyph glyph-name="bullet" unicode="&#x2022;" horiz-adv-x="464" 
d="M395 334q0 -34 -13 -63.5t-35 -51.5t-51.5 -35t-63.5 -13t-63.5 13t-51.5 35t-35 51.5t-13 63.5t13 63.5t35 51.5t51.5 35t63.5 13t63.5 -13t51.5 -35t35 -51.5t13 -63.5z" />
    <glyph glyph-name="ellipsis" unicode="&#x2026;" horiz-adv-x="549" 
d="M412 0v75h75v-75h-75zM62 0v75h75v-75h-75zM237 0v75h75v-75h-75z" />
    <glyph glyph-name="perthousand" unicode="&#x2030;" horiz-adv-x="890" 
d="M252 446q0 -46 -28 -73t-71 -27t-70.5 27t-27.5 73v175q0 46 27.5 72.5t70.5 26.5t71 -26.5t28 -72.5v-175zM835 92q0 -46 -28 -73t-71 -27t-70.5 27t-27.5 73v174q0 46 27.5 73t70.5 27t71 -27t28 -73v-174zM562 92q0 -46 -27.5 -73t-70.5 -27t-70.5 27t-27.5 73v174
q0 46 27.5 73t70.5 27t70.5 -27t27.5 -73v-174zM208 0h-47l248 712h47zM514 266q0 26 -13 41.5t-37 15.5t-37 -15.5t-13 -41.5v-174q0 -26 13 -41.5t37 -15.5t37 15.5t13 41.5v174zM786 266q0 26 -13 41.5t-37 15.5t-36.5 -15.5t-12.5 -41.5v-174q0 -26 12.5 -41.5
t36.5 -15.5t37 15.5t13 41.5v174zM203 620q0 26 -13 41.5t-37 15.5t-36.5 -15.5t-12.5 -41.5v-174q0 -26 12.5 -41.5t36.5 -15.5t37 15.5t13 41.5v174z" />
    <glyph glyph-name="guilsinglleft" unicode="&#x2039;" horiz-adv-x="219" 
d="M28 268l136 210v-96l-75 -114l75 -115v-95z" />
    <glyph glyph-name="guilsinglright" unicode="&#x203a;" horiz-adv-x="219" 
d="M55 58v95l75 115l-75 114v96l136 -210z" />
    <glyph glyph-name="fraction" unicode="&#x2044;" horiz-adv-x="154" 
d="M-23 0h-47l247 712h47z" />
    <glyph glyph-name="uni2070" unicode="&#x2070;" horiz-adv-x="278" 
d="M237 369q0 -23 -7 -39t-19 -27q-13 -11 -32.5 -17t-39.5 -6t-40 6t-31 17q-13 11 -20 27t-7 39v259q0 24 7 39.5t20 26.5q11 11 29.5 17t41.5 6t41 -6t31 -17q12 -11 19 -26.5t7 -39.5v-259zM194 630q0 25 -15.5 37t-39.5 12t-39 -12t-15 -37v-263q0 -25 15 -37t39 -12
t39.5 12t15.5 37v263z" />
    <glyph glyph-name="uni2074" unicode="&#x2074;" horiz-adv-x="277" 
d="M219 349v-64h-43v64h-148v38l125 325h43l-124 -325h104v103h43v-103h32v-38h-32z" />
    <glyph glyph-name="uni2075" unicode="&#x2075;" horiz-adv-x="277" 
d="M235 422q0 -50 -6.5 -75.5t-22.5 -41.5q-11 -11 -29 -18t-38 -7q-40 0 -65 22q-13 11 -19 26.5t-6 39.5v25h44v-25q0 -25 14 -37.5t32 -12.5q14 0 23.5 4.5t14.5 10.5q8 10 11.5 28t3.5 61q0 42 -3.5 60t-11.5 28q-5 6 -13.5 10t-23.5 4q-19 0 -32 -12.5t-13 -32.5v-16
h-44v249h178v-38h-135v-138l10 10t13 9q16 9 36 9t34 -6.5t25 -17.5q6 -7 10.5 -16t7.5 -22.5t4 -33t1 -46.5z" />
    <glyph glyph-name="uni2076" unicode="&#x2076;" horiz-adv-x="277" 
d="M232 412q0 -44 -5.5 -65.5t-18.5 -37.5q-11 -14 -29.5 -21.5t-41.5 -7.5q-47 0 -70 29q-14 17 -19 38.5t-5 64.5q0 34 4.5 60t13.5 49l77 191h46l-74 -180q16 11 38 11q39 0 59 -23q7 -7 11.5 -15t7.5 -20t4.5 -29.5t1.5 -43.5zM189 413q0 40 -4 58.5t-14 26.5
q-5 4 -13.5 7t-19.5 3q-12 0 -20.5 -3t-13.5 -7q-10 -8 -14 -26.5t-4 -58.5t4 -58.5t14 -26.5q5 -4 13.5 -7t20.5 -3q11 0 19.5 3t13.5 7q10 8 14 26.5t4 58.5z" />
    <glyph glyph-name="uni2077" unicode="&#x2077;" horiz-adv-x="277" 
d="M135 285h-46l101 389h-109v-71h-43v109h198v-38z" />
    <glyph glyph-name="uni2078" unicode="&#x2078;" horiz-adv-x="277" 
d="M233 404q0 -40 -6 -62t-23 -38q-26 -24 -66 -24q-20 0 -38 6.5t-29 17.5q-18 16 -23 38t-5 62q0 18 0.5 31t2.5 22t4.5 16t7.5 14q5 8 12.5 13.5t15.5 10.5q-19 10 -27 24q-8 13 -10 28t-2 42q0 35 5.5 55.5t21.5 34.5q23 22 64 22q19 0 35.5 -5.5t28.5 -16.5
q17 -14 22.5 -34.5t5.5 -55.5q0 -27 -3 -42t-11 -28q-8 -14 -25 -24q8 -5 16 -10.5t13 -13.5q4 -7 7 -14t4 -16t1.5 -22t0.5 -31zM190 404q0 35 -3.5 50t-12.5 24q-13 13 -36 13q-24 0 -37 -13q-9 -9 -12 -24t-3 -50t3 -49.5t12 -23.5q13 -13 37 -13q23 0 36 13
q9 9 12.5 23.5t3.5 49.5zM187 605q0 29 -4 42t-12 21q-9 11 -33 11q-22 0 -33 -11q-8 -8 -11.5 -21t-3.5 -42t3.5 -42.5t11.5 -21.5q11 -11 33 -11q24 0 33 11q8 8 12 21.5t4 42.5z" />
    <glyph glyph-name="uni2079" unicode="&#x2079;" horiz-adv-x="277" 
d="M232 585q0 -34 -4.5 -60t-13.5 -49l-77 -191h-47l75 180q-16 -11 -38 -11q-39 0 -59 23q-7 7 -11.5 15t-7.5 20t-4.5 29.5t-1.5 43.5q0 44 5 65.5t18 37.5q24 29 71 29q48 0 71 -29q14 -17 19 -38.5t5 -64.5zM189 584q0 40 -4 58.5t-15 26.5q-5 4 -13.5 7t-19.5 3
t-19.5 -3t-13.5 -7q-10 -8 -14 -26.5t-4 -58.5t4 -58.5t14 -26.5q5 -4 13.5 -7t19.5 -3t19.5 3t13.5 7q11 8 15 26.5t4 58.5z" />
    <glyph glyph-name="uni2080" unicode="&#x2080;" horiz-adv-x="278" 
d="M237 -66q0 -23 -7 -39t-19 -27q-13 -11 -32.5 -17t-39.5 -6t-40 6t-31 17q-13 11 -20 27t-7 39v259q0 24 7 39.5t20 26.5q11 11 29.5 17t41.5 6t41 -6t31 -17q12 -11 19 -26.5t7 -39.5v-259zM194 195q0 25 -15.5 37t-39.5 12t-39 -12t-15 -37v-263q0 -25 15 -37t39 -12
t39.5 12t15.5 37v263z" />
    <glyph glyph-name="uni2081" unicode="&#x2081;" horiz-adv-x="277" 
d="M131 -150v379l-69 -47v47l69 48h43v-427h-43z" />
    <glyph glyph-name="uni2082" unicode="&#x2082;" horiz-adv-x="277" 
d="M38 -150v37l137 218q12 20 18 37t6 42q0 27 -16.5 43.5t-43.5 16.5q-31 0 -45 -18.5t-14 -50.5v-18h-43v17q0 29 6 48t21 33q29 27 75 27q25 0 41.5 -6t31.5 -18q30 -24 30 -74q0 -26 -7 -49t-23 -49l-124 -198h154v-38h-204z" />
    <glyph glyph-name="uni2083" unicode="&#x2083;" horiz-adv-x="277" 
d="M245 -36q0 -37 -6.5 -56.5t-23.5 -36.5q-12 -12 -32 -19t-43 -7q-49 0 -77 27q-12 13 -18.5 30.5t-6.5 54.5v13h43v-13q0 -26 4 -38.5t14 -20.5q15 -15 41 -15q27 0 42 15q9 9 14.5 23.5t5.5 43.5q0 31 -4.5 45t-12.5 23q-16 19 -45 19h-29v38h29q23 0 40 14
q14 13 16.5 30.5t2.5 37.5q0 19 -4 34t-15 24q-13 14 -40 14t-42 -15q-16 -16 -16 -54v-13h-43v12q0 32 6 50.5t19 30.5q14 13 32 20t44 7t44 -7.5t30 -18.5q15 -14 21.5 -35.5t6.5 -48.5q0 -26 -4 -42.5t-14 -29.5q-16 -20 -39 -29q27 -8 42 -31q9 -13 13.5 -30t4.5 -46z
" />
    <glyph glyph-name="uni2084" unicode="&#x2084;" horiz-adv-x="277" 
d="M219 -86v-64h-43v64h-148v38l125 325h43l-124 -325h104v103h43v-103h32v-38h-32z" />
    <glyph glyph-name="uni2085" unicode="&#x2085;" horiz-adv-x="277" 
d="M235 -13q0 -50 -6.5 -75.5t-22.5 -41.5q-11 -11 -29 -18t-38 -7q-40 0 -65 22q-13 11 -19 26.5t-6 39.5v25h44v-25q0 -25 14 -37.5t32 -12.5q14 0 23.5 4.5t14.5 10.5q8 10 11.5 28t3.5 61q0 42 -3.5 60t-11.5 28q-5 6 -13.5 10t-23.5 4q-19 0 -32 -12.5t-13 -32.5v-16
h-44v249h178v-38h-135v-138l10 10t13 9q16 9 36 9t34 -6.5t25 -17.5q6 -7 10.5 -16t7.5 -22.5t4 -33t1 -46.5z" />
    <glyph glyph-name="uni2086" unicode="&#x2086;" horiz-adv-x="277" 
d="M232 -23q0 -44 -5.5 -65.5t-18.5 -37.5q-11 -14 -29.5 -21.5t-41.5 -7.5q-47 0 -70 29q-14 17 -19 38.5t-5 64.5q0 34 4.5 60t13.5 49l77 191h46l-74 -180q16 11 38 11q39 0 59 -23q7 -7 11.5 -15t7.5 -20t4.5 -29.5t1.5 -43.5zM189 -22q0 40 -4 58.5t-14 26.5
q-5 4 -13.5 7t-19.5 3q-12 0 -20.5 -3t-13.5 -7q-10 -8 -14 -26.5t-4 -58.5t4 -58.5t14 -26.5q5 -4 13.5 -7t20.5 -3q11 0 19.5 3t13.5 7q10 8 14 26.5t4 58.5z" />
    <glyph glyph-name="uni2087" unicode="&#x2087;" horiz-adv-x="277" 
d="M135 -150h-46l101 389h-109v-71h-43v109h198v-38z" />
    <glyph glyph-name="uni2088" unicode="&#x2088;" horiz-adv-x="277" 
d="M233 -31q0 -40 -6 -62t-23 -38q-26 -24 -66 -24q-20 0 -38 6.5t-29 17.5q-18 16 -23 38t-5 62q0 18 0.5 31t2.5 22t4.5 16t7.5 14q5 8 12.5 13.5t15.5 10.5q-19 10 -27 24q-8 13 -10 28t-2 42q0 35 5.5 55.5t21.5 34.5q23 22 64 22q19 0 35.5 -5.5t28.5 -16.5
q17 -14 22.5 -34.5t5.5 -55.5q0 -27 -3 -42t-11 -28q-8 -14 -25 -24q8 -5 16 -10.5t13 -13.5q4 -7 7 -14t4 -16t1.5 -22t0.5 -31zM190 -31q0 35 -3.5 50t-12.5 24q-13 13 -36 13q-24 0 -37 -13q-9 -9 -12 -24t-3 -50t3 -49.5t12 -23.5q13 -13 37 -13q23 0 36 13
q9 9 12.5 23.5t3.5 49.5zM187 170q0 29 -4 42t-12 21q-9 11 -33 11q-22 0 -33 -11q-8 -8 -11.5 -21t-3.5 -42t3.5 -42.5t11.5 -21.5q11 -11 33 -11q24 0 33 11q8 8 12 21.5t4 42.5z" />
    <glyph glyph-name="uni2089" unicode="&#x2089;" horiz-adv-x="277" 
d="M232 150q0 -34 -4.5 -60t-13.5 -49l-77 -191h-47l75 180q-16 -11 -38 -11q-39 0 -59 23q-7 7 -11.5 15t-7.5 20t-4.5 29.5t-1.5 43.5q0 44 5 65.5t18 37.5q24 29 71 29q48 0 71 -29q14 -17 19 -38.5t5 -64.5zM189 149q0 40 -4 58.5t-15 26.5q-5 4 -13.5 7t-19.5 3
t-19.5 -3t-13.5 -7q-10 -8 -14 -26.5t-4 -58.5t4 -58.5t14 -26.5q5 -4 13.5 -7t19.5 -3t19.5 3t13.5 7q11 8 15 26.5t4 58.5z" />
    <glyph glyph-name="Euro" unicode="&#x20ac;" horiz-adv-x="448" 
d="M402 163q-1 -43 -12.5 -78.5t-37.5 -58.5q-18 -16 -42 -25t-56 -9q-35 0 -61.5 11t-44.5 31q-14 14 -23 30.5t-15 41.5t-8.5 62.5t-3.5 93.5h-63v44h63v100h-63v44h63q1 56 3.5 93.5t8.5 62.5t15 41.5t23 30.5q18 20 44.5 31t61.5 11q34 0 59 -10t43 -28
q23 -23 33.5 -57.5t11.5 -75.5h-59q0 22 -4 43.5t-13.5 38t-26.5 26.5t-44 10q-41 0 -64 -26q-9 -11 -15 -23t-9.5 -32t-5 -52.5t-2.5 -83.5h133v-44h-134v-100h134v-44h-133q1 -51 2.5 -83.5t5.5 -52.5t10 -32.5t15 -22.5q11 -12 26 -19t37 -7q27 0 44 10t27 26.5t14 38
t4 43.5h59z" />
    <glyph glyph-name="uni20B4" unicode="&#x20b4;" horiz-adv-x="396" 
d="M17 262v44h40q10 24 28 41t48 29l73 30h-189v44h253q9 15 12.5 36.5t3.5 53.5q0 33 -7 59t-24 43q-11 11 -26 17t-36 6q-23 0 -38.5 -7t-26.5 -19q-16 -18 -21.5 -41t-5.5 -57h-59q0 47 8.5 79.5t34.5 58.5q39 39 107 39q64 0 104 -38q25 -23 37 -59t12 -82q0 -55 -9 -89
h33v-44h-54q-20 -27 -64 -45l-76 -31q-25 -10 -41 -24h235v-44h-262q-7 -28 -7 -78q0 -42 5.5 -68t22.5 -45q11 -11 27 -17.5t41 -6.5q43 0 67 24q17 17 22.5 41t5.5 66h59q0 -29 -2 -51t-7 -39t-13 -30.5t-20 -25.5q-38 -38 -112 -38q-38 0 -65.5 10t-45.5 28
q-24 24 -34 60.5t-10 93.5q0 22 1 40.5t3 35.5h-28z" />
    <glyph glyph-name="afii61352" unicode="&#x2116;" horiz-adv-x="656" 
d="M600 541q0 -59 -4.5 -91.5t-20.5 -53.5q-11 -14 -27.5 -21.5t-38.5 -7.5t-39 7.5t-28 21.5q-17 21 -20.5 53.5t-3.5 91.5q0 30 1 52.5t3.5 39.5t7 29.5t12.5 23.5q22 30 67 30q44 0 66 -30q17 -20 21 -52.5t4 -92.5zM555 541q0 50 -3 78.5t-13 42.5q-5 8 -13 11.5
t-17 3.5q-19 0 -31 -15q-10 -14 -12.5 -42.5t-2.5 -78.5t3 -78.5t13 -42.5q5 -7 13 -10.5t17 -3.5t17 3.5t13 10.5q10 14 13 42.5t3 78.5zM422 288v41h175v-41h-175zM307 0l-182 555v-555h-56v712h55l181 -555v555h56v-712h-54z" />
    <glyph glyph-name="trademark" unicode="&#x2122;" horiz-adv-x="602" 
d="M501 282v323l-73 -206h-31l-74 199v-316h-43v430h42l90 -241l91 241h41v-430h-43zM149 673v-391h-42v391h-74v39h190v-39h-74z" />
    <glyph glyph-name="Omega" unicode="&#x2126;" horiz-adv-x="429" 
d="M238 0v44q20 10 36.5 26t24.5 39q9 26 11 84t2 163q0 80 -1.5 130t-5 80.5t-10.5 46.5t-18 28q-23 26 -63 26t-63 -26q-11 -12 -18 -28t-10.5 -46.5t-5 -80.5t-1.5 -130q0 -105 2 -163t11 -84q8 -23 24.5 -39t37.5 -26v-44h-139v49h73q-15 9 -28.5 22t-22.5 34
q-6 14 -9 34.5t-5 50.5t-2.5 70.5t-0.5 95.5q0 84 2 138t7 89.5t15 56.5t27 38q18 20 44.5 31t61.5 11t61.5 -11t44.5 -31q16 -17 26.5 -38t15.5 -56.5t7 -89.5t2 -138q0 -55 -0.5 -95.5t-2.5 -70.5t-5 -50.5t-9 -34.5q-8 -21 -21.5 -34t-29.5 -22h73v-49h-138z" />
    <glyph glyph-name="uni2150" unicode="&#x2150;" horiz-adv-x="708" 
d="M131 285v379l-69 -47v47l69 48h43v-427h-43zM254 0h-47l247 712h47zM566 0h-46l101 389h-109v-71h-43v109h198v-38z" />
    <glyph glyph-name="uni2151" unicode="&#x2151;" horiz-adv-x="708" 
d="M131 285v379l-69 -47v47l69 48h43v-427h-43zM254 0h-47l247 712h47zM663 300q0 -34 -4.5 -60t-13.5 -49l-77 -191h-47l75 180q-16 -11 -38 -11q-39 0 -59 23q-7 7 -11.5 15t-7.5 20t-4.5 29.5t-1.5 43.5q0 44 5 65.5t18 37.5q24 29 71 29q48 0 71 -29q14 -17 19 -38.5
t5 -64.5zM620 299q0 40 -4 58.5t-15 26.5q-5 4 -13.5 7t-19.5 3t-19.5 -3t-13.5 -7q-10 -8 -14 -26.5t-4 -58.5t4 -58.5t14 -26.5q5 -4 13.5 -7t19.5 -3t19.5 3t13.5 7q11 8 15 26.5t4 58.5z" />
    <glyph glyph-name="uni2152" unicode="&#x2152;" horiz-adv-x="986" 
d="M131 285v379l-69 -47v47l69 48h43v-427h-43zM254 0h-47l247 712h47zM562 0v379l-69 -47v47l69 48h43v-427h-43zM945 84q0 -23 -7 -39t-19 -27q-13 -11 -32.5 -17t-39.5 -6t-40 6t-31 17q-13 11 -20 27t-7 39v259q0 24 7 39.5t20 26.5q11 11 29.5 17t41.5 6t41 -6t31 -17
q12 -11 19 -26.5t7 -39.5v-259zM902 345q0 25 -15.5 37t-39.5 12t-39 -12t-15 -37v-263q0 -25 15 -37t39 -12t39.5 12t15.5 37v263z" />
    <glyph glyph-name="onethird" unicode="&#x2153;" horiz-adv-x="708" 
d="M131 285v379l-69 -47v47l69 48h43v-427h-43zM254 0h-47l247 712h47zM676 114q0 -37 -6.5 -56.5t-23.5 -36.5q-12 -12 -32 -19t-43 -7q-49 0 -77 27q-12 13 -18.5 30.5t-6.5 54.5v13h43v-13q0 -26 4 -38.5t14 -20.5q15 -15 41 -15q27 0 42 15q9 9 14.5 23.5t5.5 43.5
q0 31 -4.5 45t-12.5 23q-16 19 -45 19h-29v38h29q23 0 40 14q14 13 16.5 30.5t2.5 37.5q0 19 -4 34t-15 24q-13 14 -40 14t-42 -15q-16 -16 -16 -54v-13h-43v12q0 32 6 50.5t19 30.5q14 13 32 20t44 7t44 -7.5t30 -18.5q15 -14 21.5 -35.5t6.5 -48.5q0 -26 -4 -42.5
t-14 -29.5q-16 -20 -39 -29q27 -8 42 -31q9 -13 13.5 -30t4.5 -46z" />
    <glyph glyph-name="twothirds" unicode="&#x2154;" horiz-adv-x="708" 
d="M38 285v37l137 218q12 20 18 37t6 42q0 27 -16.5 43.5t-43.5 16.5q-31 0 -45 -18.5t-14 -50.5v-18h-43v17q0 29 6 48t21 33q29 27 75 27q25 0 41.5 -6t31.5 -18q30 -24 30 -74q0 -26 -7 -49t-23 -49l-124 -198h154v-38h-204zM254 0h-47l247 712h47zM676 114
q0 -37 -6.5 -56.5t-23.5 -36.5q-12 -12 -32 -19t-43 -7q-49 0 -77 27q-12 13 -18.5 30.5t-6.5 54.5v13h43v-13q0 -26 4 -38.5t14 -20.5q15 -15 41 -15q27 0 42 15q9 9 14.5 23.5t5.5 43.5q0 31 -4.5 45t-12.5 23q-16 19 -45 19h-29v38h29q23 0 40 14q14 13 16.5 30.5
t2.5 37.5q0 19 -4 34t-15 24q-13 14 -40 14t-42 -15q-16 -16 -16 -54v-13h-43v12q0 32 6 50.5t19 30.5q14 13 32 20t44 7t44 -7.5t30 -18.5q15 -14 21.5 -35.5t6.5 -48.5q0 -26 -4 -42.5t-14 -29.5q-16 -20 -39 -29q27 -8 42 -31q9 -13 13.5 -30t4.5 -46z" />
    <glyph glyph-name="uni2155" unicode="&#x2155;" horiz-adv-x="708" 
d="M131 285v379l-69 -47v47l69 48h43v-427h-43zM254 0h-47l247 712h47zM666 137q0 -50 -6.5 -75.5t-22.5 -41.5q-11 -11 -29 -18t-38 -7q-40 0 -65 22q-13 11 -19 26.5t-6 39.5v25h44v-25q0 -25 14 -37.5t32 -12.5q14 0 23.5 4.5t14.5 10.5q8 10 11.5 28t3.5 61
q0 42 -3.5 60t-11.5 28q-5 6 -13.5 10t-23.5 4q-19 0 -32 -12.5t-13 -32.5v-16h-44v249h178v-38h-135v-138l10 10t13 9q16 9 36 9t34 -6.5t25 -17.5q6 -7 10.5 -16t7.5 -22.5t4 -33t1 -46.5z" />
    <glyph glyph-name="uni2156" unicode="&#x2156;" horiz-adv-x="708" 
d="M38 285v37l137 218q12 20 18 37t6 42q0 27 -16.5 43.5t-43.5 16.5q-31 0 -45 -18.5t-14 -50.5v-18h-43v17q0 29 6 48t21 33q29 27 75 27q25 0 41.5 -6t31.5 -18q30 -24 30 -74q0 -26 -7 -49t-23 -49l-124 -198h154v-38h-204zM254 0h-47l247 712h47zM666 137
q0 -50 -6.5 -75.5t-22.5 -41.5q-11 -11 -29 -18t-38 -7q-40 0 -65 22q-13 11 -19 26.5t-6 39.5v25h44v-25q0 -25 14 -37.5t32 -12.5q14 0 23.5 4.5t14.5 10.5q8 10 11.5 28t3.5 61q0 42 -3.5 60t-11.5 28q-5 6 -13.5 10t-23.5 4q-19 0 -32 -12.5t-13 -32.5v-16h-44v249h178
v-38h-135v-138l10 10t13 9q16 9 36 9t34 -6.5t25 -17.5q6 -7 10.5 -16t7.5 -22.5t4 -33t1 -46.5z" />
    <glyph glyph-name="uni2157" unicode="&#x2157;" horiz-adv-x="708" 
d="M245 399q0 -37 -6.5 -56.5t-23.5 -36.5q-12 -12 -32 -19t-43 -7q-49 0 -77 27q-12 13 -18.5 30.5t-6.5 54.5v13h43v-13q0 -26 4 -38.5t14 -20.5q15 -15 41 -15q27 0 42 15q9 9 14.5 23.5t5.5 43.5q0 31 -4.5 45t-12.5 23q-16 19 -45 19h-29v38h29q23 0 40 14
q14 13 16.5 30.5t2.5 37.5q0 19 -4 34t-15 24q-13 14 -40 14t-42 -15q-16 -16 -16 -54v-13h-43v12q0 32 6 50.5t19 30.5q14 13 32 20t44 7t44 -7.5t30 -18.5q15 -14 21.5 -35.5t6.5 -48.5q0 -26 -4 -42.5t-14 -29.5q-16 -20 -39 -29q27 -8 42 -31q9 -13 13.5 -30t4.5 -46z
M254 0h-47l247 712h47zM666 137q0 -50 -6.5 -75.5t-22.5 -41.5q-11 -11 -29 -18t-38 -7q-40 0 -65 22q-13 11 -19 26.5t-6 39.5v25h44v-25q0 -25 14 -37.5t32 -12.5q14 0 23.5 4.5t14.5 10.5q8 10 11.5 28t3.5 61q0 42 -3.5 60t-11.5 28q-5 6 -13.5 10t-23.5 4
q-19 0 -32 -12.5t-13 -32.5v-16h-44v249h178v-38h-135v-138l10 10t13 9q16 9 36 9t34 -6.5t25 -17.5q6 -7 10.5 -16t7.5 -22.5t4 -33t1 -46.5z" />
    <glyph glyph-name="uni2158" unicode="&#x2158;" horiz-adv-x="708" 
d="M219 349v-64h-43v64h-148v38l125 325h43l-124 -325h104v103h43v-103h32v-38h-32zM254 0h-47l247 712h47zM666 137q0 -50 -6.5 -75.5t-22.5 -41.5q-11 -11 -29 -18t-38 -7q-40 0 -65 22q-13 11 -19 26.5t-6 39.5v25h44v-25q0 -25 14 -37.5t32 -12.5q14 0 23.5 4.5
t14.5 10.5q8 10 11.5 28t3.5 61q0 42 -3.5 60t-11.5 28q-5 6 -13.5 10t-23.5 4q-19 0 -32 -12.5t-13 -32.5v-16h-44v249h178v-38h-135v-138l10 10t13 9q16 9 36 9t34 -6.5t25 -17.5q6 -7 10.5 -16t7.5 -22.5t4 -33t1 -46.5z" />
    <glyph glyph-name="uni2159" unicode="&#x2159;" horiz-adv-x="708" 
d="M131 285v379l-69 -47v47l69 48h43v-427h-43zM254 0h-47l247 712h47zM663 127q0 -44 -5.5 -65.5t-18.5 -37.5q-11 -14 -29.5 -21.5t-41.5 -7.5q-47 0 -70 29q-14 17 -19 38.5t-5 64.5q0 34 4.5 60t13.5 49l77 191h46l-74 -180q16 11 38 11q39 0 59 -23q7 -7 11.5 -15
t7.5 -20t4.5 -29.5t1.5 -43.5zM620 128q0 40 -4 58.5t-14 26.5q-5 4 -13.5 7t-19.5 3q-12 0 -20.5 -3t-13.5 -7q-10 -8 -14 -26.5t-4 -58.5t4 -58.5t14 -26.5q5 -4 13.5 -7t20.5 -3q11 0 19.5 3t13.5 7q10 8 14 26.5t4 58.5z" />
    <glyph glyph-name="uni215A" unicode="&#x215a;" horiz-adv-x="708" 
d="M235 422q0 -50 -6.5 -75.5t-22.5 -41.5q-11 -11 -29 -18t-38 -7q-40 0 -65 22q-13 11 -19 26.5t-6 39.5v25h44v-25q0 -25 14 -37.5t32 -12.5q14 0 23.5 4.5t14.5 10.5q8 10 11.5 28t3.5 61q0 42 -3.5 60t-11.5 28q-5 6 -13.5 10t-23.5 4q-19 0 -32 -12.5t-13 -32.5v-16
h-44v249h178v-38h-135v-138l10 10t13 9q16 9 36 9t34 -6.5t25 -17.5q6 -7 10.5 -16t7.5 -22.5t4 -33t1 -46.5zM254 0h-47l247 712h47zM663 127q0 -44 -5.5 -65.5t-18.5 -37.5q-11 -14 -29.5 -21.5t-41.5 -7.5q-47 0 -70 29q-14 17 -19 38.5t-5 64.5q0 34 4.5 60t13.5 49
l77 191h46l-74 -180q16 11 38 11q39 0 59 -23q7 -7 11.5 -15t7.5 -20t4.5 -29.5t1.5 -43.5zM620 128q0 40 -4 58.5t-14 26.5q-5 4 -13.5 7t-19.5 3q-12 0 -20.5 -3t-13.5 -7q-10 -8 -14 -26.5t-4 -58.5t4 -58.5t14 -26.5q5 -4 13.5 -7t20.5 -3q11 0 19.5 3t13.5 7
q10 8 14 26.5t4 58.5z" />
    <glyph glyph-name="oneeighth" unicode="&#x215b;" horiz-adv-x="708" 
d="M131 285v379l-69 -47v47l69 48h43v-427h-43zM254 0h-47l247 712h47zM664 119q0 -40 -6 -62t-23 -38q-26 -24 -66 -24q-20 0 -38 6.5t-29 17.5q-18 16 -23 38t-5 62q0 18 0.5 31t2.5 22t4.5 16t7.5 14q5 8 12.5 13.5t15.5 10.5q-19 10 -27 24q-8 13 -10 28t-2 42
q0 35 5.5 55.5t21.5 34.5q23 22 64 22q19 0 35.5 -5.5t28.5 -16.5q17 -14 22.5 -34.5t5.5 -55.5q0 -27 -3 -42t-11 -28q-8 -14 -25 -24q8 -5 16 -10.5t13 -13.5q4 -7 7 -14t4 -16t1.5 -22t0.5 -31zM621 119q0 35 -3.5 50t-12.5 24q-13 13 -36 13q-24 0 -37 -13
q-9 -9 -12 -24t-3 -50t3 -49.5t12 -23.5q13 -13 37 -13q23 0 36 13q9 9 12.5 23.5t3.5 49.5zM618 320q0 29 -4 42t-12 21q-9 11 -33 11q-22 0 -33 -11q-8 -8 -11.5 -21t-3.5 -42t3.5 -42.5t11.5 -21.5q11 -11 33 -11q24 0 33 11q8 8 12 21.5t4 42.5z" />
    <glyph glyph-name="threeeighths" unicode="&#x215c;" horiz-adv-x="708" 
d="M245 399q0 -37 -6.5 -56.5t-23.5 -36.5q-12 -12 -32 -19t-43 -7q-49 0 -77 27q-12 13 -18.5 30.5t-6.5 54.5v13h43v-13q0 -26 4 -38.5t14 -20.5q15 -15 41 -15q27 0 42 15q9 9 14.5 23.5t5.5 43.5q0 31 -4.5 45t-12.5 23q-16 19 -45 19h-29v38h29q23 0 40 14
q14 13 16.5 30.5t2.5 37.5q0 19 -4 34t-15 24q-13 14 -40 14t-42 -15q-16 -16 -16 -54v-13h-43v12q0 32 6 50.5t19 30.5q14 13 32 20t44 7t44 -7.5t30 -18.5q15 -14 21.5 -35.5t6.5 -48.5q0 -26 -4 -42.5t-14 -29.5q-16 -20 -39 -29q27 -8 42 -31q9 -13 13.5 -30t4.5 -46z
M254 0h-47l247 712h47zM664 119q0 -40 -6 -62t-23 -38q-26 -24 -66 -24q-20 0 -38 6.5t-29 17.5q-18 16 -23 38t-5 62q0 18 0.5 31t2.5 22t4.5 16t7.5 14q5 8 12.5 13.5t15.5 10.5q-19 10 -27 24q-8 13 -10 28t-2 42q0 35 5.5 55.5t21.5 34.5q23 22 64 22q19 0 35.5 -5.5
t28.5 -16.5q17 -14 22.5 -34.5t5.5 -55.5q0 -27 -3 -42t-11 -28q-8 -14 -25 -24q8 -5 16 -10.5t13 -13.5q4 -7 7 -14t4 -16t1.5 -22t0.5 -31zM621 119q0 35 -3.5 50t-12.5 24q-13 13 -36 13q-24 0 -37 -13q-9 -9 -12 -24t-3 -50t3 -49.5t12 -23.5q13 -13 37 -13q23 0 36 13
q9 9 12.5 23.5t3.5 49.5zM618 320q0 29 -4 42t-12 21q-9 11 -33 11q-22 0 -33 -11q-8 -8 -11.5 -21t-3.5 -42t3.5 -42.5t11.5 -21.5q11 -11 33 -11q24 0 33 11q8 8 12 21.5t4 42.5z" />
    <glyph glyph-name="fiveeighths" unicode="&#x215d;" horiz-adv-x="708" 
d="M235 422q0 -50 -6.5 -75.5t-22.5 -41.5q-11 -11 -29 -18t-38 -7q-40 0 -65 22q-13 11 -19 26.5t-6 39.5v25h44v-25q0 -25 14 -37.5t32 -12.5q14 0 23.5 4.5t14.5 10.5q8 10 11.5 28t3.5 61q0 42 -3.5 60t-11.5 28q-5 6 -13.5 10t-23.5 4q-19 0 -32 -12.5t-13 -32.5v-16
h-44v249h178v-38h-135v-138l10 10t13 9q16 9 36 9t34 -6.5t25 -17.5q6 -7 10.5 -16t7.5 -22.5t4 -33t1 -46.5zM254 0h-47l247 712h47zM664 119q0 -40 -6 -62t-23 -38q-26 -24 -66 -24q-20 0 -38 6.5t-29 17.5q-18 16 -23 38t-5 62q0 18 0.5 31t2.5 22t4.5 16t7.5 14
q5 8 12.5 13.5t15.5 10.5q-19 10 -27 24q-8 13 -10 28t-2 42q0 35 5.5 55.5t21.5 34.5q23 22 64 22q19 0 35.5 -5.5t28.5 -16.5q17 -14 22.5 -34.5t5.5 -55.5q0 -27 -3 -42t-11 -28q-8 -14 -25 -24q8 -5 16 -10.5t13 -13.5q4 -7 7 -14t4 -16t1.5 -22t0.5 -31zM621 119
q0 35 -3.5 50t-12.5 24q-13 13 -36 13q-24 0 -37 -13q-9 -9 -12 -24t-3 -50t3 -49.5t12 -23.5q13 -13 37 -13q23 0 36 13q9 9 12.5 23.5t3.5 49.5zM618 320q0 29 -4 42t-12 21q-9 11 -33 11q-22 0 -33 -11q-8 -8 -11.5 -21t-3.5 -42t3.5 -42.5t11.5 -21.5q11 -11 33 -11
q24 0 33 11q8 8 12 21.5t4 42.5z" />
    <glyph glyph-name="seveneighths" unicode="&#x215e;" horiz-adv-x="708" 
d="M135 285h-46l101 389h-109v-71h-43v109h198v-38zM254 0h-47l247 712h47zM664 119q0 -40 -6 -62t-23 -38q-26 -24 -66 -24q-20 0 -38 6.5t-29 17.5q-18 16 -23 38t-5 62q0 18 0.5 31t2.5 22t4.5 16t7.5 14q5 8 12.5 13.5t15.5 10.5q-19 10 -27 24q-8 13 -10 28t-2 42
q0 35 5.5 55.5t21.5 34.5q23 22 64 22q19 0 35.5 -5.5t28.5 -16.5q17 -14 22.5 -34.5t5.5 -55.5q0 -27 -3 -42t-11 -28q-8 -14 -25 -24q8 -5 16 -10.5t13 -13.5q4 -7 7 -14t4 -16t1.5 -22t0.5 -31zM621 119q0 35 -3.5 50t-12.5 24q-13 13 -36 13q-24 0 -37 -13
q-9 -9 -12 -24t-3 -50t3 -49.5t12 -23.5q13 -13 37 -13q23 0 36 13q9 9 12.5 23.5t3.5 49.5zM618 320q0 29 -4 42t-12 21q-9 11 -33 11q-22 0 -33 -11q-8 -8 -11.5 -21t-3.5 -42t3.5 -42.5t11.5 -21.5q11 -11 33 -11q24 0 33 11q8 8 12 21.5t4 42.5z" />
    <glyph glyph-name="uni215F" unicode="&#x215f;" horiz-adv-x="431" 
d="M131 285v379l-69 -47v47l69 48h43v-427h-43zM254 0h-47l247 712h47z" />
    <glyph glyph-name="uni2189" unicode="&#x2189;" horiz-adv-x="709" 
d="M237 369q0 -23 -7 -39t-19 -27q-13 -11 -32.5 -17t-39.5 -6t-40 6t-31 17q-13 11 -20 27t-7 39v259q0 24 7 39.5t20 26.5q11 11 29.5 17t41.5 6t41 -6t31 -17q12 -11 19 -26.5t7 -39.5v-259zM194 630q0 25 -15.5 37t-39.5 12t-39 -12t-15 -37v-263q0 -25 15 -37t39 -12
t39.5 12t15.5 37v263zM255 0h-47l247 712h47zM677 114q0 -37 -6.5 -56.5t-23.5 -36.5q-12 -12 -32 -19t-43 -7q-49 0 -77 27q-12 13 -18.5 30.5t-6.5 54.5v13h43v-13q0 -26 4 -38.5t14 -20.5q15 -15 41 -15q27 0 42 15q9 9 14.5 23.5t5.5 43.5q0 31 -4.5 45t-12.5 23
q-16 19 -45 19h-29v38h29q23 0 40 14q14 13 16.5 30.5t2.5 37.5q0 19 -4 34t-15 24q-13 14 -40 14t-42 -15q-16 -16 -16 -54v-13h-43v12q0 32 6 50.5t19 30.5q14 13 32 20t44 7t44 -7.5t30 -18.5q15 -14 21.5 -35.5t6.5 -48.5q0 -26 -4 -42.5t-14 -29.5q-16 -20 -39 -29
q27 -8 42 -31q9 -13 13.5 -30t4.5 -46z" />
    <glyph glyph-name="arrowleft" unicode="&#x2190;" horiz-adv-x="632" 
d="M131 241l214 -214h-75l-242 241l242 240h75l-214 -212h445v-55h-445z" />
    <glyph glyph-name="arrowup" unicode="&#x2191;" horiz-adv-x="632" 
d="M344 449v-445h-56v445l-212 -214v75l240 242l240 -242v-75z" />
    <glyph glyph-name="arrowright" unicode="&#x2192;" horiz-adv-x="632" 
d="M362 27h-75l214 214h-445v55h445l-214 212h75l241 -240z" />
    <glyph glyph-name="arrowdown" unicode="&#x2193;" horiz-adv-x="632" 
d="M316 -16l-240 241v76l212 -215v446h56v-446l212 215v-76z" />
    <glyph glyph-name="uni2196" unicode="&#x2196;" horiz-adv-x="632" 
d="M214 419l315 -316l-39 -39l-316 316l2 -302l-54 52v341h341l53 -53z" />
    <glyph glyph-name="uni2197" unicode="&#x2197;" horiz-adv-x="632" 
d="M457 380l-315 -316l-39 39l315 316l-302 -1l53 53h340v-341l-53 -52z" />
    <glyph glyph-name="uni2198" unicode="&#x2198;" horiz-adv-x="632" 
d="M509 64h-340l-54 54l303 -1l-315 315l38 38l316 -314l-2 302l54 -54v-340z" />
    <glyph glyph-name="uni2199" unicode="&#x2199;" horiz-adv-x="632" 
d="M123 64v340l53 54l-1 -302l316 314l38 -38l-315 -315l303 1l-54 -54h-340z" />
    <glyph glyph-name="partialdiff" unicode="&#x2202;" horiz-adv-x="363" 
d="M304 254q0 -90 -7.5 -142.5t-31.5 -79.5q-34 -40 -90 -40q-29 0 -51 10.5t-39 28.5q-24 26 -32 78t-8 141q0 93 7.5 144.5t30.5 77.5q32 35 81 35q33 0 56 -16q8 -5 16.5 -13.5t11.5 -15.5v112q0 26 -5 43.5t-14 28.5q-18 22 -53 22q-43 0 -70 -33l-40 35q43 48 111 48
q60 0 91 -31q18 -18 27 -42.5t9 -74.5v-316zM248 250q0 80 -4 122.5t-21 62.5q-8 10 -20.5 16t-27.5 6t-27.5 -6t-20.5 -16q-17 -20 -21.5 -62.5t-4.5 -122.5q0 -81 4.5 -123.5t21.5 -62.5q8 -10 20.5 -16t27.5 -6t27.5 6t20.5 16q17 20 21 62.5t4 123.5z" />
    <glyph glyph-name="Delta" unicode="&#x2206;" horiz-adv-x="379" 
d="M4 0l159 712h56l156 -712h-371zM189 606l-110 -553h222z" />
    <glyph glyph-name="product" unicode="&#x220f;" horiz-adv-x="433" 
d="M304 -219v926h-176v-926h-59v979h295v-979h-60z" />
    <glyph glyph-name="summation" unicode="&#x2211;" horiz-adv-x="353" 
d="M30 -220v46l142 458l-129 430v46h258v-53h-193l113 -396v-57l-125 -420h205v-54h-271z" />
    <glyph glyph-name="minus" unicode="&#x2212;" horiz-adv-x="431" 
d="M48 250zM48 250v54h335v-54h-335z" />
    <glyph glyph-name="uni2219" unicode="&#x2219;" horiz-adv-x="431" 
d="M53 115zM379 278q0 -34 -13 -63.5t-35 -51.5t-51.5 -35t-63.5 -13t-63.5 13t-51.5 35t-35 51.5t-13 63.5t13 63.5t35 51.5t51.5 35t63.5 13t63.5 -13t51.5 -35t35 -51.5t13 -63.5z" />
    <glyph glyph-name="radical" unicode="&#x221a;" horiz-adv-x="441" 
d="M335 659l-153 -659h-61l-117 493h64l83 -405l133 624h129v-53h-78z" />
    <glyph glyph-name="infinity" unicode="&#x221e;" horiz-adv-x="615" 
d="M564 275q0 -52 -33 -86.5t-88 -34.5q-39 0 -70.5 18.5t-65.5 60.5q-33 -42 -64.5 -61t-70.5 -19q-55 0 -88 35t-33 87t33 87t88 35q38 0 70 -19t65 -61q34 42 65 61t71 19q55 0 88 -35t33 -87zM511 274q0 32 -20 51t-51 19q-28 0 -49.5 -19t-47.5 -51q26 -32 47.5 -50.5
t49.5 -18.5q31 0 51 18.5t20 50.5zM272 274q-26 32 -47.5 52t-49.5 20q-31 0 -51 -20t-20 -52t20 -50.5t51 -18.5q28 0 49.5 18.5t47.5 50.5z" />
    <glyph glyph-name="integral" unicode="&#x222b;" horiz-adv-x="282" 
d="M237 664q-29 0 -48.5 -20t-19.5 -59v-657q0 -34 -8 -56t-26 -41q-34 -34 -85 -34h-20v51h16q29 0 48 19.5t19 59.5v656q0 36 9.5 59t24.5 39q15 15 38 24t48 9h19v-50h-15z" />
    <glyph glyph-name="approxequal" unicode="&#x2248;" horiz-adv-x="431" 
d="M385 347q-32 -32 -53 -43t-46 -11q-21 0 -40.5 7.5t-40.5 17.5q-16 7 -29.5 12.5t-30.5 5.5t-29.5 -6t-34.5 -28l-35 34q32 32 53 42.5t46 10.5q21 0 40.5 -7t40.5 -17q17 -8 30.5 -13t29.5 -5q17 0 30 6t35 28zM385 202q-32 -32 -53 -42.5t-46 -10.5q-21 0 -40.5 7
t-40.5 17q-16 8 -29.5 13t-30.5 5t-29.5 -6t-34.5 -28l-35 34q32 32 53 43t46 11q21 0 40.5 -7.5t40.5 -17.5q17 -7 30.5 -12.5t29.5 -5.5q17 0 30 6t35 28z" />
    <glyph glyph-name="notequal" unicode="&#x2260;" horiz-adv-x="432" 
d="M171 179l-75 -94l-40 30l52 64h-62v53h102l74 91h-176v53h215l74 94l40 -30l-51 -64h62v-53h-101l-74 -91h175v-53h-215z" />
    <glyph glyph-name="lessequal" unicode="&#x2264;" horiz-adv-x="361" 
d="M34 328v49l293 170v-63l-229 -132l229 -131v-63zM34 167v62l293 -170v-62z" />
    <glyph glyph-name="greaterequal" unicode="&#x2265;" horiz-adv-x="361" 
d="M34 158v63l229 131l-229 132v63l293 -170v-49zM34 -3v62l293 170v-62z" />
    <glyph glyph-name="dotmath" unicode="&#x22c5;" horiz-adv-x="431" 
d="M154 217zM154 217v123h123v-123h-123z" />
    <glyph glyph-name="lozenge" unicode="&#x25ca;" horiz-adv-x="500" 
d="M250 55l-197 279l197 279l197 -279zM250 527l-135 -193l135 -195l135 195z" />
    <glyph glyph-name="fi" unicode="&#xfb01;" horiz-adv-x="400" 
d="M16 0zM134 465v-465h-56v465h-62v44h62v69q0 68 38 103q22 20 49 26.5t56 6.5v-51q-87 0 -87 -85v-69h87v-44h-87zM281 0v509h56v-509h-56zM273 626v72h72v-72h-72z" />
    <glyph glyph-name="fl" unicode="&#xfb02;" horiz-adv-x="436" 
d="M16 0zM134 465v-465h-56v465h-62v44h62v69q0 68 38 103q22 20 49 26.5t56 6.5v-51q-87 0 -87 -85v-69h87v-44h-87zM420 0q-29 0 -54.5 6t-46.5 26q-18 17 -28 41.5t-10 62.5v576h56v-576q0 -42 20.5 -64t62.5 -22v-50z" />
    <glyph glyph-name="uniFEFF" unicode="&#xfeff;" horiz-adv-x="0" 
 />
    <glyph glyph-name="caroncomma.ss01" horiz-adv-x="500" 
d="M364 570v152h52v-112z" />
    <glyph glyph-name="caroncomma" horiz-adv-x="500" 
d="M393 586h-44l21 134h53z" />
    <glyph glyph-name="commaaccent" horiz-adv-x="354" 
d="M163 -171h-53l53 134h46z" />
    <glyph glyph-name="commaturn" horiz-adv-x="322" 
d="M199 720h53l-53 -134h-46z" />
    <glyph glyph-name="breveCyrLc.comp" horiz-adv-x="354" 
d="M289 684q-4 -54 -32 -78.5t-80 -24.5t-80 24.5t-33 78.5h48q6 -61 65 -61q58 0 64 61h48z" />
    <glyph glyph-name="breveCyrUc.comp" horiz-adv-x="456" 
d="M336 857q-5 -53 -33 -77.5t-80 -24.5t-79.5 24.5t-32.5 77.5h48q6 -61 64 -61q59 0 65 61h48z" />
    <glyph glyph-name="grave.lc" horiz-adv-x="354" 
d="M156 586l-75 130h58l66 -130h-49z" />
    <glyph glyph-name="dieresis.lc" horiz-adv-x="354" 
d="M214 606v63h63v-63h-63zM76 606v63h64v-63h-64z" />
    <glyph glyph-name="macron.lc" horiz-adv-x="354" 
d="M71 611v45h212v-45h-212z" />
    <glyph glyph-name="acute.lc" horiz-adv-x="354" 
d="M199 586h-49l65 130h58z" />
    <glyph glyph-name="circumflex.lc" horiz-adv-x="354" 
d="M237 586l-60 92l-60 -92h-52l87 130h50l86 -130h-51z" />
    <glyph glyph-name="caron.lc" horiz-adv-x="354" 
d="M202 580h-50l-87 129h52l60 -91l60 91h51z" />
    <glyph glyph-name="breve.lc" horiz-adv-x="354" 
d="M287 684q-9 -104 -110 -104t-111 104h46q7 -60 65 -60q56 0 65 60h45z" />
    <glyph glyph-name="dotaccent.lc" horiz-adv-x="354" 
d="M145 610v63h63v-63h-63z" />
    <glyph glyph-name="ring.lc" horiz-adv-x="354" 
d="M268 672q0 -38 -26.5 -64.5t-64.5 -26.5t-64.5 26.5t-26.5 64.5t26.5 64.5t64.5 26.5t64.5 -26.5t26.5 -64.5zM229 672q0 22 -15.5 37.5t-36.5 15.5q-22 0 -37.5 -15.5t-15.5 -37.5q0 -21 15.5 -36.5t37.5 -15.5q21 0 36.5 15.5t15.5 36.5z" />
    <glyph glyph-name="tilde.lc" horiz-adv-x="354" 
d="M297 635q-26 -25 -41.5 -31.5t-29.5 -6.5q-16 0 -28 4.5t-26 12.5q-11 7 -21 11.5t-21 4.5q-9 0 -17.5 -3.5t-25.5 -20.5l-28 29q25 25 40.5 31.5t29.5 6.5q17 0 28.5 -4.5t25.5 -12.5q11 -7 21 -11.5t21 -4.5q8 0 17 3.5t26 20.5z" />
    <glyph glyph-name="hungarumlaut.lc" horiz-adv-x="354" 
d="M136 586h-48l59 130h58zM262 586h-47l58 130h58z" />
    <glyph glyph-name="grave.uc" horiz-adv-x="421" 
d="M189 764l-75 130h59l65 -130h-49z" />
    <glyph glyph-name="dieresis.uc" horiz-adv-x="421" 
d="M248 784v63h63v-63h-63zM110 784v63h63v-63h-63z" />
    <glyph glyph-name="macron.uc" horiz-adv-x="421" 
d="M105 785v45h212v-45h-212z" />
    <glyph glyph-name="acute.uc" horiz-adv-x="421" 
d="M232 764h-49l65 130h59z" />
    <glyph glyph-name="circumflex.uc" horiz-adv-x="421" 
d="M270 764l-59 92l-60 -92h-52l87 130h50l86 -130h-52z" />
    <glyph glyph-name="caron.uc" horiz-adv-x="421" 
d="M236 758h-50l-87 129h52l60 -91l59 91h52z" />
    <glyph glyph-name="breve.uc" horiz-adv-x="421" 
d="M321 858q-9 -104 -110 -104q-102 0 -111 104h46q7 -60 65 -60q56 0 64 60h46z" />
    <glyph glyph-name="dotaccent.uc" horiz-adv-x="421" 
d="M179 784v63h63v-63h-63z" />
    <glyph glyph-name="ring.uc" horiz-adv-x="421" 
d="M302 842q0 -19 -7.5 -35.5t-20 -29t-29 -19.5t-34.5 -7q-38 0 -64.5 26.5t-26.5 64.5t26.5 64.5t64.5 26.5q18 0 34.5 -7t29 -19.5t20 -29t7.5 -35.5zM263 842q0 22 -15.5 37t-36.5 15q-22 0 -37.5 -15t-15.5 -37t15.5 -37.5t37.5 -15.5q21 0 36.5 15.5t15.5 37.5z" />
    <glyph glyph-name="tilde.uc" horiz-adv-x="421" 
d="M330 813q-26 -25 -41.5 -31.5t-29.5 -6.5q-16 0 -28 4.5t-26 12.5q-11 7 -21 11.5t-21 4.5q-9 0 -17.5 -3.5t-25.5 -20.5l-28 29q25 25 40.5 31.5t29.5 6.5q17 0 28.5 -4.5t25.5 -12.5q11 -7 21 -11.5t21 -4.5q8 0 17 3.5t26 20.5z" />
    <glyph glyph-name="hungarumlaut.uc" horiz-adv-x="421" 
d="M171 764h-48l59 130h59zM297 764h-47l58 130h59z" />
    <glyph glyph-name=".ttfautohint" horiz-adv-x="421" 
d="M0 0z" />
    </font>
</defs>
</svg>
